<svg xmlns="http://www.w3.org/2000/svg" xmlns:xlink="http://www.w3.org/1999/xlink" xml:space="preserve" id="svg68" width="1000" height="1000" x="0" y="0" version="1.1"><style id="style1" type="text/css">.st0{fill:#fef8fc}.st1{fill:#b9e2fa}.st3{fill:#fff8ca}.st4{fill:#951b81}.st6{fill:#390b46}.st7{fill:#fff}.st8{fill:none}.st9{fill:#ee74aa}.st10{fill:#c9cce6}.st12{fill:#84b1db}.st13{fill:#d8c395}</style><g id="Camada_3" transform="translate(-286.164 -286.163) scale(1.572327)"><g id="g38"><path id="path1" d="M439.44 580.64c3.89 4.18 9.08 5.22 12.75 5.34 8.22.28 17.48-3.59 24.74-10.38 12.45-11.66 15.88-28.36 7.63-37.24-3.89-4.18-9.08-5.21-12.75-5.34-.29-.01-.57-.01-.86-.01-8.01 0-16.88 3.84-23.88 10.4-7.69 7.2-11.93 16.32-12.11 24.34.1.6.12 1.23.03 1.85.25 4.23 1.69 8.07 4.45 11.04z" class="st0"/><path id="path2" d="M597.13 646.65c-.99-7.99-6.08-41.22-24.47-66.46-14.97-20.54-34.79-35.16-45.77-42.32a68.198 68.198 0 0 0-19.32 8.24c12.89 8.67 34.01 26.28 48.12 44.29 18.6 23.72 25.07 55.67 27.1 69.68a67.706 67.706 0 0 0 14.34-13.43z" class="st1"/><path id="path3" d="M559.95 537.72a68.338 68.338 0 0 0-16.26-1.96c-2.32 0-4.63.13-6.92.37 11.75 8.3 28.41 21.91 41.55 39.94.33.46.65.92.98 1.38-.11-1.34-.16-2.68-.1-4.06.25-4.88 1.36-9.8 3.4-14.34-8.58-9.52-17.57-17.22-22.65-21.33z" class="st1"/><path id="path4" d="M543.69 672.26c3.34 0 6.63-.24 9.85-.69-.47-3.37-1.34-8.36-2.86-14.35h-.49c-9.74 0-20.91-.83-35.84-5.54-11.18-3.53-21.4-9.07-31.07-16.86-.01.3-.01.59-.03.89 11.84 22.57 34.89 36.55 60.44 36.55z" class="st1"/><path id="path5" d="M587.23 551.46a68.357 68.357 0 0 0-7.31-5.31c2.09 2.05 4.22 4.24 6.35 6.54.31-.42.63-.82.96-1.23z" class="st1"/><path id="path6" d="M576.28 664.08c-1.39-11.21-7.03-45.04-26.09-69.36-14.54-18.55-36.74-36.63-48.78-44.28-.5.4-1 .81-1.5 1.22-.17 5.87-1.79 12-4.77 17.84 14.84 9.95 27.33 21.49 38 35.11 19.6 25 25.57 53.87 27.27 65.6 5.6-1.39 10.92-3.46 15.87-6.13z" class="st1"/><path id="path7" d="M538.52 625.64c-3.02-5.61-6.6-11.26-10.88-16.72-.8-1.02-1.61-2.02-2.43-3.02-18.67-6.01-28.73-12.13-40.74-22.3-.01.01-.02.01-.02.02-2.35 2.2-4.84 4.14-7.44 5.83-.26 1.21-.5 2.42-.7 3.64 9.9 7.95 20.75 16.01 33.07 21.67 12.68 5.84 22.27 9.08 29.14 10.88z" class="st1"/><path id="path8" d="m483.09 625.67.1-.11c10.32 9.27 21.2 15.63 33.26 19.44 13.29 4.2 23.43 5.12 32.26 5.21-1.57-5.11-3.59-10.69-6.19-16.44-9.95-1.99-22.38-6.34-36.07-12.62-11.12-5.11-20.98-11.97-30.01-19a54.98 54.98 0 0 1 3.72 8.85c1.53 4.79 2.5 9.71 2.93 14.67z" class="st1"/><path id="path9" d="M489.25 578.49c8.35 7.05 15.55 11.91 25.77 16.23-7.07-7.04-14.86-13.41-23.49-19.22a53.65 53.65 0 0 1-2.28 2.99z" class="st1"/><path id="path10" d="M610.99 615.34c-5.65-1.26-11.25-3.65-16.06-7.32 4.25 11.66 6.67 22.47 8 30.1 3.93-6.89 6.7-14.57 8.06-22.78z" class="st1"/><path id="path11" d="M543.56 354.69c1.7-3.29 3.54-6.52 5.55-9.66 2.01-3.14 4.2-6.19 6.58-9.12.24-.3.49-.59.73-.88-4.97-2.65-10.39-4.52-15.98-5.7-6.92-1.46-14.11-1.97-21.19-1.62-1.77.1-3.5.23-5.25.48-1.77.28-3.55.46-5.31.83l-2.64.49c-.88.18-1.74.4-2.62.59-1.75.37-3.47.88-5.19 1.34-6.86 1.98-13.52 4.66-19.66 8.06-3.03 1.71-6.01 3.63-8.41 5.71-.29.26-.62.52-.85.77l-.89.88a11.477 11.477 0 0 1-4.1 2.66 11.6 11.6 0 0 1-4.81.72c-.81-.04-1.62-.19-2.4-.4-.39-.11-.78-.23-1.15-.38l-.75-.3c-6.32-2.55-13.22-3.99-20.12-4.47a69.37 69.37 0 0 0-5.17-.17c-1.71.02-3.43.1-5.15.25-3.44.3-6.89.85-10.31 1.61-3.42.75-6.82 1.71-10.16 2.83-1.67.56-3.33 1.17-4.96 1.81-.77.31-1.53.62-2.29.94-.27.96-.55 1.95-.8 2.91-.48 1.82-.91 3.65-1.35 5.48-.86 3.67-1.58 7.36-2.18 11.05-.62 3.69-1.07 7.38-1.31 11.03-.16 1.83-.16 3.64-.22 5.45.03 1.8.01 3.56.15 5.4.22 3.64.68 7.21 1.44 10.66.76 3.44 1.79 6.77 3.21 9.88 1.4 3.12 3.17 6.04 5.32 8.69l.81.99c.26.3.52.59.82.91.58.63 1.23 1.28 1.9 1.95l2.1 2.09.55.57.29.3.18.19.35.39a8.761 8.761 0 0 1 1.84 3.71c.31 1.35.29 2.77-.05 4.11-.17.67-.43 1.32-.74 1.92-.14.26-.38.66-.33.57l-.16.26c-.44.74-.89 1.53-1.32 2.32-.86 1.6-1.67 3.23-2.41 4.89-1.46 3.31-2.75 6.7-3.44 10.03-1.51 7.23-2.64 15.27-4.46 23-.84 3.8-1.71 7.55-2.09 11-.19 1.68-.16 3.36.05 4.27.04.58.66 1.35 1.24 1.64.62.38 1.97.48 3.51.15 1.54-.3 3.22-.92 4.9-1.64 3.37-1.48 6.77-3.39 10.26-5.35.13-.12.32-.11.44.02.08.09.1.21.07.31l-.02.06c-1.93 5.67-3.6 11.31-4.66 16.84-.24 1.39-.47 2.73-.61 4.12-.13 1.4-.24 2.74-.23 4.01-.02 2.55.4 4.8 1.23 6.39.09.21.21.39.33.57.1.19.24.36.37.53.06.07.14.2.18.23.04.03.07.06.1.1.09.05.13.13.22.19.29.26.69.67 1.42 1.1 1.39.91 4.08 1.61 6.55 1 2.49-.59 5.24-1.5 7.87-2.7 2.63-1.17 5.19-2.6 7.73-4.1.04-.02.07-.05.1-.06.13-.07.29-.03.36.1.05.1.04.21-.03.29v.01c-.29.38-.59.73-.89 1.1a22.228 22.228 0 0 0-3.41 6.23c-.91 2.61-1.29 5.29-1.15 7.87.14 2.58.75 5.06 1.73 7.4.06.15.13.29.2.43 1.9-2.61 4.09-5.11 6.58-7.44 9.48-8.88 21.37-13.74 32.64-13.35 8.13.28 15.38 3.43 20.42 8.85 2.08 2.24 3.69 4.78 4.88 7.52a80.26 80.26 0 0 1 46.19-14.63c19.55 0 38.21 7.06 52.85 19.89.91-.5 1.84-.96 2.8-1.36 1.5-.62 3.03-1.14 4.6-1.49 1.6-.36 3.06-.57 4.61-.73 3.06-.31 6.21-.23 9.29.36 3.08.59 6.07 1.72 8.71 3.34 2.65 1.61 4.94 3.69 6.81 6.01 1.88 2.32 3.39 4.86 4.59 7.49.6 1.32 1.12 2.66 1.56 4.03.22.68.42 1.37.61 2.06l.26 1.05.12.53.05.27.03.14.01.07c.01.08 0-.1.04.26 0 .43-.35.79-.79.79-.44 0-.79-.35-.79-.79.03.32.01.09 0 .13l-.02-.06-.04-.12-.09-.24-.18-.47-.39-.94c-.27-.62-.56-1.24-.86-1.85-.61-1.21-1.27-2.39-1.99-3.53-1.44-2.27-3.13-4.35-5.04-6.11-1.91-1.76-4.04-3.2-6.3-4.21-2.27-1-4.68-1.57-7.12-1.71-2.44-.14-4.91.12-7.35.69-2.5.58-4.71 1.36-6.75 2.53-4.08 2.3-7.26 5.9-9.18 10.09-1.95 4.18-2.64 8.91-2.4 13.62.08 2.34.2 4.84.58 7.18a32.45 32.45 0 0 0 1.89 6.82c1.72 4.33 4.45 8.09 7.97 10.93 3.53 2.83 7.86 4.75 12.58 5.73 4.71.99 9.78 1.09 14.84.6 5.02-.52 9.86-1.68 14.07-3.79 4.21-2.09 7.76-5.09 10.37-8.93 2.63-3.82 4.35-8.42 5.31-13.32.99-5.03 1.35-10.2 1.15-15.31-.14-2.56-.41-5.1-.83-7.63a66.46 66.46 0 0 0-1.78-7.47c-1.49-4.91-3.6-9.64-6.22-14.07a61.793 61.793 0 0 0-4.32-6.36c-.78-1-1.59-1.98-2.41-2.86l-.58-.61-.12-.12c-.07-.07-.26-.28-.38-.42-.27-.33-.46-.59-.7-1.01-.44-.76-.83-1.9-.81-3.11.01-1.21.39-2.27.8-3 .41-.73.84-1.21 1.23-1.6.39-.38.74-.66 1.09-.9.17-.12.34-.23.52-.33l.27-.16.16-.08c.92-.52 1.8-.99 2.67-1.37l2.65-1.06c1.68-.67 3.22-1.35 4.61-2.15.7-.39 1.36-.83 1.98-1.29.6-.45 1.2-.92 1.72-1.47 1.08-1.07 2.01-2.32 2.7-3.7.68-1.38 1.15-2.89 1.24-4.37.01-.36.02-.73-.02-1.08-.03-.4-.1-.81-.18-1.18-.17-.76-.45-1.53-.81-2.3-.72-1.52-1.8-2.98-3.09-4.28-.33-.31-.65-.67-.98-.94-.35-.3-.73-.59-1.1-.89-.76-.58-1.54-1.16-2.32-1.73l-.04-.03c-.13-.09-.15-.27-.06-.4a.27.27 0 0 1 .36-.08c3.2.8 6.43 1.43 9.61 1.84 3.17.4 6.35.6 9.18.26 1.4-.17 2.71-.51 3.65-.99.48-.23.85-.51 1.11-.78.14-.15.22-.25.33-.42.12-.16.22-.33.3-.49.33-.68.36-1.26.31-1.83-.05-.56-.1-1.22-.34-2.11-.45-1.79-1.97-4.04-3.88-6.13a170.36 170.36 0 0 1-6.9-7.33c-4.42-5.03-8.61-10.21-12.15-15.89l-.01-.01a.451.451 0 0 1 .61-.63c3.73 1.54 7.58 2.79 11.19 3.28 1.79.25 3.53.25 4.87-.08.67-.17 1.21-.4 1.63-.65.41-.25.72-.48 1.01-.76.3-.27.6-.63.89-1.1l.2-.36a2.159 2.159 0 0 0 .12-.55c.12-.87-.08-2.45-.52-4.02-.89-3.22-2.49-6.66-4.27-9.98-3.61-6.68-8.03-13.16-12.73-19.33-2.36-3.09-4.81-6.11-7.36-9.07-2.55-2.98-5.17-5.81-7.93-8.86-.7-.8-1.39-1.55-2.2-2.6l-.32-.43c-.1-.14-.22-.31-.35-.51-.24-.38-.54-.8-.92-1.83l-.14-.45-.06-.23-.07-.39c-.04-.26-.07-.53-.08-.79l-.01-.28-.01-.35-.01-.71c-.04-1.89-.14-3.78-.29-5.67-.3-3.78-.79-7.56-1.49-11.3-1.39-7.46-3.57-14.77-6.69-21.47-1.58-3.34-3.38-6.52-5.48-9.4-2.26-3.06-4.64-6.06-7.15-8.92-2.51-2.85-5.17-5.57-7.94-8.1-1.4-1.25-2.8-2.5-4.27-3.61-.73-.57-1.46-1.12-2.2-1.63-.18-.13-.35-.24-.53-.36l-.39.03c-.75.06-1.53.16-2.33.25-1.58.2-3.22.45-4.85.79-3.27.68-6.56 1.64-9.82 2.78-3.26 1.14-6.48 2.54-9.64 4-3.01 1.42-5.9 3.22-8.7 5.23-2.81 2.01-5.47 4.29-8.02 6.73a94.267 94.267 0 0 0-7.29 7.77c-4.63 5.44-8.87 11.35-12.53 17.56l-.02.03c-.24.41-.77.55-1.18.31-.37-.22-.52-.67-.37-1.05 1.34-3.47 2.9-6.8 4.6-10.09zm-98.94 31.74c-.29 1.62-1.08 2.93-1.84 3.87-.78.97-1.58 1.68-2.37 2.3-1.57 1.24-3.1 2.15-4.58 3.08-2.94 1.83-5.69 3.63-8.07 5.87-4.81 4.53-8.88 10.33-12.42 16.27l-.01.02c-.17.28-.53.37-.8.2a.584.584 0 0 1-.25-.71c1.22-3.34 2.63-6.58 4.27-9.75 1.65-3.17 3.49-6.27 5.83-9.17 2.32-2.94 5.18-5.4 7.89-7.65 1.35-1.13 2.69-2.22 3.78-3.25.53-.52 1-1.02 1.3-1.43.31-.42.38-.7.38-.81.01-.03 0-.06.01-.09-.01-.02.01.01-.01-.03 0-.03-.04-.16-.12-.32-.17-.33-.49-.8-.93-1.3-.88-.98-2.06-2.01-3.32-2.98-2.54-1.97-5.41-3.8-8.36-5.49-2.91-1.67-6.05-3.21-9.17-4.77l-9.42-4.65a.7.7 0 0 1 .47-1.31c3.44.8 6.84 1.67 10.23 2.65 3.4.97 6.77 1.97 10.18 3.29 3.35 1.33 6.66 2.8 9.88 4.8 1.6 1.03 3.19 2.16 4.68 3.76.75.79 1.48 1.73 2.08 2.97.3.63.56 1.33.7 2.16.08.39.1.86.11 1.27-.02.39-.04.8-.12 1.2zM480.5 515c-11.3 0-20.5-9.2-20.5-20.5 0-1.67.22-3.28.6-4.83-.59-.34-1.16-.7-1.7-1.09-1.98-1.49-3.67-3.05-5.36-4.66a.54.54 0 0 1-.02-.77c.13-.14.32-.19.49-.16h.02c2.24.4 4.54.77 6.68.89.82.03 1.59-.03 2.37-.13 3.62-5.83 10.06-9.74 17.42-9.74 11.3 0 20.5 9.2 20.5 20.5S491.8 515 480.5 515zm84.99-140.92.02-.48c.1-1.17.34-2.03.59-2.87.52-1.64 1.1-3.09 1.77-4.49 1.31-2.8 3.06-5.27 4.87-7.64 1.82-2.38 3.72-4.67 5.78-6.85 2.03-2.19 4.31-4.27 6.68-6.1 4.76-3.66 9.89-6.6 15.34-8.86.35-.15.76.02.91.38.13.31.02.66-.25.84l-.03.02c-4.69 3.26-9.1 6.96-12.98 10.97a62.449 62.449 0 0 0-5.32 6.38c-1.63 2.26-3.19 4.6-4.63 6.98-1.44 2.39-2.75 4.84-4.13 7.15l-.39.69c1.01-.43 2.04-.87 3.11-1.26 2.81-1.06 5.88-1.98 9.08-2.21 3.07-.24 6.22.09 9.29.97.77.23 1.53.5 2.31.85.39.18.78.38 1.19.66.2.13.42.31.65.53.12.13.24.26.38.48.06.09.15.28.2.42.03.09.06.23.08.35.02.11.03.25 0 .44-.04.34-.21.69-.46.96-.18.19-.48.37-.62.41-.09.03-.17.06-.26.09l-.07.02-.12.04-.5.14c-.33.1-.67.18-.99.3-.65.22-1.29.47-1.92.76-2.19.95-4.15 2.3-5.91 3.83 3.02-.51 6.2-.64 9.39-.07.81.15 1.61.34 2.41.57.87.26 1.73.62 2.48 1.04 1.52.83 2.79 1.87 3.91 2.98 2.2 2.26 3.93 4.76 5.1 7.59a.45.45 0 0 1-.24.58c-.15.06-.31.04-.43-.05l-.02-.02c-2.38-1.72-4.68-3.42-7.03-4.72-1.16-.66-2.33-1.22-3.44-1.57-.56-.18-1.07-.3-1.61-.37-.61-.1-1.23-.16-1.86-.19-2.51-.14-5.1.11-7.74.52-1.32.21-2.65.47-4 .76l-2.07.47-1.14.25c-.21.04-.42.09-.7.13-.15.02-.3.04-.54.06-.12.01-.25.02-.46.01-.07 0-.25-.01-.4-.04-.1-.02-.11-.01-.27-.05a2.974 2.974 0 0 1-.99-.41c-.26-.18-.38-.25-.69-.59-.26-.3-.48-.69-.59-1.03-.1-.32-.16-.67-.16-1.01.01-.32.03-.41.07-.63.03-.17.12-.41.14-.46.06-.16.18-.39.24-.49.06-.09.12-.19.18-.28l.06-.07.09-.12.38-.47c.25-.32.51-.62.79-.91.54-.59 1.1-1.16 1.7-1.68 1.17-1.07 2.45-2.01 3.78-2.84 2.68-1.64 5.54-2.84 8.43-3.77.23-.07.46-.13.68-.2-.04 0-.07-.01-.1-.02-2.6-.31-5.31.21-7.95.71-2.55.47-5.01 1.45-7.51 2.6-1.25.59-2.5 1.2-3.79 1.86-.65.33-1.31.66-2.02.99-.73.33-1.41.67-2.56.98-.31.07-.65.15-1.16.17-.25.01-.58 0-.96-.07-.42-.09-.9-.23-1.44-.6-.52-.35-1-.93-1.22-1.44-.14-.28-.2-.48-.26-.72-.05-.21-.08-.4-.11-.59-.01-.15-.03-.35-.03-.45zm-15.4 95.41c2.41-4.92 6.58-8.6 11.76-10.38 5.18-1.77 10.74-1.43 15.66.98 1.31.64 2.53 1.42 3.65 2.3 1.01-.2 2.02-.44 2.95-.73.95-.3 1.98-.76 2.97-1.24.99-.49 1.98-1.02 2.88-1.64l.03-.02a.546.546 0 0 1 .82.65c-.45 1.13-1.03 2.18-1.63 3.21-.62 1.04-1.25 2.04-2.06 3.07-.47.58-.95 1.12-1.44 1.65.9 1.4 1.66 2.9 2.22 4.52 1.77 5.18 1.43 10.74-.98 15.66s-6.58 8.6-11.76 10.38c-2.18.75-4.42 1.12-6.66 1.12-3.08 0-6.15-.7-9-2.1-4.92-2.41-8.6-6.58-10.38-11.76a20.4 20.4 0 0 1 .97-15.67zm-13.58 28.92a8.176 8.176 0 0 1-3.11 2.94c-.69.36-1.37.6-2.11.77-.74.17-1.54.26-2.36.19-1.15-.05-2.29-.44-3.29-1.03a7.44 7.44 0 0 1-1.86 1.64c-1.46.92-3.13 1.25-4.6 1.18-.72-.02-1.52-.12-2.22-.33-.7-.21-1.35-.47-1.96-.8a9.951 9.951 0 0 1-3.08-2.53.525.525 0 0 1 .08-.74.56.56 0 0 1 .48-.1l.05.01c1.16.34 2.31.7 3.39.9.54.1 1.07.19 1.57.19.5.01.93-.06 1.44-.17.96-.22 1.74-.62 2.25-1.17.26-.28.47-.57.64-.9.08-.16.15-.33.2-.5.03-.08.05-.17.07-.24.01-.05.04-.2.01-.1.01-.04.03-.07.04-.11-.15-.29-.3-.58-.43-.87-.3-.67-.55-1.49-.7-2.05-.18-.62-.33-1.24-.47-1.86-.21-.91-.36-1.83-.49-2.75-.17 0-.36.02-.53.02-5.46 0-7.1-2.37-7.44-4.56a4.86 4.86 0 0 1 .94-3.72c1.31-1.76 4.07-2.94 8.2-3.49 8.13-1.09 10.34 1.74 10.75 4.32v.01a4.86 4.86 0 0 1-.94 3.72c-.97 1.3-2.73 2.28-5.24 2.93.06.86.12 1.72.23 2.58.15 1.09.3 2.29.52 3.04.25.84.64 1.61 1.13 2.21.51.56 1.08 1 1.83 1.17.37.1.78.14 1.21.11.44-.02.91-.12 1.32-.21 1.7-.46 3.43-1.97 4.88-3.77l.04-.04c.18-.22.51-.26.74-.08.14.12.21.3.19.47-.19 1.33-.65 2.55-1.37 3.72z" class="st0"/><path id="path12" fill="#d0b3d7" d="M500 198c-166.52 0-302 135.48-302 302s135.48 302 302 302 302-135.48 302-302-135.48-302-302-302Zm124.35 75.29a6.994 6.994 0 0 1 9.57-2.52 269.45 269.45 0 0 1 31.48 21.5c3.03 2.4 3.54 6.81 1.13 9.83a6.984 6.984 0 0 1-5.49 2.65c-1.52 0-3.06-.5-4.35-1.52a253.231 253.231 0 0 0-29.83-20.37 7.017 7.017 0 0 1-2.51-9.57zm-72.43-26.54a6.988 6.988 0 0 1 8.4-5.23c12.34 2.87 24.6 6.66 36.42 11.28a7.001 7.001 0 0 1 3.97 9.07 7.01 7.01 0 0 1-6.52 4.46c-.85 0-1.71-.15-2.54-.48-11.2-4.38-22.81-7.97-34.5-10.69-3.76-.88-6.11-4.64-5.23-8.41zm-70.58-11.36c12.66-.93 25.51-.95 38.13-.04 3.86.28 6.76 3.62 6.48 7.48a7.004 7.004 0 0 1-7.48 6.48 251.57 251.57 0 0 0-36.11.04 7.002 7.002 0 0 1-7.49-6.47c-.29-3.85 2.61-7.2 6.47-7.49zm-77.26 17.43c11.78-4.58 24.04-8.35 36.43-11.23 3.76-.87 7.53 1.47 8.4 5.24.87 3.77-1.47 7.53-5.24 8.4a253.35 253.35 0 0 0-34.52 10.64c-.83.32-1.69.48-2.53.48-2.8 0-5.45-1.7-6.53-4.47-1.39-3.6.39-7.66 3.99-9.06zm-68.67 39.46c9.93-7.9 20.52-15.15 31.47-21.53 3.34-1.95 7.63-.82 9.57 2.52 1.95 3.34.82 7.63-2.52 9.57a249.46 249.46 0 0 0-29.8 20.39 6.953 6.953 0 0 1-4.36 1.52c-2.06 0-4.1-.9-5.48-2.64-2.4-3.02-1.9-7.42 1.12-9.83zM281.5 350.3a267.523 267.523 0 0 1 23.7-29.86 6.992 6.992 0 0 1 9.89-.42 6.993 6.993 0 0 1 .42 9.89 253.04 253.04 0 0 0-22.46 28.29 7.004 7.004 0 0 1-9.73 1.83c-3.18-2.19-4-6.54-1.82-9.73zm-40.68 89.18a7.938 7.938 0 0 1 4.59-4.05c2.02-.69 4.19-.56 6.11.38 1.92.94 3.36 2.57 4.05 4.59s.56 4.19-.38 6.11a7.938 7.938 0 0 1-4.59 4.05c-.85.29-1.73.44-2.6.44-1.2 0-2.4-.27-3.51-.82a7.938 7.938 0 0 1-4.05-4.59c-.7-2.02-.56-4.19.38-6.11zm9.77 118.09c-.86.29-1.73.43-2.59.43-3.33 0-6.44-2.09-7.57-5.41-1.43-4.17.8-8.73 4.97-10.16 4.17-1.43 8.73.8 10.16 4.97 1.44 4.18-.79 8.74-4.97 10.17zm4.46-56.97c-4.31 4.88-7.51 7.68-9.23 9.18-.31.27-.63.55-.84.75-.1.45-.5.79-.98.79-.21 0-.38-.05-.53-.12-.37.2-.88.13-1.19-.18-.03-.03-.08-.06-.13-.1-3.29-2.41-6.95-5.88-10.87-10.32-4.17-4.72-4.36-10.56-2.7-14.24 1.37-3.04 3.94-4.78 7.04-4.78 2.27 0 5.29.9 7.54 4.89 2.24-3.98 5.26-4.89 7.54-4.89 3.1 0 5.67 1.74 7.04 4.78 1.67 3.68 1.48 9.52-2.69 14.24zm5.02-87.99c-.85 0-1.72-.16-2.56-.49a6.998 6.998 0 0 1-3.95-9.08c2.25-5.71 4.72-11.41 7.36-16.95 1.66-3.49 5.84-4.97 9.33-3.31 3.49 1.66 4.97 5.84 3.31 9.33-2.5 5.25-4.84 10.65-6.97 16.06a7.011 7.011 0 0 1-6.52 4.44zm404.25 250.6c-43.77 43.77-101.96 67.87-163.86 67.87-69.31 0-134.07-30.49-178.3-83.75-2.62-.9-5.22-1.88-7.81-2.94a121.27 121.27 0 0 1-12.72-6.09c-2.09-1.12-4.12-2.41-6.15-3.68-2-1.37-3.99-2.73-5.89-4.31l-1.44-1.14-1.39-1.25-1.38-1.25c-.47-.41-.92-.84-1.34-1.31l-2.6-2.76-2.4-3.02-.59-.76-.53-.82-1.06-1.65c-.35-.55-.71-1.1-1.04-1.66l-.89-1.78c-1.3-2.42-2.05-4.69-2.94-7a68.682 68.682 0 0 1-3.19-14.46c-.49-4.93-.41-9.91.25-14.81.67-4.9 1.91-9.72 3.75-14.34.94-2.32 2.01-4.62 3.3-6.83-3.55-14.61-7.35-35.12-7.35-56.1 0-61.9 24.1-120.09 67.87-163.86 43.77-43.77 101.96-67.87 163.86-67.87 61.9 0 120.09 24.1 163.86 67.87 43.77 43.77 67.87 101.96 67.87 163.86 0 61.9-24.12 120.07-67.89 163.84zm92.27-105.64a8.018 8.018 0 0 1-10.17-4.98c-1.43-4.17.8-8.73 4.97-10.16 4.17-1.43 8.73.8 10.16 4.97 1.45 4.18-.79 8.74-4.96 10.17zm18.16-71.21c1.66 3.69 1.47 9.52-2.7 14.24-4.31 4.88-7.52 7.68-9.24 9.19-.31.27-.63.55-.84.74-.1.45-.5.79-.98.79-.21 0-.38-.05-.53-.12-.37.2-.89.13-1.19-.18-.04-.03-.08-.06-.14-.1-3.29-2.42-6.95-5.89-10.86-10.31-4.17-4.72-4.36-10.56-2.7-14.24 1.37-3.04 3.94-4.78 7.04-4.78 2.27 0 5.29.9 7.54 4.89 2.24-3.98 5.26-4.89 7.54-4.89 3.12-.01 5.69 1.73 7.06 4.77zm-23.34-50.93c4.17-1.43 8.73.8 10.16 4.97 1.43 4.17-.8 8.73-4.97 10.16-.86.29-1.73.43-2.59.43-3.32 0-6.44-2.09-7.57-5.41-1.44-4.16.8-8.72 4.97-10.15zm-20.69-52.67a6.987 6.987 0 0 1 9.32 3.33 265.34 265.34 0 0 1 7.33 16.97 7.001 7.001 0 0 1-13.04 5.1c-2.12-5.42-4.45-10.83-6.94-16.07-1.65-3.5-.17-7.67 3.33-9.33zm-13.14-22.85a6.936 6.936 0 0 1-3.95 1.22 6.99 6.99 0 0 1-5.78-3.05c-6.77-9.9-14.34-19.4-22.49-28.24a7 7 0 0 1 .4-9.89 7 7 0 0 1 9.89.4c8.6 9.34 16.59 19.37 23.75 29.82 2.19 3.2 1.37 7.56-1.82 9.74z"/><path id="path13" d="M485.68 683.69c5.45-1.29 10.21-.84 14.04-.47 3.91.38 6.23.54 8.34-.42 2.83-1.3 4.2-2.58 5.22-4.47a79.632 79.632 0 0 1-33.55-25.82c-.15.38-.29.76-.45 1.14-1.97 4.65-4.79 8.97-8.17 12.71-1.7 1.85-3.53 3.58-5.45 5.15a56.865 56.865 0 0 1-6.07 4.23c-2.1 1.25-4.27 2.37-6.48 3.34-2.22.97-4.48 1.77-6.76 2.49a71.897 71.897 0 0 1-13.93 2.77c-2.35.24-4.71.36-7.07.36-2.38.02-4.87-.12-7.33-.46-4.91-.7-9.92-2.18-14.54-5.03-2.29-1.43-4.48-3.21-6.31-5.37-1.85-2.15-3.32-4.68-4.31-7.33-.49-1.33-.85-2.7-1.11-4.04-.24-1.27-.41-2.61-.48-4-.05-1.12-.02-2.29.1-3.48-7.68.12-15.27-.01-22.93-.35-4.48-.22-8.98-.53-13.49-.93-2.25-.18-4.52-.45-6.78-.68-1.84-.25-3.69-.5-5.54-.78 33.86 35.01 77.92 57.54 125.8 64.52-1.77-3.5-2.74-7.43-2.8-11.66-.13-12.26 10.27-19.09 20.05-21.42z" class="st3"/><path id="path14" d="M569.28 371.91c.02 0 .06-.01.09-.02-.15.01-.14.03-.09.02z" class="st4"/><path id="path15" d="M369.38 641.02c4.33.41 8.68.77 13.03 1.05 4.34.31 8.74.58 13.03.82h.09c.08 0 .16.02.24.03.09-.28.17-.56.23-.85.13-.62.23-1.5.24-1.95.02-1.18-.42-2.83-1.09-4.5-.69-1.67-1.6-3.4-2.64-5.1-2.09-3.42-4.63-6.78-7.36-10.23l-.01-.01a.981.981 0 0 1 .16-1.37c.28-.22.64-.26.95-.15 4.24 1.61 8.18 4 11.69 7.12 1.75 1.57 3.41 3.32 4.85 5.39.73 1.03 1.4 2.15 1.98 3.39.57 1.24 1.09 2.59 1.36 4.16.28 1.68.32 2.97.22 4.49-.12 1.47-.43 2.97-.85 4.32-.43 1.35-.96 2.53-1.38 3.51-.43 1-.77 1.8-1 2.5-.46 1.39-.56 2.56-.43 4.09.07.75.2 1.55.4 2.39.19.76.41 1.47.69 2.15 1.14 2.7 3.19 4.85 5.99 6.43 2.79 1.58 6.25 2.5 9.85 2.89 1.82.2 3.64.27 5.56.21 1.94-.04 3.88-.19 5.81-.44 3.86-.47 7.66-1.32 11.3-2.53 7.25-2.44 13.91-6.27 18.65-11.64 1.19-1.33 2.25-2.76 3.21-4.25.96-1.49 1.74-3.08 2.47-4.7.7-1.64 1.27-3.34 1.73-5.08.42-1.74.79-3.59 1.01-5.49.9-7.56.35-15.5-1.79-22.79-2.03-7.05-5.62-13.46-10.74-18.09-1.26.13-2.52.2-3.77.2-.43 0-.85-.01-1.27-.02-8.13-.28-15.38-3.43-20.42-8.85-3.86-4.16-6.16-9.33-6.98-14.95-.34-.22-.69-.43-1.02-.64-.65-.4-1.3-.8-1.97-1.17-1.34-.75-2.69-1.5-4.07-2.2-2.75-1.34-5.63-2.79-8.28-3.67-2.83-.92-5.88-1.66-8.95-2.22-3.07-.59-6.19-1.07-9.31-1.4h-.01a.808.808 0 0 1 .01-1.61c3.18-.3 6.35-.54 9.56-.72 3.21-.15 6.44-.28 9.8-.1 3.55.26 6.66.8 9.91 1.35 1.54.26 3.08.53 4.62.83.37-2.03.89-4.06 1.59-6.09-.19-.35-.36-.71-.48-1.09l-.09-.28c-1-3.21-1.68-6.56-1.89-9.96-.22-3.39.1-6.84 1.01-10.06.45-1.58 1.05-3.11 1.77-4.54-1.23.92-2.56 1.77-4.03 2.48-.78.34-1.57.68-2.37 1.05-.81.34-1.65.66-2.53.95-1.77.56-3.77.9-5.94.7-2.14-.21-4.52-1.08-6.4-2.83-.47-.42-.91-.91-1.3-1.42l-.55-.8c-.18-.27-.27-.47-.4-.72-.25-.46-.5-.93-.69-1.42-.21-.48-.4-.96-.55-1.45-1.29-3.96-1-7.79-.31-11.07.38-1.65.85-3.21 1.4-4.69l.84-2.23c.29-.74.62-1.45.93-2.18.86-1.87 1.82-3.65 2.87-5.38-1.63 1.33-3.41 2.55-5.56 3.48-1.09.45-2.28.84-3.62 1.04-1.34.17-2.84.16-4.38-.28-1.53-.43-2.99-1.32-4.1-2.38-.27-.27-.55-.54-.78-.82-.12-.15-.23-.27-.36-.44l-.39-.56c-.47-.74-.82-1.5-1.06-2.21-.49-1.43-.64-2.71-.74-3.92a30.5 30.5 0 0 1-.02-3.44c.24-4.35.96-8.27 1.59-12.14.66-3.86 1.17-7.52 1.64-11.41.49-3.87.9-7.75 1.62-11.83.74-4.37 2.1-8.38 3.63-12.28a86.12 86.12 0 0 1 2.55-5.73c.25-.5.5-1.01.76-1.51l-.42-.4c-4.33.13-15.35.95-25.57 5.65-9.43 4.33-22.51 14.71-29.25 26.15-4.74 8.04-6.4 16.57-6.98 21.44 1.41-.18 2.82-.33 4.24-.41 1.98-.12 3.96-.14 5.93-.04l.15 1.98a71.976 71.976 0 0 0-20.9 7.89c-3.18 1.82-6.17 3.9-8.95 6.18-2.76 2.29-5.48 4.63-7.84 7.23-.63.61-1.14 1.34-1.71 2.02-.54.7-1.15 1.33-1.62 2.08l-1.49 2.18c-.5.72-.91 1.51-1.37 2.26-.93 1.48-1.67 3.1-2.47 4.66-.71 1.62-1.44 3.21-2.02 4.88-1.1 2.96-1.98 6.01-2.67 9.09 3.32-1.38 6.77-2.36 10.43-2.7a1.131 1.131 0 0 1 .91 1.92l-.06.06c-3.21 3.23-6.38 6.22-9.25 9.28-2.9 3.02-5.5 6.08-7.64 9.17-1.97 3.01-3.76 6.43-5.03 10.07-1.28 3.65-2.1 7.49-2.46 11.36-.36 3.87-.32 7.79.2 11.64.55 3.85 1.54 7.62 2.84 11.3 1.44 3.83 2.98 6.72 5.24 9.68l1.75 2.15 1.98 2.03c.32.35.67.67 1.04.99l1.09.96 1.08.96 1.17.9c1.52 1.24 3.2 2.33 4.84 3.47 1.72 1.06 3.41 2.15 5.23 3.12 3.58 1.98 7.32 3.77 11.18 5.35 3.86 1.58 7.83 2.99 11.83 4.28 3.76 1.13 7.8 2.06 11.97 2.79 8.35 1.47 16.99 2.49 25.64 3.24z" class="st0"/><path id="path16" d="M500.46 279.62c-121.16 0-219.73 98.57-219.73 219.73 0 11.35 1.19 22.59 2.84 32.75.96-2.44 2.01-4.84 3.2-7.18.92-1.88 1.99-3.68 3.05-5.49 1.16-1.75 2.24-3.54 3.55-5.19 2.47-3.39 5.35-6.46 8.37-9.34 1.55-1.4 3.07-2.84 4.75-4.05 1.6-1.3 3.36-2.41 5.1-3.5 3.54-2.12 7.32-3.76 11.14-5.14.37-.14.75-.25 1.13-.37.18-4.06 1.36-17.5 8.93-30.34 8.37-14.2 23.79-26 34.58-30.96 7.35-3.38 14.89-5.08 20.89-5.93a52.388 52.388 0 0 1-3.17-5.66c-1.93-3.95-3.34-8.1-4.29-12.27-.98-4.17-1.56-8.37-1.86-12.52-.18-2.06-.2-4.21-.25-6.31.04-2.09.08-4.19.25-6.25.28-4.14.79-8.21 1.47-12.23.69-4.02 1.54-7.98 2.52-11.91a154.3 154.3 0 0 1 1.61-5.86c.58-1.97 1.16-3.83 1.88-5.9l.03-.08a5.885 5.885 0 0 1 3.06-3.4c1.08-.49 1.93-.83 2.88-1.21.93-.37 1.85-.72 2.78-1.05 1.85-.67 3.72-1.29 5.59-1.86 3.75-1.14 7.57-2.1 11.44-2.84 3.87-.74 7.81-1.26 11.8-1.5 2-.11 4-.15 6.02-.12 2.03.06 4 .16 5.99.36 7.93.78 15.75 2.63 23.17 5.86l.54.24c.05.03.11.05.17.07.11.04.23.07.34.08.23.04.47 0 .68-.05.21-.07.41-.17.57-.32l1.12-1.06c.42-.42.83-.72 1.25-1.07 3.32-2.7 6.72-4.71 10.22-6.57 7-3.63 14.34-6.32 21.85-8.27 1.89-.45 3.76-.94 5.67-1.29.95-.19 1.9-.39 2.85-.56l2.87-.45c1.91-.34 3.84-.49 5.75-.73 1.95-.22 3.94-.32 5.89-.37 7.81-.17 15.58.6 23.19 2.43 6.65 1.61 13.19 4.1 19.13 7.71.71-.72 1.43-1.43 2.17-2.12a60.86 60.86 0 0 1 9.27-7.17c3.26-1.99 6.54-3.89 10.01-5.57 3.46-1.68 7.04-3.2 10.8-4.44 1.88-.61 3.8-1.2 5.81-1.61 1-.23 2.02-.38 3.08-.52.52-.06 1.07-.11 1.63-.15.27-.03.58-.03.87-.04l.48-.01.62.01c1.07.01 2.06.32 2.91.84l.07.04c.68.43 1.06.71 1.55 1.06.45.33.91.66 1.34 1 .88.67 1.72 1.35 2.55 2.04 1.66 1.38 3.24 2.8 4.8 4.23 3.09 2.9 5.99 5.95 8.73 9.13 2.73 3.19 5.28 6.48 7.72 9.89 2.56 3.62 4.66 7.46 6.44 11.37 3.53 7.85 5.82 16.03 7.26 24.3.72 4.14 1.22 8.3 1.49 12.49.13 2.06.2 4.13.22 6.21.39.49.89 1.08 1.38 1.65 2.55 2.92 5.32 6.01 7.92 9.15 2.62 3.15 5.16 6.37 7.6 9.68 4.84 6.64 9.35 13.5 13.2 20.97 1.9 3.77 3.68 7.63 4.85 12.15.54 2.29 1.04 4.73.61 7.84-.12.78-.31 1.6-.63 2.44-.17.43-.36.85-.59 1.27-.2.35-.36.62-.56.94-.78 1.21-1.79 2.4-3.06 3.37a11.03 11.03 0 0 1-4.26 2c-1.5.34-2.96.35-4.29.17-.38-.05-.73-.14-1.09-.21.29.2.57.41.86.61a212.4 212.4 0 0 0 8.08 5.33c1.58 1 3.14 2.16 4.57 3.62 1.43 1.45 2.77 3.19 3.75 5.35.97 2.14 1.5 4.81 1.01 7.49-.48 2.68-1.94 5.18-3.84 6.89-.48.43-.97.83-1.49 1.18-.51.36-1.12.7-1.68.97-1.16.54-2.32.87-3.42 1.06-2.22.37-4.22.2-6.08-.08-1.86-.3-3.6-.8-5.26-1.37-.9-.31-1.78-.65-2.64-1.02.59.74 1.12 1.54 1.57 2.42.26.53.48 1.04.67 1.57.21.58.36 1.16.49 1.75.44 2.35.33 4.71-.22 6.96a19.65 19.65 0 0 1-2.77 6.35c-.63.99-1.37 1.9-2.15 2.77-.78.84-1.6 1.63-2.46 2.36-1.71 1.46-3.52 2.68-5.24 3.77l-1.18.73c.18.22.36.43.54.65 1.87 2.38 3.58 4.84 5.13 7.41a75.04 75.04 0 0 1 7.4 16.35 77.06 77.06 0 0 1 2.16 8.75c.53 2.96.87 5.96 1.06 8.96.29 6.02-.08 12.03-1.18 17.94-1.13 6.02-3.26 12.12-6.9 17.53-3.59 5.43-8.79 9.89-14.53 12.78-5.76 2.93-11.93 4.4-17.95 5.09-2.47.26-4.97.4-7.5.4-2.81 17.84-11.56 34.21-25 46.55-14.83 13.61-34.1 21.11-54.25 21.11-6.47 0-12.8-.77-18.9-2.23-1.84 4.26-4.79 8.5-11.74 11.68-5.14 2.35-10.1 1.88-14.48 1.46-3.4-.33-6.6-.63-10.12.2-2.55.61-10.88 3.09-10.8 9.57.05 3.72 1.47 10.34 10.13 13.78 4.21.24 8.44.36 12.68.36 121.16 0 219.73-98.57 219.73-219.73-.03-121.18-98.6-219.75-219.76-219.75z" class="st3"/><path id="polygon16" d="m650.99 522.91.03-.02-.24.12z" class="st4"/><path id="path17" fill="#400f4f" d="M500 182c-84.94 0-164.8 33.08-224.86 93.14S182 415.06 182 500c0 84.94 33.08 164.8 93.14 224.86S415.06 818 500 818c84.94 0 164.8-33.08 224.86-93.14S818 584.94 818 500c0-84.94-33.08-164.8-93.14-224.86S584.94 182 500 182Zm0 620c-166.52 0-302-135.48-302-302s135.48-302 302-302 302 135.48 302 302-135.48 302-302 302z"/><path id="path18" d="M651.07 391.86v.07-.05z"/><path id="path19" d="M270.25 382.79c-3.49-1.66-7.67-.18-9.33 3.31-2.64 5.54-5.11 11.24-7.36 16.95-1.42 3.6.35 7.66 3.95 9.08.84.33 1.71.49 2.56.49 2.79 0 5.43-1.68 6.52-4.44 2.13-5.41 4.47-10.81 6.97-16.06 1.66-3.5.18-7.67-3.31-9.33z" class="st6"/><path id="path20" d="M626.88 282.86c10.38 6.05 20.42 12.9 29.83 20.37a6.998 6.998 0 0 0 9.84-1.13c2.4-3.03 1.9-7.43-1.13-9.83a267.776 267.776 0 0 0-31.48-21.5c-3.34-1.95-7.63-.82-9.57 2.52a6.982 6.982 0 0 0 2.51 9.57z" class="st6"/><path id="path21" d="M481.84 249.38c.17 0 .35-.01.52-.02 11.99-.88 24.16-.9 36.11-.04 3.85.26 7.2-2.63 7.48-6.48a6.992 6.992 0 0 0-6.48-7.48c-12.62-.9-25.48-.89-38.13.04-3.86.28-6.75 3.64-6.47 7.49a7.002 7.002 0 0 0 6.97 6.49z" class="st6"/><path id="path22" d="M339.78 304.76c1.53 0 3.07-.5 4.36-1.52 9.4-7.49 19.43-14.34 29.8-20.39a6.994 6.994 0 0 0 2.52-9.57 6.994 6.994 0 0 0-9.57-2.52 265.106 265.106 0 0 0-31.47 21.53 7.016 7.016 0 0 0-1.12 9.84 7.02 7.02 0 0 0 5.48 2.63z" class="st6"/><path id="path23" d="M406.62 266.35c.84 0 1.7-.15 2.53-.48 11.16-4.34 22.77-7.92 34.52-10.64 3.77-.87 6.11-4.63 5.24-8.4-.87-3.77-4.64-6.11-8.4-5.24a267.411 267.411 0 0 0-36.43 11.23c-3.6 1.4-5.39 5.46-3.99 9.06a7.018 7.018 0 0 0 6.53 4.47z" class="st6"/><path id="path24" d="M685.77 319.96a7 7 0 0 0-.4 9.89c8.15 8.84 15.72 18.34 22.49 28.24a7.002 7.002 0 0 0 9.73 1.83 6.993 6.993 0 0 0 1.82-9.73 264.544 264.544 0 0 0-23.75-29.82 6.992 6.992 0 0 0-9.89-.41z" class="st6"/><path id="path25" d="M283.34 360.03c1.21.83 2.58 1.22 3.94 1.22a7.02 7.02 0 0 0 5.79-3.05 253.04 253.04 0 0 1 22.46-28.29c2.61-2.85 2.42-7.28-.42-9.89-2.84-2.61-7.28-2.42-9.89.42a267.523 267.523 0 0 0-23.7 29.86c-2.2 3.19-1.38 7.54 1.82 9.73z" class="st6"/><path id="path26" d="M557.15 255.15c11.69 2.72 23.29 6.31 34.5 10.69a6.995 6.995 0 0 0 9.06-3.98c1.41-3.6-.37-7.66-3.97-9.07a264.823 264.823 0 0 0-36.42-11.28 6.99 6.99 0 0 0-8.4 5.23c-.87 3.76 1.47 7.54 5.23 8.41z" class="st6"/><path id="path27" d="M734.33 408.16a7 7 0 0 0 9.07 3.97 7.001 7.001 0 0 0 3.97-9.07 265.34 265.34 0 0 0-7.33-16.97c-1.66-3.49-5.83-4.98-9.32-3.33-3.49 1.66-4.98 5.83-3.33 9.32 2.49 5.25 4.83 10.66 6.94 16.08z" class="st6"/><path id="path28" d="M746.43 445.59a8.018 8.018 0 0 0 10.17 4.98c4.17-1.43 6.4-5.99 4.97-10.16-1.43-4.17-5.99-6.4-10.16-4.97-4.17 1.42-6.41 5.98-4.98 10.15z" class="st6"/><path id="path29" d="M751.41 542.43c-4.17 1.43-6.4 5.99-4.97 10.16a8.018 8.018 0 0 0 10.17 4.98c4.17-1.43 6.4-5.99 4.97-10.16-1.44-4.17-6-6.41-10.17-4.98z" class="st6"/><path id="path30" d="M244.48 450.18c1.11.54 2.31.82 3.51.82.87 0 1.75-.14 2.6-.44a7.938 7.938 0 0 0 4.59-4.05c.94-1.92 1.08-4.09.38-6.11a7.938 7.938 0 0 0-4.05-4.59 7.911 7.911 0 0 0-6.11-.38 7.938 7.938 0 0 0-4.59 4.05 7.911 7.911 0 0 0-.38 6.11c.7 2.02 2.13 3.65 4.05 4.59z" class="st6"/><path id="path31" d="M245.41 542.43c-4.17 1.43-6.4 5.99-4.97 10.16a8.015 8.015 0 0 0 7.57 5.41c.86 0 1.73-.14 2.59-.43 4.17-1.43 6.4-5.99 4.97-10.16-1.43-4.17-5.99-6.41-10.16-4.98z" class="st6"/><path id="path32" d="M760.17 486.46c-2.24-3.98-5.26-4.89-7.54-4.89-3.11 0-5.67 1.74-7.04 4.78-1.66 3.69-1.47 9.52 2.7 14.24 3.91 4.43 7.56 7.9 10.86 10.31.06.04.1.08.14.1.3.31.82.38 1.19.18.15.07.32.12.53.12.48 0 .88-.34.98-.79.21-.19.53-.47.84-.74 1.72-1.5 4.92-4.3 9.24-9.19 4.17-4.72 4.36-10.56 2.7-14.24-1.37-3.04-3.94-4.78-7.04-4.78-2.3.02-5.32.92-7.56 4.9z" class="st6"/><path id="path33" d="M250.7 481.58c-2.27 0-5.29.9-7.54 4.89-2.24-3.98-5.26-4.89-7.54-4.89-3.1 0-5.67 1.74-7.04 4.78-1.66 3.69-1.47 9.52 2.7 14.24 3.92 4.44 7.58 7.91 10.87 10.32.06.04.1.07.13.1.3.31.81.38 1.19.18.15.07.32.12.53.12.48 0 .88-.34.98-.79.21-.2.53-.47.84-.75 1.72-1.5 4.92-4.3 9.23-9.18 4.17-4.72 4.36-10.56 2.7-14.24-1.38-3.04-3.94-4.78-7.05-4.78z" class="st6"/><path id="path34" d="M565.61 375.36c.07.24.13.44.26.72.23.5.7 1.09 1.22 1.44.55.38 1.03.52 1.44.6.38.07.71.08.96.07.51-.02.86-.1 1.16-.17 1.15-.31 1.82-.65 2.56-.98.71-.33 1.37-.66 2.02-.99 1.29-.65 2.54-1.27 3.79-1.86 2.51-1.15 4.96-2.13 7.51-2.6 2.64-.5 5.36-1.02 7.95-.71.04 0 .07.01.1.02-.23.07-.46.13-.68.2-2.89.93-5.75 2.12-8.43 3.77-1.33.83-2.6 1.77-3.78 2.84-.6.52-1.16 1.09-1.7 1.68-.27.3-.54.59-.79.91l-.38.47-.09.12-.06.07c-.06.09-.12.18-.18.28-.06.09-.17.32-.24.49-.02.05-.11.29-.14.46-.04.22-.07.31-.07.63 0 .34.05.69.16 1.01.11.34.33.73.59 1.03.3.34.43.41.69.59a2.974 2.974 0 0 0 .99.41c.16.04.18.03.27.05.15.02.33.03.4.04.21.01.35 0 .46-.01.24-.02.39-.04.54-.06.28-.04.49-.09.7-.13l1.14-.25 2.07-.47c1.35-.3 2.68-.55 4-.76 2.64-.41 5.23-.66 7.74-.52.63.03 1.25.1 1.86.19.54.07 1.05.19 1.61.37 1.11.35 2.28.91 3.44 1.57 2.35 1.3 4.65 3.01 7.03 4.72l.02.02c.12.09.28.11.43.05.23-.09.34-.35.24-.58-1.17-2.83-2.89-5.34-5.1-7.59-1.12-1.11-2.38-2.14-3.91-2.98-.75-.41-1.61-.78-2.48-1.04-.8-.24-1.6-.42-2.41-.57-3.19-.57-6.38-.44-9.39.07 1.75-1.53 3.72-2.88 5.91-3.83.62-.29 1.27-.54 1.92-.76.32-.13.66-.2.99-.3l.5-.14.12-.04.07-.02c.09-.02.18-.05.26-.09.13-.04.44-.22.62-.41.25-.27.42-.61.46-.96.03-.19.02-.33 0-.44a2.61 2.61 0 0 0-.08-.35c-.05-.14-.14-.34-.2-.42-.14-.22-.26-.35-.38-.48-.23-.22-.44-.39-.65-.53-.41-.28-.8-.47-1.19-.66-.78-.35-1.54-.62-2.31-.85-3.07-.88-6.22-1.21-9.29-.97-3.2.23-6.26 1.14-9.08 2.21-1.07.4-2.1.83-3.11 1.26l.39-.69c1.38-2.31 2.7-4.75 4.13-7.15 1.44-2.39 3.01-4.72 4.63-6.98 1.64-2.27 3.38-4.35 5.32-6.38 3.87-4.01 8.29-7.71 12.98-10.97l.03-.02c.26-.18.37-.53.25-.84a.708.708 0 0 0-.91-.38 67.456 67.456 0 0 0-15.34 8.86 54.379 54.379 0 0 0-6.68 6.1c-2.06 2.18-3.96 4.47-5.78 6.85-1.82 2.38-3.56 4.84-4.87 7.64-.66 1.41-1.25 2.86-1.77 4.49-.25.84-.49 1.7-.59 2.87l-.02.48v.24c0 .1.01.3.03.45.04.19.07.38.12.59zm17.9 9.03c.01-.01.01-.02.02-.03 0 .02-.01.03-.02.03zm-14.14-12.5c-.03.01-.07.02-.09.02-.05.01-.06-.01.09-.02z" class="st6"/><path id="path35" d="M480.5 474c-7.35 0-13.8 3.91-17.42 9.74-.78.1-1.56.17-2.37.13-2.14-.12-4.44-.49-6.68-.89h-.02a.541.541 0 0 0-.49.16c-.21.22-.2.57.02.77 1.69 1.61 3.38 3.17 5.36 4.66.53.39 1.11.75 1.7 1.09-.38 1.55-.6 3.17-.6 4.83 0 11.3 9.2 20.5 20.5 20.5s20.5-9.2 20.5-20.5S491.8 474 480.5 474z" class="st6"/><path id="path36" d="M559.49 496.91a20.344 20.344 0 0 0 15.66.98c5.18-1.77 9.36-5.46 11.76-10.38 2.41-4.92 2.76-10.48.98-15.66-.55-1.62-1.31-3.12-2.22-4.52.49-.52.97-1.06 1.44-1.65.82-1.03 1.45-2.03 2.06-3.07.6-1.04 1.17-2.08 1.63-3.21a.549.549 0 0 0-.82-.65l-.03.02c-.89.62-1.89 1.15-2.88 1.64-.99.48-2.02.94-2.97 1.24-.93.28-1.94.53-2.95.73-1.12-.88-2.34-1.65-3.65-2.3-4.92-2.41-10.48-2.75-15.66-.98a20.309 20.309 0 0 0-11.76 10.38c-2.4 4.92-2.76 10.48-.98 15.66 1.78 5.18 5.47 9.36 10.39 11.77z" class="st6"/><path id="path37" d="m536.92 494.29-.04.04c-1.46 1.8-3.18 3.3-4.88 3.77-.41.09-.89.19-1.32.21-.44.03-.85-.01-1.21-.11-.74-.17-1.31-.62-1.83-1.17-.49-.6-.88-1.37-1.13-2.21-.22-.75-.37-1.95-.52-3.04-.1-.86-.17-1.72-.23-2.58 2.51-.65 4.27-1.63 5.24-2.93.81-1.09 1.14-2.41.94-3.72v-.01c-.41-2.57-2.62-5.41-10.75-4.32-4.13.56-6.88 1.73-8.2 3.49a4.944 4.944 0 0 0-.94 3.72c.35 2.18 1.98 4.56 7.44 4.56.17 0 .36-.02.53-.02.13.92.29 1.84.49 2.75.14.62.29 1.25.47 1.86.15.57.4 1.38.7 2.05.13.3.27.58.43.87-.01.04-.03.07-.04.11.03-.1 0 .05-.01.1-.02.08-.04.16-.07.24-.05.17-.12.34-.2.5-.17.32-.38.62-.64.9-.51.55-1.29.94-2.25 1.17-.5.11-.93.18-1.44.17-.5-.01-1.03-.09-1.57-.19-1.08-.21-2.23-.56-3.39-.9l-.05-.01a.502.502 0 0 0-.48.1c-.23.18-.26.52-.08.74.85 1.06 1.87 1.88 3.08 2.53.6.32 1.25.59 1.96.8.7.2 1.51.31 2.22.33 1.47.08 3.14-.26 4.6-1.18.7-.43 1.34-.99 1.86-1.64 1 .59 2.14.98 3.29 1.03.82.06 1.62-.02 2.36-.19.74-.17 1.42-.41 2.11-.77a8.322 8.322 0 0 0 3.11-2.94c.72-1.17 1.18-2.39 1.34-3.73a.544.544 0 0 0-.19-.47c-.2-.17-.53-.13-.71.09z" class="st6"/><path id="path38" d="M443.93 381.79c-.6-1.24-1.33-2.18-2.08-2.97-1.49-1.59-3.08-2.73-4.68-3.76-3.22-2-6.53-3.47-9.88-4.8-3.41-1.32-6.78-2.32-10.18-3.29-3.39-.98-6.79-1.85-10.23-2.65a.718.718 0 0 0-.79.37.7.7 0 0 0 .32.94l9.42 4.65c3.11 1.56 6.26 3.11 9.17 4.77 2.95 1.69 5.82 3.53 8.36 5.49 1.26.97 2.44 2 3.32 2.98.43.49.76.97.93 1.3.08.16.12.28.12.32.02.03 0 .01.01.03-.01.03 0 .06-.01.09 0 .11-.07.39-.38.81-.3.41-.76.91-1.3 1.43-1.09 1.02-2.43 2.12-3.78 3.25-2.72 2.25-5.57 4.72-7.89 7.65-2.34 2.9-4.18 6.01-5.83 9.17a84.21 84.21 0 0 0-4.27 9.75c-.1.26 0 .56.25.71.28.17.64.07.8-.2l.01-.02c3.54-5.94 7.61-11.74 12.42-16.27 2.38-2.25 5.13-4.04 8.07-5.87 1.48-.92 3.01-1.84 4.58-3.08.79-.61 1.6-1.33 2.37-2.3.76-.94 1.55-2.25 1.84-3.87.07-.4.1-.8.11-1.21-.01-.41-.03-.88-.11-1.27-.13-.82-.4-1.53-.69-2.15z" class="st7"/></g><path id="SVGID_x5F_1_x5F_" d="M792.38 497.53c0-160.89-130.42-291.31-291.31-291.31-160.89 0-291.32 130.42-291.32 291.31 0 160.89 130.42 291.31 291.31 291.31 160.89 0 291.32-130.43 291.32-291.31z" class="st8"/><path id="path39" d="M406.51 365.69c-5 21.01 8.05 50.89 8.05 50.89 1.15-3.07 2.46-6.06 3.98-8.99 1.65-3.17 3.49-6.27 5.83-9.17 2.32-2.94 5.18-5.4 7.89-7.65 1.35-1.13 2.69-2.22 3.78-3.25.53-.52 1-1.02 1.3-1.43.31-.42.38-.7.38-.81.01-.03 0-.06.01-.09-.01-.02.01.01-.01-.03 0-.03-.04-.16-.12-.32-.17-.33-.49-.8-.93-1.3-.88-.98-2.06-2.01-3.32-2.98-2.54-1.97-5.41-3.8-8.36-5.49-2.91-1.67-6.05-3.21-9.17-4.77 0 0-4.73-2.24-7.75-3.79 0 0-.49-.28-1.12-.6 0 .02-.17-.09-.17-.07" class="st9"/><path id="path40" d="M417.28 414.89s5.03-7.83 12.74-12.36c8.26-4.85 10.77-4.25 13.96-6.38 2.7-1.81 5.19-6.81 1.45-12.94s-5.53-5.36-6.89-3.66c-1.36 1.7 1.75 7.59-2.72 11.66-4.77 4.34-11.15 10.13-13.53 13.36-2.4 3.24-5.01 10.32-5.01 10.32z" class="st10"/><path id="path41" d="M443.93 381.79c-.6-1.24-1.33-2.18-2.08-2.97-1.49-1.59-3.08-2.73-4.68-3.76-3.22-2-6.53-3.47-9.88-4.8-3.41-1.32-6.78-2.32-10.18-3.29-3.39-.98-6.79-1.85-10.23-2.65a.718.718 0 0 0-.79.37.7.7 0 0 0 .32.94l9.42 4.65c3.11 1.56 6.26 3.11 9.17 4.77 2.95 1.69 5.82 3.53 8.36 5.49 1.26.97 2.44 2 3.32 2.98.43.49.76.97.93 1.3.08.16.12.28.12.32.02.03 0 .01.01.03-.01.03 0 .06-.01.09 0 .11-.07.39-.38.81-.3.41-.76.91-1.3 1.43-1.09 1.02-2.43 2.12-3.78 3.25-2.72 2.25-5.57 4.72-7.89 7.65-2.34 2.9-4.18 6.01-5.83 9.17a84.21 84.21 0 0 0-4.27 9.75c-.1.26 0 .56.25.71.28.17.64.07.8-.2l.01-.02c3.54-5.94 7.61-11.74 12.42-16.27 2.38-2.25 5.13-4.04 8.07-5.87 1.48-.92 3.01-1.84 4.58-3.08.79-.61 1.6-1.33 2.37-2.3.76-.94 1.55-2.25 1.84-3.87.07-.4.1-.8.11-1.21-.01-.41-.03-.88-.11-1.27-.13-.82-.4-1.53-.69-2.15z" class="st6"/><path id="path42" d="m601.2 338 .02.09c-.02-.04-.04-.07-.05-.07-.05.01-.1.02-.14.03-.02.02-.04.05-.06.06l-.03.02c-4.69 3.26-9.1 6.96-12.98 10.97a62.449 62.449 0 0 0-5.32 6.38c-1.63 2.26-3.19 4.6-4.63 6.98-1.44 2.39-2.75 4.84-4.13 7.15l-.39.69c1.01-.43 2.04-.87 3.11-1.26 2.81-1.06 5.88-1.98 9.08-2.21 3.07-.24 6.22.09 9.29.97.77.23 1.53.5 2.31.85.39.18.78.38 1.19.66.2.13.42.31.65.53.12.13.24.26.38.48.06.09.15.28.2.42.03.09.06.23.08.35.02.11.03.25 0 .44-.04.34-.21.69-.46.96-.18.19-.48.37-.62.41-.09.03-.17.06-.26.09l-.07.02-.12.04-.5.14c-.33.1-.67.18-.99.3-.65.22-1.29.47-1.92.76-2.19.95-4.15 2.3-5.91 3.83 3.02-.51 6.2-.64 9.39-.07.81.15 1.61.34 2.41.57.87.26 1.73.62 2.48 1.04 1.52.83 2.79 1.87 3.91 2.98 1.79 1.83 3.25 3.84 4.36 6.04.29.26.35 1.28.62 1.55.01-.04.1-.59.13-.79l.15.68c3.5-26.7-11.18-52.08-11.18-52.08Z" class="st9"/><path id="path43" d="M588.97 371.16s-3.91.79-7.38 4.65c-4.6 5.11-3.38 8.02-3.38 8.02s6.98-6.71 8.91-7.68c2.02-1.02 11.4-4.99 11.4-4.99s-2.04-1.9-3.91-1.9-5.64 1.9-5.64 1.9z" class="st10"/><path id="path44" d="M580.23 386.03c6.25-1.07 10.08-1.2 16.46-.34 9.38 1.26 16.06 5.14 16.06 5.14s-1.49-2.46-5.18-6.81c-3.69-4.35-6.78-2.31-13.04-2.75-6.41-.45-9.49-1.74-11.83-.19-2.35 1.54-2.47 4.95-2.47 4.95z" class="st10"/><path id="path45" d="M565.61 375.35c.07.24.13.44.26.72.23.5.7 1.09 1.22 1.44.55.38 1.03.52 1.44.6.38.07.71.08.96.07.51-.02.86-.1 1.16-.17 1.15-.31 1.82-.65 2.56-.98.71-.33 1.37-.66 2.02-.99 1.29-.65 2.54-1.27 3.79-1.86 2.51-1.15 4.96-2.13 7.51-2.6 2.64-.5 5.36-1.02 7.95-.71.04 0 .07.01.1.02-.23.07-.46.13-.68.2-2.89.93-5.75 2.12-8.43 3.77-1.33.83-2.6 1.77-3.78 2.84-.6.52-1.16 1.09-1.7 1.68-.27.3-.54.59-.79.91l-.38.47-.09.12-.06.07c-.06.09-.12.18-.18.28-.06.09-.17.32-.24.49-.02.05-.11.29-.14.46-.04.22-.07.31-.07.63 0 .34.05.69.16 1.01.11.34.33.73.59 1.03.3.34.43.41.69.59a2.974 2.974 0 0 0 .99.41c.16.04.18.03.27.05.15.02.33.03.4.04.21.01.35 0 .46-.01.24-.02.39-.04.54-.06.28-.04.49-.09.7-.13l1.14-.25 2.07-.47c1.35-.3 2.68-.55 4-.76 2.64-.41 5.23-.66 7.74-.52.63.03 1.25.1 1.86.19.54.07 1.05.19 1.61.37 1.11.35 2.28.91 3.44 1.57 2.35 1.3 4.65 3.01 7.03 4.72l.02.02c.12.09.28.11.43.05.23-.09.34-.35.24-.58-1.17-2.83-2.89-5.34-5.1-7.59-1.12-1.11-2.38-2.14-3.91-2.98-.75-.41-1.61-.78-2.48-1.04-.8-.24-1.6-.42-2.41-.57-3.19-.57-6.38-.44-9.39.07 1.75-1.53 3.72-2.88 5.91-3.83.62-.29 1.27-.54 1.92-.76.32-.13.66-.2.99-.3l.5-.14.12-.04.07-.02c.09-.02.18-.05.26-.09.13-.04.44-.22.62-.41.25-.27.42-.61.46-.96.03-.19.02-.33 0-.44a2.61 2.61 0 0 0-.08-.35c-.05-.14-.14-.34-.2-.42-.14-.22-.26-.35-.38-.48-.23-.22-.44-.39-.65-.53-.41-.28-.8-.47-1.19-.66-.78-.35-1.54-.62-2.31-.85-3.07-.88-6.22-1.21-9.29-.97-3.2.23-6.26 1.14-9.08 2.21-1.07.4-2.1.83-3.11 1.26l.39-.69c1.38-2.31 2.7-4.75 4.13-7.15 1.44-2.39 3.01-4.72 4.63-6.98 1.64-2.27 3.38-4.35 5.32-6.38 3.87-4.01 8.29-7.71 12.98-10.97l.03-.02c.26-.18.37-.53.25-.84a.708.708 0 0 0-.91-.38 67.456 67.456 0 0 0-15.34 8.86 54.379 54.379 0 0 0-6.68 6.1c-2.06 2.18-3.96 4.47-5.78 6.85-1.82 2.38-3.56 4.84-4.87 7.64-.66 1.41-1.25 2.86-1.77 4.49-.25.84-.49 1.7-.59 2.87l-.02.48v.24c0 .1.01.3.03.45.04.19.07.38.12.59zm17.9 9.03c.01-.01.01-.02.02-.03 0 .02-.01.03-.02.03zm-14.14-12.5c-.03.01-.07.02-.09.02-.05.01-.06-.01.09-.02z" class="st6"/><path id="path46" d="M495.89 542.7s-13.77-8.71-12.72-8.47c6.95 1.58 81.56-1 122-11.35 21.79-5.57 39.87-15.72 47.02-20.82 9.64-6.88 5.13-14.43 5.13-14.43s17.21 9.89-2.2 21.79c-6.34 3.89 1.33 22.01-2.43 24.68-10.28 7.31-57.77 14.33-57.77 14.33l-26.35-13.82-42.64 1.14z" class="st10"/><path id="path47" d="M657.16 452.41s5.28 10.24 8.18 14.55c2.2 3.27 6.05 9.3 8.04 12.38 1.36 2.11 1.66 4.95-1.02 6.51-4.72 2.74-6.36 1.51-6.36 1.51s11.84 4.28 13.9 1.42c2.06-2.86 7.12-4.15-2.07-12.77s-20.67-23.6-20.67-23.6z" class="st10"/><g id="g50"><path id="path49" fill="#f0ebf6" d="m664.43 453.11-.12-.03c.02 0 .06.01.12.03z"/><path id="path50" d="M665.7 422.79c1.48 1.09-13.48-16.17-14.22-17.84-4.06-9.18-12.21-28.46-14.22-39.99-2.3-13.15-13.63-25.34-13.63-25.34s9.29 20.36 10.06 30.19c.74 9.55-2.3 23.38.77 27.54 3.27 4.43 6.88 8.24 16.62 18.93 6.74 7.4 9.99 12.07 13.24 16.34 3.23 4.24 8.19 12.09 8.28 16.68.08 3.94-7.29 4.19-9.17 3.78-3.61-.77-3.84-.65-3.94-.67l6.13 3.44s9.32 5.11 12.89-4.21c2.77-7.29-5.68-22.04-12.81-28.85z" class="st10"/></g><path id="path51" d="M541 361.13s-1.05-11.5 2.47-19.7c3.45-8.04 8-12.85 8-12.85l10.47 5.49s-4.85 4-9.7 10c-4.86 5.99-11.24 17.06-11.24 17.06z" class="st10"/><path id="path52" d="M638.02 561.81s-13.62-14.14-27.03-8.55c-8.03 3.35-12.46 13.87-9.99 27.32 1.96 10.67 13.78 21.57 28.85 21.57 15.02 0 20.93-6.6 20.93-6.6s-8.8 17.46-35.36 10.57c-26.55-6.89-31.02-25.4-29.11-35.62 1.91-10.22 8-21.32 16.64-23.49 8.64-2.17 25.04-.61 30.47 5.69 1.92 2.21 4.6 9.11 4.6 9.11z" class="st10"/><path id="path53" d="M452.14 353.66c-3.31-.61-8.46-3.15-18.12-4-5.13-.45-17.98-.15-25.98 1.04s-12.77 1.53-12.77 1.53 5.45-8.68 21.28-10.55c9.58-1.13 21.33-2.22 33.89 1.02 7.91 2.04 12.29 4.26 15.23 2.81 6.13-3.02 2.63 4.37-1.91 7.32-3.43 2.23-5.74 1.92-11.62.83z" class="st10"/><path id="path54" d="M396.16 485.85s-1.32 7.74 2.22 8.19c6.36.81 17-3.7 17-3.7l-6.91 6.88s-7.12 6.07-12.41 3.85-4.98-8.45-3.58-11.62c1.4-3.17 3.68-3.6 3.68-3.6z" class="st10"/><path id="path55" d="M410.83 502.62s.25 7.03.98 11.23c.85 4.94 3.34 6.9 6.47 7.91 2.05.66 7.06 1.8 16.94-1.86 1.67-.62-.76 2.61-8.2 6.98-4.41 2.59-14.52 2.72-17.76 0-3.23-2.72-4.92-13.28-2.12-18.72 2.8-5.46 3.69-5.54 3.69-5.54z" class="st10"/><path id="path56" d="M432.73 525.08s-.35 7.94 2.05 10.91c3.23 4 6.98 4.19 6.98 4.19l-8.34 5.76-3.83-6.72s-2.08-3.24-.34-7.47c1.62-3.94 3.48-6.67 3.48-6.67z" class="st10"/><path id="path57" d="M474.37 533.03s7.7 6.09 7.31 17.84c-.43 12.68-7.91 21.7-15.74 25.7-9.1 4.65-16.68 4.68-22.64 4.26-5.21-.37-12.43-5.32-12.43-5.32l12.43 14.69s20.28 3.4 26.48-2.04c6.2-5.45 20.33-19.43 21.77-31.32 1.48-12.13-1.97-18.85-7.25-21.57-5.27-2.74-9.93-2.24-9.93-2.24z" class="st10"/><path id="path58" d="M397.09 562.73s19.04 6.86 31.47 16.05c12.82 9.48 25.95 23.13 30.14 34.89 6.21 17.45 1.96 28.17-2.47 35.74-4.65 7.96-15.83 15.06-30.55 16.26-6.26.51-20.66-2.1-18.04-11.4 2.3-8.17-.31-16.55-2.86-19.61-2.55-3.06-4.83 5.91-4.83 5.91s4.21 1.28 2.5 4.43c-4.79 8.87-8.85 17.53-2.04 24.51s21.11 11.4 30.47 7.32c9.36-4.09 24.51-6.62 34.38-14.64 11.83-9.61 14.28-26.21 11.05-43.91-3.22-17.7-14.3-23.55-14.3-23.55l-25.11-12.1s-14.19-12.91-20.15-15.24c-5.96-2.34-19.66-4.66-19.66-4.66z" class="st10"/><path id="path59" d="M386.66 622.22s5.64 9.65 2.86 12.59c-2.64 2.79-13.56.83-21.53.15-13.87-1.19-31.06-5.7-45.45-10.81-6.95-2.47-20.54-9.98-26.81-16.09-6.3-6.13-13.32-19.33-13.32-19.33s-2.87 11.33-1.67 16.95c1.2 5.62 11.24 23.88 26.56 29.13 15.32 5.25 33.19 12.4 58.89 12.4 25.7 0 27.65 3.54 30.36 0 2.71-3.54 6.02-13.62 0-18.89-6.02-5.27-9.89-6.1-9.89-6.1z" class="st10"/><path id="path60" d="M294.62 536.23s1.8-1.39 7.83-3.57c5.99-2.17 14.55-2.47 14.55-2.47s-9.02 6.89-12.6 9.28c-3.57 2.38-9.02 10.47-10.89 7.87-1.87-2.6 1.11-11.11 1.11-11.11z" class="st10"/><path id="path61" d="M330.74 491.52s.3-.48 5.58-.99 21.11-1.45 21.11-1.45-7.49-3.54-14.76-4.68c-7.32-1.15-12.2-1.27-12.2-1.27z" class="st10"/><path id="path62" d="M393.19 504.58s-1.42 3.1-2.19 11.4c-.49 5.28-.16 10.3 1.32 15.01 1.98 6.28 5.38 9.72 9.87 11.89 4.94 2.38 8.17 1.32 11.91 2.72 2.46.92 2.81 5.53 1.45 7.57-1.75 2.63-6.21 3.57-10.18 4.68-4.38 1.23-11.44 2.21-11.44 2.21s7.66.22 13.28 1.63c5.62 1.42 11.91 3.64 16.68 3.3 4.77-.34 6.98-11.19 6.98-11.19l-4.26-8.22v-10.34l2.33-7.19-13.9 2.92-9.02-.28-3.57-12 8.13-20.26z" class="st10"/><path id="path63" d="M525.4 545.22s16.12 10.71 31.1 25.86c14.98 15.15 20.6 27.06 27.91 46.83 6.01 16.24 7.83 35.4 7.83 35.4l12.15-6.15s-6.19-27.57-10.1-36.09c-3.91-8.51-16.34-37.06-31.32-50.53-14.98-13.47-40.11-31.37-40.11-31.37l-9.96 8.34z" class="st12"/><path id="path64" d="M553.43 541.3s13.46 10.05 25.65 23.77c1.52 1.72 3.48 5.72 3.51 7.86.18 13.7 2.41 34.42 12.33 40.75 16.06 10.24 14.1 21.56 14.1 21.56l7.36-2.96s-1.69-30.82-9.51-29.22c-20.27 4.13-12.83-29.05-21.49-46.46-5.73-11.52-34.94-26.6-33.2-28.99l-9.22 6.41z" class="st12"/><path id="polygon64" d="m594.28 549.42-20.54-8.59 13.49 16.85z" class="st12"/><path id="path65" d="M572.49 627.98c-3.91-8.51-16.34-37.06-31.32-50.53-14.98-13.47-40.11-31.37-40.11-31.37l-1.4 1.17c-.61-.76-1.05-1.17-1.05-1.17l-1.5 3.3-3.95 3.31 1.74 1.57-1.06 2.34-15.83 25.59-7.49 7.83 5.78 4.7s4.02-1.78 6.93-3.48c.2-.12.42-.25.65-.39 3.73 2.8 12.36 9.19 16.11 11.29 3.87 2.17 13.66 6.95 20.06 9.5 1.02.41 2.03.71 3 .94 3.75 5.26 7.17 10.54 10.16 15.98l-22.52-7.99-34.21-20.5-5.96 6.98s13.66 8.86 18.52 11.57c3.87 2.17 22.36 11.67 33.39 15.49 5.42 1.88 11.1 3.3 15.61 4.29 1.45 3.36 2.72 6.8 3.8 10.35.49 1.62.94 3.22 1.36 4.79l-31.66-5.47-33.87-21.64-5.96 6.98s13.67 9.14 18.38 12.11c9.76 6.15 17.87 9.39 32.85 13.79 8.18 2.4 17.39 2.62 22.24 2.54 1.92 8.96 2.61 15.51 2.61 15.51l10.84-3.74-8.8-36.43-20.09-30.47-31.22-31.22c2.63-3.93 4.56-7.19 5.05-13.37 0 0 16.12 10.71 31.1 25.86 14.98 15.15 20.6 27.06 27.91 46.83 6.01 16.24 7.83 35.4 7.83 35.4l12.15-6.15c.03-.01-6.16-27.58-10.07-36.09zM501.06 586c.71.63 3.17 3.29 6.38 6.98l-15.68-8.45c1.14-1.17 2.27-2.48 3.34-3.94 1.43 1.31 3.49 3.2 5.96 5.41z" class="st12"/><path id="path66" d="M553.54 679.12s7.01 2.46 26.38-1.98c19.37-4.44 35.6-16.17 43.7-27.83 8.1-11.66 10.82-17.42 10.82-17.42s14.89-3.28 24.85-8.64c21.47-11.54 27.24-26.59 27.23-41.82 0-7.87-8.65-19.25-17.92-18.57-6.17.45-2.26 30.66-13.06 36.85-10.8 6.19-20.09 8.81-28.26 9.08-8.17.27-4.95-1.34-11.5 13.93s-7.6 29.77-24.96 39.1c-17.36 9.33-37.28 17.3-37.28 17.3z" class="st13"/><path id="path67" d="M352.95 662.22s23.11 1.7 25.5 1.84c2.39.14 3.74 6.15 8.85 13.28 4.21 5.87 19.51 16.34 35.4 16.68 16 .34 28.94-1.02 44.94-14.22 10.38-8.57 13.93-14.03 15.48-14.37 1.55-.34 5.94 4.79 16.49 8.51 11.13 3.93 18.2 4.22 18.2 4.22l2.6-5.9-18.27-7.17-22.24-18.04-15.66 18.38s-13.28 14.11-24.17 14.37c-10.89.26-27.85-1.58-36.57-7.98-8.71-6.4-5.37-25.91-6.94-24.61-1.57 1.3-62.02-1.53-62.02-1.53z" class="st13"/><path id="path68" d="M731.97 489.18c-2.49-58.08-26.29-112.32-67.65-153.68-43.37-43.37-100.91-67.43-162.18-67.87-61.8-.43-121.47 23.95-165.24 67.58-43.95 43.8-68.16 102.11-68.16 164.14 0 20.98 3.8 41.49 7.35 56.1-1.28 2.21-2.36 4.51-3.3 6.83a61.112 61.112 0 0 0-3.75 14.34c-.66 4.9-.74 9.88-.25 14.81.53 4.93 1.62 9.78 3.19 14.46.89 2.31 1.64 4.57 2.94 7l.89 1.78c.33.57.69 1.11 1.04 1.66l1.06 1.65.53.82.59.76 2.4 3.02 2.6 2.76c.43.47.88.9 1.34 1.31l1.38 1.25 1.39 1.25 1.44 1.14c1.9 1.57 3.89 2.94 5.89 4.31 2.03 1.27 4.06 2.56 6.15 3.68 4.16 2.3 8.4 4.32 12.72 6.09 2.58 1.06 5.18 2.03 7.81 2.94 44.23 53.26 109 83.75 178.3 83.75 59.5 0 115.57-22.27 158.7-62.87 49.07-46.16 75.71-111.7 72.82-179.01zM331.8 635.01c-3.99-1.29-7.97-2.7-11.83-4.28-3.86-1.58-7.6-3.37-11.18-5.35-1.81-.96-3.51-2.06-5.23-3.12-1.64-1.15-3.32-2.24-4.84-3.47l-1.17-.9-1.08-.96-1.09-.96c-.37-.31-.72-.64-1.04-.99l-1.98-2.03-1.75-2.15c-2.26-2.96-3.8-5.84-5.24-9.68-1.3-3.68-2.29-7.45-2.84-11.3-.52-3.85-.56-7.77-.2-11.64.36-3.87 1.18-7.72 2.46-11.36 1.27-3.65 3.06-7.06 5.03-10.07 2.14-3.09 4.75-6.15 7.64-9.17 2.87-3.06 6.04-6.04 9.25-9.28l.06-.06a1.131 1.131 0 0 0-.91-1.92c-3.66.34-7.11 1.32-10.43 2.7.69-3.08 1.57-6.13 2.67-9.09.59-1.67 1.31-3.26 2.02-4.88.8-1.56 1.53-3.17 2.47-4.66.46-.75.86-1.54 1.37-2.26l1.49-2.18c.47-.75 1.08-1.38 1.62-2.08.57-.67 1.08-1.4 1.71-2.02 2.36-2.6 5.08-4.94 7.84-7.23 2.78-2.28 5.76-4.37 8.95-6.18a71.976 71.976 0 0 1 20.9-7.89s3.31-.76 5.19-1.03c1.21-.17-2.29-.63-2.71-.68-.45-.06-1.66-.18-2.63-.25v-.02l-.91-.04c-1.97-.09-3.04-.04-5.02.08-1.41.07-2.83.22-4.24.41.58-4.87 2.24-13.39 6.98-21.44 6.75-11.44 19.82-21.81 29.25-26.15 10.22-4.7 21.24-5.52 25.57-5.65l.42.4a83.882 83.882 0 0 0-3.31 7.24c-1.53 3.89-2.89 7.91-3.63 12.28-.71 4.08-1.13 7.96-1.62 11.83-.47 3.89-.98 7.55-1.64 11.41-.62 3.87-1.35 7.79-1.59 12.14a30.5 30.5 0 0 0 .02 3.44c.1 1.21.25 2.49.74 3.92.24.71.59 1.47 1.06 2.21l.39.56c.13.17.24.29.36.44.23.28.51.55.78.82 1.11 1.06 2.56 1.95 4.1 2.38 1.54.44 3.05.45 4.38.28 1.34-.2 2.53-.58 3.62-1.04 2.15-.93 3.94-2.16 5.56-3.48a52.066 52.066 0 0 0-2.87 5.38c-.31.72-.65 1.43-.93 2.18l-.84 2.23c-.55 1.47-1.02 3.03-1.4 4.69-.7 3.28-.99 7.12.31 11.07.15.5.35 1 .57 1.49.21.47.59 1.23.84 1.68.07.13.14.26.24.41l.55.8c.4.51.83 1 1.3 1.42 1.88 1.75 4.26 2.62 6.4 2.83 2.17.2 4.17-.14 5.94-.7.89-.28 1.73-.6 2.53-.95.8-.37 1.58-.71 2.37-1.05 1.47-.71 2.8-1.56 4.03-2.48-.72 1.43-1.32 2.95-1.77 4.54-.91 3.22-1.24 6.67-1.01 10.06.2 3.4.89 6.75 1.89 9.96l.09.28c.12.37.29.73.48 1.09-.69 2.03-1.22 4.06-1.59 6.09-1.54-.3-3.08-.57-4.62-.83-3.25-.54-6.36-1.08-9.91-1.35-3.37-.18-6.59-.04-9.8.1-3.21.18-6.38.42-9.56.72a.8.8 0 0 0-.73.72c-.05.45.28.85.72.89h.01c3.12.33 6.24.81 9.31 1.4 3.07.57 6.12 1.31 8.95 2.22 2.65.88 5.52 2.33 8.28 3.67 1.38.7 2.73 1.45 4.07 2.2.68.38 1.35.79 2.01 1.19.35.52.82 1.2 1.17 1.73.95 5.2 3.19 9.96 6.8 13.85 5.04 5.42 12.29 8.57 20.42 8.85a36.771 36.771 0 0 0 5.04-.18c5.11 4.62 8.71 11.04 10.74 18.09 2.14 7.29 2.68 15.23 1.79 22.79-.22 1.9-.59 3.75-1.01 5.49-.46 1.75-1.03 3.45-1.73 5.08-.74 1.62-1.51 3.21-2.47 4.7-.96 1.49-2.02 2.92-3.21 4.25-4.74 5.37-11.41 9.2-18.65 11.64a58.178 58.178 0 0 1-11.3 2.53c-1.93.24-3.87.39-5.81.44-1.92.06-3.74 0-5.56-.21-3.61-.39-7.06-1.31-9.85-2.89-2.8-1.58-4.85-3.73-5.99-6.43-.28-.68-.5-1.39-.69-2.15-.2-.84-.33-1.64-.4-2.39-.13-1.53-.03-2.7.43-4.09.23-.71.58-1.51 1-2.5.42-.99.95-2.16 1.38-3.51.42-1.35.73-2.85.85-4.32.1-1.51.06-2.81-.22-4.49-.27-1.56-.79-2.91-1.36-4.16-.57-1.24-1.25-2.36-1.98-3.39-1.44-2.07-3.1-3.82-4.85-5.39-3.51-3.12-7.45-5.51-11.69-7.12a.97.97 0 0 0-.95.15c-.42.33-.49.95-.16 1.37l.01.01c2.73 3.44 5.27 6.8 7.36 10.23 1.04 1.71 1.95 3.43 2.64 5.1.67 1.66 1.11 3.32 1.09 4.5 0 .46-.1 1.33-.24 1.95-.06.29-.14.57-.23.85l-.24-.03h-.09c-4.28-.24-8.69-.51-13.03-.82-4.35-.29-8.7-.64-13.03-1.05-8.65-.76-17.29-1.78-25.61-3.22-4.21-.75-8.26-1.67-12.02-2.81zm207.53-269.17c.41.24.94.11 1.18-.31l.02-.03a124.25 124.25 0 0 1 12.53-17.56c2.3-2.74 4.73-5.34 7.29-7.77 2.55-2.44 5.21-4.72 8.02-6.73 2.8-2.01 5.69-3.81 8.7-5.23 3.16-1.46 6.39-2.86 9.64-4 3.26-1.14 6.55-2.1 9.82-2.78 1.63-.34 3.27-.59 4.85-.79.8-.1 1.58-.2 2.33-.25.13-.02.26-.02.39-.03.18.12.35.23.53.36.74.51 1.47 1.07 2.2 1.63 1.47 1.12 2.87 2.37 4.27 3.61 2.77 2.54 5.43 5.25 7.94 8.1 2.51 2.85 4.89 5.86 7.15 8.92 2.1 2.88 3.9 6.07 5.48 9.4 3.12 6.7 5.3 14.01 6.69 21.47.7 3.73 1.2 7.51 1.49 11.3.15 1.89.25 3.78.29 5.67l.01.71.01.35.01.28c.01.26.04.53.08.79l.07.39.06.23.14.45c.38 1.03.68 1.44.92 1.83.13.2.25.37.35.51l.32.43c.81 1.05 1.5 1.81 2.2 2.6 2.76 3.05 5.38 5.88 7.93 8.86 2.55 2.95 5 5.98 7.36 9.07 4.7 6.18 9.12 12.66 12.73 19.33 1.78 3.32 3.38 6.76 4.27 9.98.44 1.57.64 3.15.52 4.02-.02.21-.06.37-.09.46a.23.23 0 0 0-.03.09l-.2.36c-.29.47-.59.83-.89 1.1-.29.29-.6.51-1.01.76-.41.25-.96.47-1.63.65-1.34.33-3.08.33-4.87.08-3.61-.49-7.46-1.74-11.19-3.28a.443.443 0 0 0-.47.01c-.21.13-.28.41-.14.62l.01.01c3.54 5.68 7.73 10.86 12.15 15.89 2.21 2.51 4.54 4.96 6.9 7.33 1.92 2.09 3.43 4.34 3.88 6.13.25.89.29 1.55.34 2.11.05.57.02 1.15-.31 1.83-.09.16-.18.34-.3.49-.12.17-.2.28-.33.42-.26.27-.63.55-1.11.78-.95.48-2.25.82-3.65.99-2.83.34-6.01.14-9.18-.26-3.18-.41-6.41-1.04-9.61-1.84a.28.28 0 0 0-.36.08c-.09.13-.06.3.06.4l.04.03c.78.57 1.56 1.14 2.32 1.73.38.29.76.59 1.1.89.33.27.65.63.98.94 1.29 1.3 2.37 2.76 3.09 4.28.36.76.64 1.53.81 2.3.08.37.15.78.18 1.18.03.35.03.71.02 1.08-.09 1.48-.56 2.99-1.24 4.37-.69 1.38-1.62 2.63-2.7 3.7-.53.54-1.13 1.02-1.72 1.47-.63.46-1.28.89-1.98 1.29-1.39.8-2.93 1.47-4.61 2.15l-2.65 1.06c-.87.37-1.75.85-2.67 1.37l-.16.08-.27.16c-.18.1-.34.21-.52.33-.34.24-.7.52-1.09.9-.39.38-.82.87-1.23 1.6-.41.73-.79 1.79-.8 3-.02 1.21.37 2.35.81 3.11.24.42.42.67.7 1.01.12.14.31.36.38.42l.12.12.58.61c.81.88 1.63 1.87 2.41 2.86 1.55 2.01 3.01 4.14 4.32 6.36 2.62 4.43 4.73 9.16 6.22 14.07a66.46 66.46 0 0 1 1.78 7.47c.42 2.52.69 5.07.83 7.63.2 5.1-.16 10.28-1.15 15.31-.96 4.9-2.68 9.5-5.31 13.32-2.61 3.84-6.16 6.84-10.37 8.93-4.2 2.1-9.05 3.26-14.07 3.79-5.06.49-10.13.4-14.84-.6-4.71-.98-9.04-2.9-12.58-5.73-3.52-2.84-6.25-6.6-7.97-10.93a31.7 31.7 0 0 1-1.89-6.82c-.38-2.35-.5-4.85-.58-7.18-.24-4.72.45-9.44 2.4-13.62 1.92-4.18 5.09-7.79 9.18-10.09 2.03-1.17 4.25-1.95 6.75-2.53 2.44-.57 4.91-.83 7.35-.69 2.44.14 4.85.71 7.12 1.71 2.26 1.01 4.39 2.45 6.3 4.21 1.91 1.76 3.59 3.84 5.04 6.11.86 1.34 1.62 2.76 2.34 4.21.19.38.36.77.52 1.16l.39.94.18.47.09.24.04.12.02.06c0-.04.03.18 0-.13 0 .43.35.79.79.79.44 0 .79-.35.79-.79-.04-.36-.03-.17-.04-.26l-.01-.07-.03-.14-.05-.27-.12-.53-.26-1.05c-.18-.69-.38-1.38-.61-2.06-.44-1.37-.97-2.71-1.56-4.03-1.2-2.63-2.7-5.17-4.59-7.49-1.87-2.32-4.16-4.4-6.81-6.01-2.64-1.62-5.63-2.75-8.71-3.34-3.08-.59-6.23-.66-9.29-.36-1.54.16-3.01.37-4.61.73-1.57.36-3.1.87-4.6 1.49-.96.4-1.89.86-2.8 1.36-14.64-12.83-33.31-19.89-52.85-19.89-16.59 0-32.73 5.16-46.19 14.63-1.19-2.74-2.8-5.28-4.88-7.52-5.04-5.42-12.29-8.57-20.42-8.85-11.27-.39-23.16 4.47-32.64 13.35a52.516 52.516 0 0 0-6.58 7.44h-.01a22.518 22.518 0 0 1-1.92-7.83c-.14-2.58.24-5.26 1.15-7.87.77-2.18 1.92-4.32 3.41-6.23.3-.36.61-.72.89-1.1v-.01c.07-.08.08-.2.03-.29a.262.262 0 0 0-.36-.1c-.04.02-.07.04-.1.06-2.54 1.5-5.1 2.93-7.73 4.1-2.63 1.2-5.38 2.11-7.87 2.7-2.47.61-5.17-.09-6.55-1-.72-.43-1.13-.84-1.42-1.1-.09-.06-.13-.14-.22-.19-.03-.03-.06-.07-.1-.1-.04-.03-.12-.15-.18-.23-.13-.17-.27-.33-.37-.53-.12-.18-.24-.37-.33-.57-.83-1.59-1.25-3.84-1.23-6.39-.02-1.28.1-2.61.23-4.01.15-1.39.37-2.73.61-4.12 1.06-5.53 2.73-11.17 4.66-16.84l.02-.06c.04-.11.01-.23-.07-.31a.314.314 0 0 0-.44-.02c-3.49 1.96-6.89 3.87-10.26 5.35-1.68.72-3.36 1.34-4.9 1.64-1.54.33-2.89.23-3.51-.15-.58-.29-1.2-1.06-1.24-1.64-.21-.91-.24-2.59-.05-4.27.37-3.44 1.25-7.2 2.09-11 1.82-7.73 2.94-15.77 4.46-23 .69-3.33 1.97-6.72 3.44-10.03.74-1.65 1.55-3.29 2.41-4.89.43-.79.88-1.59 1.32-2.32l.16-.26c-.05.09.19-.31.33-.57.31-.6.57-1.25.74-1.92.34-1.34.37-2.76.05-4.11-.3-1.35-.95-2.64-1.84-3.71l-.35-.39-.18-.19-.29-.3-.55-.57-2.1-2.09c-.67-.67-1.32-1.32-1.9-1.95-.3-.32-.56-.61-.82-.91l-.81-.99c-2.15-2.64-3.91-5.56-5.32-8.69-1.42-3.11-2.45-6.44-3.21-9.88-.76-3.44-1.23-7.01-1.44-10.66-.14-1.84-.12-3.6-.15-5.4.06-1.81.06-3.62.22-5.45.24-3.66.69-7.35 1.31-11.03.59-3.69 1.32-7.38 2.18-11.05.44-1.83.87-3.67 1.35-5.48.25-.96.52-1.95.8-2.91.75-.32 1.52-.64 2.29-.94a100.752 100.752 0 0 1 15.12-4.64c3.42-.75 6.87-1.3 10.31-1.61 1.72-.15 3.44-.23 5.15-.25 1.69 0 3.45.04 5.17.17 6.9.48 13.8 1.92 20.12 4.47l.75.3c.38.15.76.28 1.15.38.78.21 1.59.36 2.4.4 1.63.11 3.27-.15 4.81-.72 1.53-.58 2.95-1.49 4.1-2.66l.89-.88c.23-.25.56-.51.85-.77 2.4-2.08 5.38-4.01 8.41-5.71 6.14-3.4 12.8-6.08 19.66-8.06 1.72-.46 3.44-.97 5.19-1.34.87-.2 1.74-.41 2.62-.59l2.64-.49c1.75-.37 3.54-.55 5.31-.83 1.75-.25 3.47-.38 5.25-.48 7.08-.35 14.27.15 21.19 1.62 5.59 1.18 11.01 3.05 15.98 5.7-.24.29-.49.58-.73.88a99.757 99.757 0 0 0-6.58 9.12c-2.01 3.14-3.85 6.37-5.55 9.66-1.7 3.29-3.26 6.62-4.6 10.1-.16.39-.01.84.36 1.05zm111.74 26.02v.07-.07zm-.05 131.03-.03.02-.21.11zm-216.06 44.85c.18-8.02 4.42-17.14 12.11-24.34 7-6.55 15.86-10.4 23.88-10.4.29 0 .58 0 .86.01 3.67.13 8.86 1.16 12.75 5.34 8.25 8.88 4.82 25.59-7.63 37.24-7.25 6.79-16.52 10.66-24.74 10.38-3.67-.13-8.86-1.16-12.75-5.34-2.76-2.97-4.2-6.81-4.45-11.05.09-.62.07-1.24-.03-1.84zm42.05 21.72c2.6-1.69 5.09-3.63 7.44-5.83.01-.01.02-.01.02-.02 12.01 10.16 22.07 16.28 40.74 22.3.82 1 1.63 2 2.43 3.02 4.28 5.46 7.86 11.11 10.88 16.72-6.86-1.81-16.46-5.04-29.13-10.87-12.32-5.66-23.17-13.73-33.07-21.67.19-1.23.42-2.44.69-3.65zm12.24-10.97c.8-.98 1.56-1.97 2.27-2.99 8.63 5.81 16.42 12.18 23.49 19.22-10.21-4.32-17.41-9.18-25.76-16.23zm17.21 42.65c13.68 6.28 26.12 10.63 36.07 12.62a141.67 141.67 0 0 1 6.19 16.44c-8.83-.08-18.97-1.01-32.26-5.21-12.06-3.81-22.94-10.16-33.26-19.44l-.1.11c-.44-4.96-1.41-9.87-2.92-14.67-.97-3.03-2.21-5.99-3.72-8.85 9.02 7.03 18.88 13.89 30 19zm-22.65 14.1c9.52 7.56 19.56 12.97 30.53 16.43 14.93 4.71 26.1 5.54 35.84 5.54h.49c1.52 6 2.39 10.98 2.86 14.35-3.22.46-6.5.69-9.85.69-25.55 0-48.6-13.98-60.45-36.55.33-.25.27-.2.58-.46zm49.34-30.63c-10.68-13.62-23.16-25.16-38-35.11 2.98-5.84 4.6-11.97 4.77-17.84.49-.41.99-.82 1.5-1.22 12.04 7.65 34.24 25.73 48.78 44.28 19.06 24.32 24.7 58.15 26.09 69.36a67.91 67.91 0 0 1-15.86 6.13c-1.71-11.74-7.69-40.6-27.28-65.6zm22.55-14.21c-14.12-18.01-35.24-35.62-48.12-44.29 5.98-3.73 12.5-6.51 19.32-8.24 10.98 7.16 30.8 21.78 45.77 42.32 18.39 25.24 23.47 58.47 24.47 66.46a67.72 67.72 0 0 1-14.33 13.44c-2.05-14.02-8.52-45.97-27.11-69.69zm26.89-31.36c-2.04 4.54-3.15 9.47-3.4 14.34-.05 1.38 0 2.72.1 4.06-.32-.46-.64-.92-.98-1.38-13.14-18.03-29.8-31.65-41.55-39.94 2.29-.23 4.6-.37 6.92-.37 5.54 0 10.99.67 16.26 1.96 5.09 4.12 14.08 11.82 22.65 21.33zm-2.67-12.88a67 67 0 0 1 7.31 5.31c-.33.4-.65.81-.96 1.23-2.13-2.31-4.27-4.5-6.35-6.54zm15.01 61.85c4.81 3.67 10.41 6.07 16.06 7.32-1.36 8.22-4.13 15.89-8.07 22.77-1.33-7.61-3.74-18.42-7.99-30.09zM468.45 716.75c-47.88-6.98-91.94-29.5-125.8-64.52 1.85.28 3.69.52 5.54.78 2.26.23 4.53.5 6.78.68 4.51.4 9 .7 13.49.93 7.67.34 15.26.47 22.93.35-.13 1.18-.16 2.36-.1 3.48.07 1.39.24 2.73.48 4 .26 1.34.62 2.71 1.11 4.04.99 2.66 2.46 5.19 4.31 7.33 1.84 2.17 4.02 3.94 6.31 5.37 4.62 2.85 9.62 4.32 14.54 5.03 2.45.34 4.94.48 7.33.46 2.36 0 4.72-.12 7.07-.36 4.7-.46 9.36-1.37 13.93-2.77 2.28-.71 4.54-1.52 6.76-2.49 2.21-.98 4.38-2.09 6.48-3.34 2.1-1.27 4.13-2.68 6.07-4.23 1.93-1.57 3.75-3.29 5.45-5.15 3.38-3.73 6.19-8.05 8.17-12.71.16-.38.3-.76.45-1.14a79.632 79.632 0 0 0 33.55 25.82c-1.01 1.89-2.39 3.18-5.22 4.47-2.11.97-4.42.8-8.34.42-3.83-.37-8.58-.82-14.04.47-9.78 2.32-20.18 9.16-20.03 21.39.04 4.26 1.01 8.19 2.78 11.69zm32.01 2.33c-4.25 0-8.48-.12-12.68-.36-8.66-3.44-10.08-10.06-10.13-13.78-.08-6.48 8.24-8.96 10.8-9.57 3.52-.84 6.73-.53 10.12-.2 4.38.42 9.34.9 14.48-1.46 6.95-3.18 9.9-7.42 11.74-11.68 6.1 1.46 12.43 2.23 18.9 2.23 20.15 0 39.41-7.5 54.25-21.11a80.035 80.035 0 0 0 25-46.55c2.52 0 5.03-.14 7.5-.4 6.03-.69 12.2-2.15 17.95-5.09 5.75-2.89 10.94-7.35 14.53-12.78 3.64-5.41 5.77-11.51 6.9-17.53 1.11-5.91 1.47-11.93 1.18-17.94-.19-3-.53-6-1.06-8.96a77.06 77.06 0 0 0-2.16-8.75 75.04 75.04 0 0 0-7.4-16.35 72.998 72.998 0 0 0-5.13-7.41c-.18-.22-.36-.43-.54-.65l1.18-.73c1.72-1.09 3.53-2.31 5.24-3.77.86-.73 1.68-1.52 2.46-2.36.78-.88 1.52-1.79 2.15-2.77 1.3-1.94 2.23-4.11 2.77-6.35.55-2.25.66-4.61.22-6.96-.13-.59-.27-1.17-.49-1.75-.19-.53-.41-1.04-.67-1.57-.45-.88-.98-1.68-1.57-2.42.86.36 1.74.71 2.64 1.02 1.66.58 3.4 1.07 5.26 1.37 1.86.29 3.86.45 6.08.08 1.1-.18 2.26-.51 3.42-1.06.57-.27 1.17-.61 1.68-.97.52-.34 1.01-.75 1.49-1.18 1.9-1.71 3.37-4.21 3.84-6.89.5-2.69-.03-5.36-1.01-7.49-.98-2.16-2.32-3.89-3.75-5.35-1.43-1.46-2.99-2.62-4.57-3.62a212.4 212.4 0 0 1-8.08-5.33c-.29-.2-.57-.41-.86-.61.36.07.71.16 1.09.21 1.33.18 2.79.16 4.29-.17s3-1.04 4.26-2c1.27-.97 2.28-2.16 3.06-3.37.2-.31.36-.59.56-.94.23-.42.42-.85.59-1.27.32-.85.51-1.67.63-2.44.42-3.11-.08-5.56-.61-7.84-1.17-4.52-2.95-8.39-4.85-12.15-3.86-7.47-8.36-14.33-13.2-20.97-2.44-3.31-4.97-6.54-7.6-9.68-2.6-3.14-5.36-6.23-7.92-9.15-.49-.57-.99-1.16-1.38-1.65-.01-2.08-.09-4.15-.22-6.21-.27-4.19-.77-8.36-1.49-12.49-1.44-8.27-3.73-16.44-7.26-24.3-1.79-3.92-3.88-7.75-6.44-11.37-2.45-3.41-4.99-6.7-7.72-9.89a117.32 117.32 0 0 0-8.73-9.13c-1.56-1.44-3.14-2.86-4.8-4.23-.83-.69-1.67-1.37-2.55-2.04-.43-.34-.89-.67-1.34-1-.49-.35-.88-.63-1.55-1.06l-.07-.04c-.85-.53-1.84-.83-2.91-.84l-.62-.01-.48.01c-.29.01-.6.02-.87.04-.56.04-1.1.09-1.63.15-1.06.14-2.08.29-3.08.52-2.01.41-3.92 1-5.81 1.61-3.76 1.25-7.34 2.76-10.8 4.44-3.47 1.68-6.75 3.58-10.01 5.57a60.231 60.231 0 0 0-9.27 7.17c-.74.69-1.46 1.4-2.17 2.12-5.95-3.61-12.48-6.1-19.13-7.71-7.61-1.83-15.39-2.6-23.19-2.43-1.95.05-3.94.15-5.89.37-1.92.24-3.85.39-5.75.73l-2.87.45c-.95.17-1.9.37-2.85.56-1.91.35-3.78.84-5.67 1.29-7.51 1.95-14.84 4.64-21.85 8.27-3.5 1.86-6.9 3.86-10.22 6.57-.42.35-.83.66-1.25 1.07l-1.12 1.06c-.17.15-.36.25-.57.32-.22.06-.45.09-.68.05-.12-.01-.23-.04-.34-.08a1.22 1.22 0 0 1-.17-.07l-.54-.24c-7.42-3.23-15.25-5.08-23.17-5.86-1.98-.2-3.96-.31-5.99-.36-2.01-.03-4.02.01-6.02.12-3.99.24-7.93.76-11.8 1.5-3.87.74-7.69 1.7-11.44 2.84-1.88.57-3.74 1.19-5.59 1.86-.93.34-1.85.69-2.78 1.05-.95.38-1.8.73-2.88 1.21a5.853 5.853 0 0 0-3.06 3.4l-.03.08c-.71 2.07-1.3 3.93-1.88 5.9-.57 1.94-1.12 3.89-1.61 5.86-.98 3.93-1.83 7.89-2.52 11.91-.68 4.02-1.19 8.09-1.47 12.23-.17 2.06-.21 4.16-.25 6.25.05 2.11.07 4.26.25 6.31.3 4.15.89 8.35 1.86 12.52.95 4.18 2.37 8.32 4.29 12.27.94 1.94 2 3.84 3.17 5.66-6 .85-13.54 2.56-20.89 5.93-10.79 4.96-26.21 16.76-34.58 30.96-7.57 12.84-8.74 26.28-8.93 30.34-.38.13-.75.24-1.13.37-3.81 1.38-7.59 3.03-11.14 5.14-1.75 1.08-3.5 2.2-5.1 3.5-1.67 1.21-3.19 2.65-4.75 4.05-3.02 2.88-5.9 5.95-8.37 9.34-1.31 1.65-2.39 3.43-3.55 5.19-1.06 1.8-2.13 3.61-3.05 5.49-1.19 2.34-2.24 4.74-3.2 7.18-1.65-10.16-2.84-21.4-2.84-32.75 0-121.34 98.87-220.03 220.29-219.73 120.47.3 218.87 98.7 219.17 219.17.33 121.44-98.35 220.31-219.7 220.31z" class="st6"/></g><g id="Camada_4" transform="translate(-286.164 -286.164) scale(1.572327)"><path id="SVGID_x5F_2_x5F_" d="M816.17 501.56c0 174.07-141.11 315.18-315.18 315.18s-317.16-142.1-317.16-316.17c0-174.07 143.09-314.18 317.16-314.18 174.07 0 315.18 141.1 315.18 315.17z" class="st8"/></g></svg>
