<svg xmlns="http://www.w3.org/2000/svg" viewBox="0 0 636 636"><defs><style>.cls-1{fill:#fef8fc;}.cls-2{fill:#b9e2fa;}.cls-3{fill:#d0b3d7;}.cls-4{fill:#fff8ca;}.cls-5{fill:#951b81;}.cls-6{fill:#400f4f;}.cls-7,.cls-9{fill:#390b46;}.cls-15,.cls-8{fill:#fff;}.cls-9{font-size:59.45px;}.cls-15,.cls-9{font-family:Jellee-Roman, Jellee;}.cls-10{fill:#ee74aa;}.cls-11{fill:#c9cce6;}.cls-12{fill:#f0ebf6;}.cls-13{fill:#84b1db;}.cls-14{fill:#d8c395;}.cls-15{opacity:0.45;font-size:10.94px;}</style></defs><g id="Camada_3" data-name="Camada 3"><path class="cls-1" d="M439.44,580.64c3.89,4.19,9.08,5.22,12.75,5.35,8.22.27,17.48-3.6,24.74-10.39,12.45-11.65,15.88-28.36,7.63-37.24-3.89-4.19-9.08-5.22-12.75-5.35H471c-8,0-16.87,3.84-23.88,10.4-7.69,7.2-11.93,16.32-12.11,24.34a6,6,0,0,1,0,1.85A17.4,17.4,0,0,0,439.44,580.64Z" transform="translate(-182 -182)"/><path class="cls-2" d="M597.13,646.65c-1-8-6.08-41.23-24.47-66.46-15-20.54-34.79-35.16-45.77-42.32a68.44,68.44,0,0,0-19.32,8.24c12.89,8.67,34,26.28,48.13,44.29,18.59,23.72,25.06,55.67,27.1,69.69A68.2,68.2,0,0,0,597.13,646.65Z" transform="translate(-182 -182)"/><path class="cls-2" d="M560,537.72a68.34,68.34,0,0,0-16.26-2,69.26,69.26,0,0,0-6.92.36c11.75,8.3,28.41,21.92,41.55,40,.33.45.65.92,1,1.38a36.51,36.51,0,0,1-.1-4.06,40.17,40.17,0,0,1,3.4-14.35A205.07,205.07,0,0,0,560,537.72Z" transform="translate(-182 -182)"/><path class="cls-2" d="M543.69,672.26a69.63,69.63,0,0,0,9.85-.7,135.67,135.67,0,0,0-2.86-14.35h-.5a112.55,112.55,0,0,1-35.83-5.54,94.16,94.16,0,0,1-31.08-16.86c0,.3,0,.59,0,.89A67.94,67.94,0,0,0,543.69,672.26Z" transform="translate(-182 -182)"/><path class="cls-2" d="M587.23,551.46a68.26,68.26,0,0,0-7.31-5.3c2.08,2,4.22,4.23,6.35,6.53C586.58,552.27,586.9,551.87,587.23,551.46Z" transform="translate(-182 -182)"/><path class="cls-2" d="M576.28,664.08c-1.4-11.21-7-45-26.09-69.36-14.54-18.55-36.74-36.63-48.78-44.28-.51.4-1,.81-1.5,1.22a42.23,42.23,0,0,1-4.77,17.84,162.55,162.55,0,0,1,38,35.11c19.59,25,25.57,53.86,27.27,65.6A67.91,67.91,0,0,0,576.28,664.08Z" transform="translate(-182 -182)"/><path class="cls-2" d="M538.52,625.64a117,117,0,0,0-10.88-16.71c-.8-1-1.61-2-2.43-3-18.67-6-28.73-12.14-40.74-22.3l0,0a53.62,53.62,0,0,1-7.43,5.83c-.27,1.21-.5,2.42-.7,3.64,9.9,7.95,20.75,16,33.07,21.68A180.77,180.77,0,0,0,538.52,625.64Z" transform="translate(-182 -182)"/><path class="cls-2" d="M483.09,625.67l.1-.11A89.47,89.47,0,0,0,516.45,645a106,106,0,0,0,32.26,5.21,141,141,0,0,0-6.18-16.45c-10-2-22.39-6.34-36.07-12.62-11.12-5.11-21-12-30-19a55,55,0,0,1,3.72,8.85A68.08,68.08,0,0,1,483.09,625.67Z" transform="translate(-182 -182)"/><path class="cls-2" d="M489.25,578.49c8.35,7,15.55,11.91,25.77,16.23a159.19,159.19,0,0,0-23.5-19.21C490.81,576.52,490.05,577.51,489.25,578.49Z" transform="translate(-182 -182)"/><path class="cls-2" d="M611,615.34A41.35,41.35,0,0,1,594.93,608a179.35,179.35,0,0,1,8,30.1A68.17,68.17,0,0,0,611,615.34Z" transform="translate(-182 -182)"/><path class="cls-1" d="M543.56,354.69c1.7-3.29,3.54-6.52,5.55-9.66a99.76,99.76,0,0,1,6.58-9.12c.24-.3.48-.59.73-.88a60.6,60.6,0,0,0-16-5.7,82.75,82.75,0,0,0-21.19-1.62c-1.78.1-3.5.23-5.25.48s-3.55.46-5.31.83l-2.64.49c-.87.18-1.74.4-2.61.59-1.75.37-3.47.88-5.19,1.34a95.12,95.12,0,0,0-19.66,8.06,51.41,51.41,0,0,0-8.41,5.71,11.07,11.07,0,0,0-.85.77l-.89.89a11.55,11.55,0,0,1-8.91,3.37,11.46,11.46,0,0,1-2.4-.4,12.08,12.08,0,0,1-1.16-.38l-.74-.3a66.37,66.37,0,0,0-20.12-4.47c-1.73-.13-3.48-.17-5.18-.17s-3.42.1-5.14.25a79.82,79.82,0,0,0-10.32,1.61,98.19,98.19,0,0,0-10.16,2.83c-1.67.56-3.33,1.16-5,1.8-.77.31-1.53.62-2.29.95-.27,1-.54,1.94-.79,2.91-.49,1.82-.91,3.65-1.36,5.48q-1.29,5.5-2.17,11a107.47,107.47,0,0,0-1.32,11c-.15,1.83-.16,3.64-.22,5.45s0,3.56.15,5.4A67.72,67.72,0,0,0,392.79,404a48.8,48.8,0,0,0,3.21,9.88,38.93,38.93,0,0,0,5.31,8.68l.81,1c.26.3.52.59.82.91.58.62,1.23,1.28,1.9,1.95l2.1,2.09.55.56.28.3.18.19.35.39a8.75,8.75,0,0,1,1.78,7.82,8.58,8.58,0,0,1-.74,1.92c-.14.26-.38.66-.33.57l-.16.26c-.44.74-.89,1.54-1.32,2.33q-1.29,2.4-2.42,4.89a51.22,51.22,0,0,0-3.43,10c-1.51,7.23-2.64,15.27-4.46,23a108.08,108.08,0,0,0-2.09,11,14.68,14.68,0,0,0,.05,4.27,2.5,2.5,0,0,0,1.24,1.64,5.45,5.45,0,0,0,3.51.15,25.18,25.18,0,0,0,4.9-1.64c3.37-1.48,6.77-3.39,10.26-5.35h0a.32.32,0,0,1,.45,0,.3.3,0,0,1,.06.31l0,.06A127.14,127.14,0,0,0,410.92,508c-.24,1.39-.46,2.73-.61,4.12a37.79,37.79,0,0,0-.23,4,13.94,13.94,0,0,0,1.23,6.39,3.64,3.64,0,0,0,.33.58,3.25,3.25,0,0,0,.37.52c.06.07.14.2.18.23l.1.09c.09,0,.12.14.22.19a7.5,7.5,0,0,0,1.41,1.11,9.1,9.1,0,0,0,6.56,1,43.74,43.74,0,0,0,7.87-2.7,76.54,76.54,0,0,0,7.73-4.1l.1-.06a.25.25,0,0,1,.35.1.26.26,0,0,1,0,.29h0c-.29.37-.59.73-.89,1.09a22,22,0,0,0-3.41,6.23,20.52,20.52,0,0,0-1.15,7.86,22.11,22.11,0,0,0,1.73,7.4c.06.15.13.29.2.44a52,52,0,0,1,6.58-7.44c9.48-8.88,21.37-13.74,32.64-13.35a28.91,28.91,0,0,1,20.42,8.85,26.49,26.49,0,0,1,4.88,7.52,80.19,80.19,0,0,1,99,5.26,27.76,27.76,0,0,1,2.8-1.36,29.07,29.07,0,0,1,4.6-1.5,38.4,38.4,0,0,1,4.6-.72,32.3,32.3,0,0,1,9.3.35,25.93,25.93,0,0,1,15.52,9.35,34.42,34.42,0,0,1,4.59,7.49,37.25,37.25,0,0,1,1.56,4c.22.68.43,1.37.61,2.07l.25,1,.12.53,0,.27,0,.13v.07c0,.08,0-.1,0,.26a.79.79,0,1,1-1.58,0c0,.32,0,.09,0,.13l0-.06,0-.11-.08-.24-.18-.47-.39-.94c-.27-.62-.56-1.24-.86-1.85a40.45,40.45,0,0,0-2-3.52,30.52,30.52,0,0,0-5-6.11,23.54,23.54,0,0,0-6.3-4.21,20.57,20.57,0,0,0-7.12-1.71,25.83,25.83,0,0,0-7.35.69,24.2,24.2,0,0,0-6.74,2.53,22.1,22.1,0,0,0-9.18,10.09,28.75,28.75,0,0,0-2.4,13.62,57.9,57.9,0,0,0,.58,7.18,32.28,32.28,0,0,0,1.89,6.82,26.56,26.56,0,0,0,8,10.92,29.68,29.68,0,0,0,12.58,5.74,49.52,49.52,0,0,0,14.84.6A41.24,41.24,0,0,0,643.28,601,26.78,26.78,0,0,0,653.65,592,35.59,35.59,0,0,0,659,578.71a67.13,67.13,0,0,0,1.15-15.3,69.78,69.78,0,0,0-.83-7.63,66.29,66.29,0,0,0-1.78-7.46,64.49,64.49,0,0,0-6.22-14.07,60.64,60.64,0,0,0-4.31-6.36c-.78-1-1.6-2-2.41-2.86l-.57-.61-.12-.12c-.07-.07-.27-.28-.39-.42a6.39,6.39,0,0,1-.69-1,6.2,6.2,0,0,1,0-6.11,7.35,7.35,0,0,1,1.22-1.6,9.53,9.53,0,0,1,1.09-.89,5.69,5.69,0,0,1,.52-.33l.27-.16.16-.08a25.12,25.12,0,0,1,2.67-1.37l2.65-1.06a38,38,0,0,0,4.61-2.15,19.24,19.24,0,0,0,2-1.29,13.36,13.36,0,0,0,1.72-1.47,14,14,0,0,0,2.7-3.7,11.77,11.77,0,0,0,1.25-4.36,9.69,9.69,0,0,0,0-1.08,8.42,8.42,0,0,0-.18-1.17,10.89,10.89,0,0,0-.81-2.3,15.82,15.82,0,0,0-3.09-4.28c-.33-.31-.65-.67-1-.94s-.72-.6-1.1-.89c-.76-.58-1.54-1.16-2.32-1.73l0,0a.27.27,0,0,1-.06-.39.28.28,0,0,1,.36-.09h0a84.26,84.26,0,0,0,9.61,1.85,39.14,39.14,0,0,0,9.18.26,11.12,11.12,0,0,0,3.65-1,3.67,3.67,0,0,0,1.11-.78,2.83,2.83,0,0,0,.34-.42,4.3,4.3,0,0,0,.3-.49,3.29,3.29,0,0,0,.31-1.83,11.27,11.27,0,0,0-.35-2.11,16.16,16.16,0,0,0-3.88-6.13c-2.36-2.37-4.69-4.83-6.9-7.33a123.5,123.5,0,0,1-12.15-15.89v0a.45.45,0,0,1,.15-.62.47.47,0,0,1,.47,0h0a46.69,46.69,0,0,0,11.19,3.28,13.76,13.76,0,0,0,4.87-.07,6.49,6.49,0,0,0,1.63-.65,5.15,5.15,0,0,0,1-.77,4.69,4.69,0,0,0,.89-1.09l.21-.36a.23.23,0,0,1,0-.09,3.07,3.07,0,0,0,.09-.46,11.62,11.62,0,0,0-.52-4,50.53,50.53,0,0,0-4.27-10,151,151,0,0,0-12.73-19.34c-2.36-3.08-4.81-6.11-7.36-9.06s-5.17-5.81-7.93-8.86c-.7-.8-1.39-1.55-2.2-2.6l-.32-.44c-.1-.14-.22-.31-.35-.51a8,8,0,0,1-.92-1.83l-.14-.44-.06-.23-.08-.39a7.29,7.29,0,0,1-.08-.79v-1.35c0-1.88-.14-3.77-.29-5.67a107.34,107.34,0,0,0-1.5-11.29,90.12,90.12,0,0,0-6.69-21.47,58.82,58.82,0,0,0-5.48-9.4c-2.26-3.06-4.64-6.07-7.15-8.92a104.88,104.88,0,0,0-7.95-8.1c-1.39-1.25-2.8-2.5-4.26-3.62-.73-.56-1.46-1.12-2.2-1.63l-.53-.36-.39,0c-.75.06-1.53.16-2.33.25-1.58.2-3.22.45-4.85.79a78,78,0,0,0-9.82,2.78c-3.25,1.14-6.48,2.55-9.64,4a57,57,0,0,0-8.71,5.23,73.58,73.58,0,0,0-8,6.73,94.27,94.27,0,0,0-7.29,7.77,124.25,124.25,0,0,0-12.53,17.56l0,0a.86.86,0,0,1-1.55-.75A101.11,101.11,0,0,1,543.56,354.69Zm-98.94,31.74a8.43,8.43,0,0,1-1.84,3.87,13.37,13.37,0,0,1-2.37,2.3,49,49,0,0,1-4.58,3.08,49.73,49.73,0,0,0-8.07,5.87,75.22,75.22,0,0,0-12.42,16.27v0a.59.59,0,0,1-.8.2.6.6,0,0,1-.26-.71,82.6,82.6,0,0,1,4.28-9.75,54.66,54.66,0,0,1,5.83-9.17,52.16,52.16,0,0,1,7.89-7.65c1.35-1.13,2.69-2.22,3.78-3.25a11.74,11.74,0,0,0,1.29-1.43,1.44,1.44,0,0,0,.38-.81s0-.06,0-.09,0,0,0,0a1.52,1.52,0,0,0-.12-.32,7.45,7.45,0,0,0-.93-1.3,26.13,26.13,0,0,0-3.32-3,74,74,0,0,0-8.36-5.49c-2.9-1.67-6.05-3.21-9.16-4.77l-9.43-4.66a.7.7,0,0,1,.47-1.31c3.44.8,6.85,1.67,10.23,2.65s6.77,2,10.18,3.29a60.7,60.7,0,0,1,9.88,4.8,23.2,23.2,0,0,1,4.68,3.76,11.38,11.38,0,0,1,2.09,3,8.3,8.3,0,0,1,.7,2.16,6.6,6.6,0,0,1,.1,1.27A7.07,7.07,0,0,1,444.62,386.43ZM480.5,515A20.53,20.53,0,0,1,460,494.5a20.22,20.22,0,0,1,.6-4.83,17.64,17.64,0,0,1-1.7-1.1,61.13,61.13,0,0,1-5.36-4.66.55.55,0,0,1,0-.77A.54.54,0,0,1,454,483h0a57.3,57.3,0,0,0,6.68.89,13.25,13.25,0,0,0,2.37-.13A20.49,20.49,0,1,1,480.5,515Zm85-140.92v-.48a13.38,13.38,0,0,1,.59-2.87,36.2,36.2,0,0,1,1.77-4.49,41.7,41.7,0,0,1,4.87-7.64,82.19,82.19,0,0,1,5.79-6.85,54.29,54.29,0,0,1,6.67-6.1,67.09,67.09,0,0,1,15.34-8.86.7.7,0,0,1,.67,1.21l0,0a87.56,87.56,0,0,0-13,11,63.55,63.55,0,0,0-5.32,6.38c-1.62,2.27-3.19,4.6-4.63,7s-2.75,4.84-4.13,7.14c-.13.23-.27.46-.39.69,1-.43,2-.86,3.11-1.26a32.57,32.57,0,0,1,9.07-2.21,26.56,26.56,0,0,1,9.29,1,17.05,17.05,0,0,1,2.31.85,8.83,8.83,0,0,1,1.19.65,4.7,4.7,0,0,1,.64.53,2.59,2.59,0,0,1,.39.48,3.34,3.34,0,0,1,.2.42,1.77,1.77,0,0,1,.07.36,1.27,1.27,0,0,1,0,.44,1.65,1.65,0,0,1-.45.95,2,2,0,0,1-.62.41l-.26.09-.07,0-.13,0-.5.15c-.33.1-.66.18-1,.3a17.82,17.82,0,0,0-1.92.76,23.08,23.08,0,0,0-5.91,3.83,27.38,27.38,0,0,1,9.39-.07,22.81,22.81,0,0,1,2.41.58,13.06,13.06,0,0,1,2.48,1,17.7,17.7,0,0,1,3.91,3,23.79,23.79,0,0,1,5.09,7.59.43.43,0,0,1-.24.58.44.44,0,0,1-.43-.05h0a72,72,0,0,0-7-4.72,18.27,18.27,0,0,0-3.44-1.57,8.87,8.87,0,0,0-1.61-.37,16.27,16.27,0,0,0-1.86-.19,37.12,37.12,0,0,0-7.73.51c-1.32.22-2.65.47-4,.77l-2.07.47-1.14.25c-.21.05-.42.09-.7.13a4.54,4.54,0,0,1-.54.07h-.46l-.4,0c-.1,0-.11,0-.27-.05a2.77,2.77,0,0,1-.41-.12,2.72,2.72,0,0,1-.58-.29,2.86,2.86,0,0,1-.69-.59,3,3,0,0,1-.58-1,3.14,3.14,0,0,1-.16-1,3.24,3.24,0,0,1,.07-.63,4.71,4.71,0,0,1,.14-.46,4.52,4.52,0,0,1,.24-.49l.18-.27.06-.08.1-.12.37-.47c.25-.31.52-.61.79-.91a20.72,20.72,0,0,1,1.7-1.68,25.93,25.93,0,0,1,3.78-2.84,38.19,38.19,0,0,1,8.43-3.77l.68-.2-.1,0a27,27,0,0,0-8,.72A31.73,31.73,0,0,0,579,374.2c-1.25.59-2.5,1.21-3.79,1.86-.65.33-1.31.66-2,1a15.37,15.37,0,0,1-2.56,1,5.77,5.77,0,0,1-1.17.17,3.93,3.93,0,0,1-1-.08,3.68,3.68,0,0,1-2.66-2,3.82,3.82,0,0,1-.27-.72,4.71,4.71,0,0,1-.1-.58,4.05,4.05,0,0,1,0-.45Zm-15.4,95.41a20.46,20.46,0,0,1,31.07-7.1c1-.2,2-.45,3-.73a22.93,22.93,0,0,0,3-1.24,22.57,22.57,0,0,0,2.88-1.64l0,0a.54.54,0,0,1,.81.65,23.14,23.14,0,0,1-1.63,3.22,25.25,25.25,0,0,1-2.06,3.06c-.47.59-1,1.13-1.44,1.65a20.47,20.47,0,0,1-10.53,30.55,20.69,20.69,0,0,1-6.66,1.12,20.51,20.51,0,0,1-18.39-29.52Zm-13.58,28.92a8.15,8.15,0,0,1-3.11,2.93,8.24,8.24,0,0,1-2.11.77,7.65,7.65,0,0,1-2.36.2,7.18,7.18,0,0,1-3.29-1,7.55,7.55,0,0,1-1.87,1.65,8,8,0,0,1-4.6,1.17,8.9,8.9,0,0,1-2.22-.33,10.32,10.32,0,0,1-2-.8,9.81,9.81,0,0,1-3.08-2.53.53.53,0,0,1,.08-.74.56.56,0,0,1,.48-.1l0,0c1.16.34,2.31.69,3.39.9a8.84,8.84,0,0,0,1.57.19,5.9,5.9,0,0,0,1.44-.17,4.36,4.36,0,0,0,2.25-1.17,3.94,3.94,0,0,0,.64-.89c.07-.17.15-.34.2-.5s0-.17.07-.25,0-.2,0-.1a.45.45,0,0,1,0-.11c-.15-.28-.3-.57-.43-.87a15.46,15.46,0,0,1-.69-2c-.19-.61-.33-1.24-.47-1.86-.21-.91-.36-1.83-.49-2.75l-.54,0c-5.46,0-7.09-2.38-7.44-4.56a4.86,4.86,0,0,1,.94-3.72c1.31-1.76,4.07-2.94,8.19-3.5,8.13-1.09,10.34,1.75,10.75,4.32h0a4.85,4.85,0,0,1-.94,3.71c-1,1.3-2.73,2.28-5.24,2.93.06.86.13,1.72.23,2.58a25,25,0,0,0,.52,3,6.41,6.41,0,0,0,1.13,2.21,3.53,3.53,0,0,0,1.82,1.17,3.67,3.67,0,0,0,1.21.11,6.58,6.58,0,0,0,1.33-.21,10.64,10.64,0,0,0,4.88-3.76l0,0a.52.52,0,0,1,.92.39A8.91,8.91,0,0,1,536.51,498.41Z" transform="translate(-182 -182)"/><path class="cls-3" d="M500,198c-166.52,0-302,135.48-302,302S333.48,802,500,802,802,666.52,802,500,666.52,198,500,198Zm124.35,75.29a7,7,0,0,1,9.58-2.52,267.2,267.2,0,0,1,31.47,21.49,7,7,0,1,1-8.7,11,254.33,254.33,0,0,0-29.82-20.37A7,7,0,0,1,624.35,273.29Zm-72.43-26.54a7,7,0,0,1,8.4-5.23,265,265,0,0,1,36.43,11.28,7,7,0,0,1-5.1,13,251.58,251.58,0,0,0-34.5-10.69A7,7,0,0,1,551.92,246.75Zm-70.58-11.36a265.17,265.17,0,0,1,38.13,0,7,7,0,1,1-1,14,251.57,251.57,0,0,0-36.11.05l-.52,0a7,7,0,0,1-.5-14Zm-77.26,17.43a267.37,267.37,0,0,1,36.43-11.22,7,7,0,1,1,3.16,13.63,254.63,254.63,0,0,0-34.51,10.64,7.14,7.14,0,0,1-2.54.48,7,7,0,0,1-2.54-13.53Zm-68.67,39.46a263.92,263.92,0,0,1,31.47-21.53,7,7,0,1,1,7.05,12.09,251.84,251.84,0,0,0-29.8,20.39,7,7,0,1,1-8.72-11Zm-53.91,58a266.7,266.7,0,0,1,23.71-29.86,7,7,0,1,1,10.31,9.46,255.12,255.12,0,0,0-22.46,28.29,7,7,0,1,1-11.56-7.89Zm-40.68,89.18a8,8,0,1,1-.39,6.11A8,8,0,0,1,240.82,439.48Zm9.77,118.09a8,8,0,1,1,5-10.16A8,8,0,0,1,250.59,557.57Zm4.46-57a93.35,93.35,0,0,1-9.23,9.18c-.31.28-.63.55-.84.75a1,1,0,0,1-1,.79,1.22,1.22,0,0,1-.53-.12,1,1,0,0,1-1.18-.18l-.14-.1a71.19,71.19,0,0,1-10.87-10.32,13.56,13.56,0,0,1-2.7-14.24,7.58,7.58,0,0,1,7-4.78c2.27,0,5.29.9,7.53,4.88,2.25-4,5.27-4.88,7.54-4.88a7.56,7.56,0,0,1,7,4.78A13.54,13.54,0,0,1,255.05,500.6Zm5-88a7,7,0,0,1-6.51-9.56c2.24-5.71,4.72-11.41,7.36-16.95a7,7,0,0,1,12.64,6c-2.5,5.25-4.85,10.65-7,16.06A7,7,0,0,1,260.07,412.61Zm404.25,250.6a231.7,231.7,0,0,1-342.16-15.88q-3.93-1.35-7.81-2.94a122.23,122.23,0,0,1-12.72-6.09c-2.09-1.12-4.11-2.41-6.15-3.68s-4-2.73-5.89-4.31l-1.44-1.14-1.39-1.25-1.38-1.26a16.49,16.49,0,0,1-1.34-1.31l-2.6-2.75-2.41-3-.59-.76-.53-.83-1.06-1.65c-.35-.56-.71-1.1-1-1.67l-.9-1.78a58.69,58.69,0,0,1-2.93-7,68.82,68.82,0,0,1-3.19-14.46,63.33,63.33,0,0,1,.25-14.82,60.75,60.75,0,0,1,3.75-14.34,54.17,54.17,0,0,1,3.29-6.83c-3.55-14.6-7.34-35.12-7.34-56.1A231.73,231.73,0,1,1,664.32,663.21Zm92.27-105.64a8,8,0,0,1-10.16-5h0a8,8,0,1,1,10.16,5Zm18.16-71.21a13.56,13.56,0,0,1-2.7,14.24,92.4,92.4,0,0,1-9.24,9.19l-.83.74a1,1,0,0,1-1,.79,1.22,1.22,0,0,1-.53-.12,1,1,0,0,1-1.19-.18l-.14-.1a72.21,72.21,0,0,1-10.85-10.32,13.56,13.56,0,0,1-2.7-14.24,7.57,7.57,0,0,1,7-4.78c2.28,0,5.29.9,7.54,4.88,2.24-4,5.26-4.88,7.54-4.88A7.57,7.57,0,0,1,774.75,486.36Zm-23.34-50.93a8,8,0,1,1-5,10.16h0A8,8,0,0,1,751.41,435.43Zm-20.69-52.67a7,7,0,0,1,9.32,3.33c2.63,5.54,5.1,11.25,7.33,17a7,7,0,0,1-4,9.07,7.1,7.1,0,0,1-2.54.48,7,7,0,0,1-6.53-4.45c-2.11-5.42-4.45-10.83-6.94-16.08A7,7,0,0,1,730.72,382.76Zm-13.14-22.85a6.91,6.91,0,0,1-3.94,1.22,7,7,0,0,1-5.79-3,251.06,251.06,0,0,0-22.48-28.24,7,7,0,1,1,10.29-9.49,266.82,266.82,0,0,1,23.75,29.82A7,7,0,0,1,717.58,359.91Z" transform="translate(-182 -182)"/><path class="cls-4" d="M485.68,683.69a41.22,41.22,0,0,1,14-.47c3.91.38,6.23.55,8.33-.42,2.83-1.3,4.21-2.58,5.22-4.48a79.66,79.66,0,0,1-33.54-25.81c-.15.38-.3.76-.46,1.14a45.66,45.66,0,0,1-8.16,12.7,52,52,0,0,1-5.46,5.15,57.77,57.77,0,0,1-6.06,4.23,59.39,59.39,0,0,1-6.49,3.34,64.39,64.39,0,0,1-6.75,2.49,72,72,0,0,1-13.93,2.77,69.58,69.58,0,0,1-7.07.35,50.72,50.72,0,0,1-7.33-.46,37.53,37.53,0,0,1-14.53-5,27,27,0,0,1-6.32-5.38,24.29,24.29,0,0,1-4.31-7.33,27.23,27.23,0,0,1-1.1-4,29.72,29.72,0,0,1-.48-4,22.57,22.57,0,0,1,.1-3.47c-7.68.12-15.27,0-22.93-.35q-6.74-.33-13.49-.93c-2.25-.18-4.52-.45-6.77-.68-1.85-.26-3.69-.5-5.54-.78a218.36,218.36,0,0,0,125.8,64.52,26.48,26.48,0,0,1-2.8-11.66C465.5,692.85,475.9,686,485.68,683.69Z" transform="translate(-182 -182)"/><path class="cls-5" d="M569.28,371.91l.09,0C569.22,371.9,569.23,371.92,569.28,371.91Z" transform="translate(-182 -182)"/><path class="cls-1" d="M369.38,641q6.5.62,13,1.06c4.34.31,8.75.58,13,.81h.09l.24,0a7.57,7.57,0,0,0,.23-.85,11.72,11.72,0,0,0,.24-2,12.84,12.84,0,0,0-1.09-4.5,38.22,38.22,0,0,0-2.64-5.1,104.19,104.19,0,0,0-7.36-10.22h0a1,1,0,0,1,.16-1.38,1,1,0,0,1,.95-.14,37.55,37.55,0,0,1,11.7,7.11,31.12,31.12,0,0,1,4.85,5.39,22,22,0,0,1,2,3.4,16.57,16.57,0,0,1,1.36,4.15,18.18,18.18,0,0,1,.22,4.49,20.41,20.41,0,0,1-.85,4.32,37.45,37.45,0,0,1-1.38,3.51c-.43,1-.77,1.8-1,2.51a9.61,9.61,0,0,0-.42,4.09,18.8,18.8,0,0,0,.39,2.39,15.89,15.89,0,0,0,.69,2.15,13.38,13.38,0,0,0,6,6.43,25.69,25.69,0,0,0,9.85,2.88,36.44,36.44,0,0,0,5.56.21,56.55,56.55,0,0,0,5.81-.43,58.75,58.75,0,0,0,11.3-2.53c7.25-2.45,13.91-6.27,18.66-11.65a34.82,34.82,0,0,0,3.21-4.25,37.42,37.42,0,0,0,2.47-4.69,36.73,36.73,0,0,0,1.73-5.09,46.26,46.26,0,0,0,1-5.48,57.84,57.84,0,0,0-1.79-22.79,38.62,38.62,0,0,0-10.74-18.09,36.43,36.43,0,0,1-3.76.2l-1.28,0a28.91,28.91,0,0,1-20.42-8.85,27.54,27.54,0,0,1-7-15c-.33-.22-.68-.44-1-.64-.65-.4-1.3-.8-2-1.17-1.34-.76-2.69-1.5-4.07-2.2a52.33,52.33,0,0,0-17.22-5.9c-3.07-.59-6.2-1.07-9.31-1.4h0a.81.81,0,0,1,0-1.61c3.18-.3,6.35-.54,9.55-.72s6.44-.28,9.81-.11c3.54.26,6.66.81,9.91,1.35,1.54.26,3.08.53,4.62.83a41.41,41.41,0,0,1,1.59-6.09,5.75,5.75,0,0,1-.48-1.08l-.09-.29a42.18,42.18,0,0,1-1.89-9.95,29.82,29.82,0,0,1,1-10.06,24.17,24.17,0,0,1,1.77-4.54,24.55,24.55,0,0,1-4,2.48c-.78.34-1.57.68-2.37,1a26,26,0,0,1-2.53,1,15,15,0,0,1-5.94.7,11,11,0,0,1-6.4-2.83,11.62,11.62,0,0,1-1.3-1.41l-.55-.8c-.18-.27-.27-.47-.41-.72a13,13,0,0,1-.68-1.41,11.2,11.2,0,0,1-.55-1.46,21.07,21.07,0,0,1-.31-11.07,37.78,37.78,0,0,1,1.4-4.69l.84-2.22c.28-.74.62-1.45.93-2.18a54.2,54.2,0,0,1,2.87-5.38A23.31,23.31,0,0,1,402,504.1a15.38,15.38,0,0,1-3.61,1,10.92,10.92,0,0,1-4.39-.28,10.42,10.42,0,0,1-4.87-3.2c-.12-.15-.23-.27-.36-.44l-.39-.56a10.26,10.26,0,0,1-1-2.21,14.67,14.67,0,0,1-.74-3.92,28.38,28.38,0,0,1,0-3.44A113.8,113.8,0,0,1,388.17,479c.66-3.86,1.17-7.52,1.64-11.41s.91-7.75,1.62-11.83a61.51,61.51,0,0,1,3.63-12.28c.78-1.94,1.63-3.84,2.55-5.73l.76-1.51-.42-.39c-4.33.13-15.35.95-25.57,5.65-9.43,4.34-22.51,14.71-29.25,26.15a56.26,56.26,0,0,0-7,21.44c1.41-.19,2.82-.34,4.24-.41a55.88,55.88,0,0,1,5.93-.05l.15,2a72,72,0,0,0-20.9,7.9,63.48,63.48,0,0,0-8.95,6.18,76.06,76.06,0,0,0-7.84,7.23,25.07,25.07,0,0,0-1.7,2,25.33,25.33,0,0,0-1.62,2.09L304,518.15c-.5.71-.91,1.51-1.36,2.25-.94,1.49-1.67,3.11-2.47,4.66s-1.44,3.22-2,4.88a68.58,68.58,0,0,0-2.67,9.09,35.64,35.64,0,0,1,10.43-2.7,1.13,1.13,0,0,1,1.23,1,1.09,1.09,0,0,1-.32.9l-.06.06c-3.2,3.23-6.38,6.22-9.25,9.28a76.53,76.53,0,0,0-7.64,9.17,46.69,46.69,0,0,0-5,10.07,47.8,47.8,0,0,0-2.46,11.36,51.48,51.48,0,0,0,.2,11.64,58.92,58.92,0,0,0,2.84,11.31,35.55,35.55,0,0,0,5.24,9.67l1.75,2.15,2,2a12.24,12.24,0,0,0,1,1l1.09.95,1.08,1,1.17.9c1.52,1.24,3.2,2.33,4.84,3.48s3.41,2.15,5.22,3.11A105.61,105.61,0,0,0,320,630.73c3.86,1.59,7.83,3,11.82,4.28a102.8,102.8,0,0,0,12,2.79C352.09,639.25,360.73,640.27,369.38,641Z" transform="translate(-182 -182)"/><path class="cls-4" d="M500.46,279.63c-121.16,0-219.72,98.56-219.72,219.72a206.44,206.44,0,0,0,2.84,32.75c.95-2.44,2-4.84,3.2-7.18.92-1.88,2-3.69,3.05-5.49s2.24-3.53,3.55-5.18a69.44,69.44,0,0,1,8.37-9.34,56.78,56.78,0,0,1,4.75-4.05,49.48,49.48,0,0,1,5.1-3.5,64.71,64.71,0,0,1,11.13-5.14c.38-.14.76-.25,1.13-.38a68.81,68.81,0,0,1,8.93-30.33c8.37-14.2,23.79-26,34.58-31a76.55,76.55,0,0,1,20.89-5.94,52.47,52.47,0,0,1-3.18-5.66,57.17,57.17,0,0,1-4.29-12.27,80.16,80.16,0,0,1-1.86-12.53c-.18-2-.2-4.21-.25-6.31s.07-4.2.25-6.26a120.1,120.1,0,0,1,1.46-12.23c.7-4,1.55-8,2.53-11.91.49-2,1-3.91,1.61-5.85s1.16-3.83,1.87-5.9l0-.09a5.9,5.9,0,0,1,3.07-3.4h0c1.07-.48,1.92-.83,2.87-1.21s1.85-.72,2.78-1.05q2.78-1,5.59-1.87a111.75,111.75,0,0,1,11.44-2.84,92.81,92.81,0,0,1,11.8-1.49c2-.12,4-.15,6-.12s4,.16,6,.36a76.62,76.62,0,0,1,23.17,5.86l.55.23.16.07a1.4,1.4,0,0,0,.34.08,1.6,1.6,0,0,0,.69-.05,1.49,1.49,0,0,0,.57-.33l1.13-1c.42-.42.83-.72,1.25-1.07a59.62,59.62,0,0,1,10.21-6.57,104.19,104.19,0,0,1,21.85-8.27c1.88-.45,3.76-.94,5.66-1.29.95-.19,1.9-.39,2.85-.56l2.87-.45c1.91-.34,3.84-.49,5.75-.73s4-.32,5.89-.38a91.07,91.07,0,0,1,23.2,2.43,67.39,67.39,0,0,1,19.13,7.71c.7-.72,1.42-1.42,2.17-2.11a60.23,60.23,0,0,1,9.27-7.17c3.26-2,6.54-3.89,10-5.57a88,88,0,0,1,10.8-4.44,51.73,51.73,0,0,1,5.81-1.61c1-.23,2-.39,3.08-.53.52-.06,1.07-.11,1.63-.15.27,0,.58,0,.87,0H606a5.57,5.57,0,0,1,2.91.85l.07,0c.68.43,1.06.71,1.55,1.06s.91.66,1.34,1c.87.67,1.72,1.35,2.54,2,1.66,1.37,3.24,2.79,4.81,4.23a117.18,117.18,0,0,1,8.72,9.13c2.73,3.19,5.28,6.48,7.73,9.89a70.16,70.16,0,0,1,6.44,11.37,101.53,101.53,0,0,1,7.26,24.3,116.57,116.57,0,0,1,1.49,12.49q.2,3.11.22,6.22c.38.49.89,1.08,1.38,1.65,2.55,2.92,5.32,6,7.92,9.15s5.15,6.37,7.59,9.68a161.93,161.93,0,0,1,13.21,21A60.64,60.64,0,0,1,686,444.2a20.32,20.32,0,0,1,.61,7.85,11.41,11.41,0,0,1-.63,2.44,9.59,9.59,0,0,1-.58,1.27c-.2.35-.36.63-.56.94a13.46,13.46,0,0,1-3.06,3.37,11.07,11.07,0,0,1-4.27,2,12.06,12.06,0,0,1-4.29.17c-.38-.05-.73-.13-1.09-.21l.86.61c2.67,1.85,5.34,3.61,8.08,5.33a25,25,0,0,1,4.57,3.62,18.4,18.4,0,0,1,3.75,5.34,12.75,12.75,0,0,1,1,7.5,12.4,12.4,0,0,1-3.84,6.89,12.55,12.55,0,0,1-1.49,1.17,11.75,11.75,0,0,1-1.69,1,13.3,13.3,0,0,1-3.42,1.06,18.63,18.63,0,0,1-6.08-.09,30.94,30.94,0,0,1-5.26-1.37c-.9-.31-1.77-.66-2.63-1a14.36,14.36,0,0,1,1.57,2.42,15.1,15.1,0,0,1,.67,1.57,13.82,13.82,0,0,1,.49,1.75,16.47,16.47,0,0,1-.22,7,19.87,19.87,0,0,1-2.77,6.35,22.18,22.18,0,0,1-2.15,2.78,32.06,32.06,0,0,1-2.46,2.36,45.28,45.28,0,0,1-5.24,3.76l-1.18.74.54.65a73,73,0,0,1,5.13,7.41,75.3,75.3,0,0,1,7.4,16.35,77.06,77.06,0,0,1,2.16,8.75,79.6,79.6,0,0,1,1.06,9,77.12,77.12,0,0,1-1.19,17.95,46.51,46.51,0,0,1-6.89,17.53,38.14,38.14,0,0,1-14.53,12.78,52.28,52.28,0,0,1-18,5.08,71.58,71.58,0,0,1-7.5.41,80.23,80.23,0,0,1-79.24,67.66,81.12,81.12,0,0,1-18.9-2.23c-1.83,4.26-4.79,8.5-11.74,11.68-5.14,2.35-10.1,1.88-14.48,1.46-3.4-.33-6.6-.64-10.12.2-2.55.61-10.88,3.09-10.8,9.57.05,3.72,1.47,10.34,10.13,13.78q6.32.36,12.68.36c121.16,0,219.73-98.57,219.73-219.73S621.62,279.63,500.46,279.63Z" transform="translate(-182 -182)"/><polygon class="cls-5" points="469.02 340.89 468.78 341.01 468.99 340.9 469.02 340.89"/><path class="cls-6" d="M500,182a318,318,0,1,0,224.86,93.14A315.93,315.93,0,0,0,500,182Zm0,620c-166.52,0-302-135.48-302-302S333.48,198,500,198,802,333.48,802,500,666.52,802,500,802Z" transform="translate(-182 -182)"/><path d="M651.07,391.86v0Z" transform="translate(-182 -182)"/><path class="cls-7" d="M270.25,382.79a7,7,0,0,0-9.33,3.31c-2.64,5.54-5.12,11.24-7.36,16.95a7,7,0,1,0,13,5.12c2.13-5.41,4.48-10.81,7-16.06A7,7,0,0,0,270.25,382.79Z" transform="translate(-182 -182)"/><path class="cls-7" d="M626.88,282.86a254.33,254.33,0,0,1,29.82,20.37,7,7,0,1,0,8.7-11,267.2,267.2,0,0,0-31.47-21.49,7,7,0,1,0-7,12.09Z" transform="translate(-182 -182)"/><path class="cls-7" d="M481.84,249.38l.52,0a251.57,251.57,0,0,1,36.11-.05,7,7,0,1,0,1-14,265.17,265.17,0,0,0-38.13,0,7,7,0,0,0,.5,14Z" transform="translate(-182 -182)"/><path class="cls-7" d="M339.78,304.76a7,7,0,0,0,4.35-1.53,251.84,251.84,0,0,1,29.8-20.39,7,7,0,1,0-7.05-12.09,263.92,263.92,0,0,0-31.47,21.53,7,7,0,0,0,4.37,12.48Z" transform="translate(-182 -182)"/><path class="cls-7" d="M406.62,266.35a7.14,7.14,0,0,0,2.54-.48,254.63,254.63,0,0,1,34.51-10.64,7,7,0,1,0-3.16-13.63,267.37,267.37,0,0,0-36.43,11.22,7,7,0,0,0,2.54,13.53Z" transform="translate(-182 -182)"/><path class="cls-7" d="M685.77,320a7,7,0,0,0-.4,9.89,251.06,251.06,0,0,1,22.48,28.24,7,7,0,0,0,5.79,3,6.91,6.91,0,0,0,3.94-1.22,7,7,0,0,0,1.83-9.73,266.82,266.82,0,0,0-23.75-29.82A7,7,0,0,0,685.77,320Z" transform="translate(-182 -182)"/><path class="cls-7" d="M283.34,360a7,7,0,0,0,9.72-1.84,255.12,255.12,0,0,1,22.46-28.29,7,7,0,1,0-10.31-9.46A266.7,266.7,0,0,0,281.5,350.3,7,7,0,0,0,283.34,360Z" transform="translate(-182 -182)"/><path class="cls-7" d="M557.15,255.15a251.58,251.58,0,0,1,34.5,10.69,7,7,0,0,0,5.1-13,265,265,0,0,0-36.43-11.28,7,7,0,1,0-3.17,13.63Z" transform="translate(-182 -182)"/><path class="cls-7" d="M734.33,408.16a7,7,0,0,0,6.53,4.45,7.1,7.1,0,0,0,2.54-.48,7,7,0,0,0,4-9.07c-2.23-5.72-4.7-11.43-7.33-17a7,7,0,1,0-12.65,6C729.88,397.33,732.22,402.74,734.33,408.16Z" transform="translate(-182 -182)"/><path class="cls-7" d="M746.43,445.59h0a8,8,0,1,0,5-10.16A8,8,0,0,0,746.43,445.59Z" transform="translate(-182 -182)"/><path class="cls-7" d="M751.41,542.43a8,8,0,0,0-5,10.16h0a8,8,0,1,0,5-10.16Z" transform="translate(-182 -182)"/><path class="cls-7" d="M244.48,450.18A7.89,7.89,0,0,0,248,451a8,8,0,1,0-3.51-.82Z" transform="translate(-182 -182)"/><path class="cls-7" d="M245.41,542.43a8,8,0,1,0,10.16,5A8,8,0,0,0,245.41,542.43Z" transform="translate(-182 -182)"/><path class="cls-7" d="M760.17,486.46c-2.25-4-5.26-4.88-7.54-4.88a7.57,7.57,0,0,0-7,4.78,13.56,13.56,0,0,0,2.7,14.24,72.21,72.21,0,0,0,10.85,10.32l.14.1a1,1,0,0,0,1.19.18,1.22,1.22,0,0,0,.53.12,1,1,0,0,0,1-.79l.83-.74a92.4,92.4,0,0,0,9.24-9.19,13.56,13.56,0,0,0,2.7-14.24,7.57,7.57,0,0,0-7-4.78C765.43,481.58,762.41,482.48,760.17,486.46Z" transform="translate(-182 -182)"/><path class="cls-7" d="M250.7,481.58c-2.27,0-5.29.9-7.54,4.88-2.24-4-5.26-4.88-7.53-4.88a7.58,7.58,0,0,0-7,4.78,13.56,13.56,0,0,0,2.7,14.24,71.19,71.19,0,0,0,10.87,10.32l.14.1a1,1,0,0,0,1.18.18,1.22,1.22,0,0,0,.53.12,1,1,0,0,0,1-.79c.21-.2.53-.47.84-.75a93.35,93.35,0,0,0,9.23-9.18,13.54,13.54,0,0,0,2.69-14.24A7.56,7.56,0,0,0,250.7,481.58Z" transform="translate(-182 -182)"/><path class="cls-7" d="M565.61,375.36a3.82,3.82,0,0,0,.27.72,3.68,3.68,0,0,0,2.66,2,3.93,3.93,0,0,0,1,.08,5.77,5.77,0,0,0,1.17-.17,15.37,15.37,0,0,0,2.56-1c.7-.33,1.36-.66,2-1,1.29-.65,2.54-1.27,3.79-1.86a31.73,31.73,0,0,1,7.51-2.59,27,27,0,0,1,8-.72l.1,0-.68.2a38.19,38.19,0,0,0-8.43,3.77,25.93,25.93,0,0,0-3.78,2.84,20.72,20.72,0,0,0-1.7,1.68c-.27.3-.54.6-.79.91l-.37.47-.1.12-.06.08-.18.27a4.52,4.52,0,0,0-.24.49,4.71,4.71,0,0,0-.14.46,3.24,3.24,0,0,0-.07.63,3.14,3.14,0,0,0,.16,1,3,3,0,0,0,.58,1,2.86,2.86,0,0,0,.69.59,2.72,2.72,0,0,0,.58.29,2.77,2.77,0,0,0,.41.12c.16,0,.17,0,.27.05l.4,0h.46a4.54,4.54,0,0,0,.54-.07c.28,0,.49-.08.7-.13l1.14-.25,2.07-.47c1.36-.3,2.69-.55,4-.77a37.12,37.12,0,0,1,7.73-.51,16.27,16.27,0,0,1,1.86.19,8.87,8.87,0,0,1,1.61.37,18.27,18.27,0,0,1,3.44,1.57,72,72,0,0,1,7,4.72h0a.44.44,0,0,0,.43.05.43.43,0,0,0,.24-.58,23.79,23.79,0,0,0-5.09-7.59,17.7,17.7,0,0,0-3.91-3,13.06,13.06,0,0,0-2.48-1,22.81,22.81,0,0,0-2.41-.58,27.38,27.38,0,0,0-9.39.07,23.08,23.08,0,0,1,5.91-3.83,17.82,17.82,0,0,1,1.92-.76c.32-.12.65-.2,1-.3l.5-.15.13,0,.07,0,.26-.09a2,2,0,0,0,.62-.41,1.65,1.65,0,0,0,.45-.95,1.27,1.27,0,0,0,0-.44,1.77,1.77,0,0,0-.07-.36,3.34,3.34,0,0,0-.2-.42,2.59,2.59,0,0,0-.39-.48,4.7,4.7,0,0,0-.64-.53,8.83,8.83,0,0,0-1.19-.65,17.05,17.05,0,0,0-2.31-.85,26.56,26.56,0,0,0-9.29-1,32.57,32.57,0,0,0-9.07,2.21c-1.07.4-2.1.83-3.11,1.26.12-.23.26-.46.39-.69,1.38-2.3,2.69-4.75,4.13-7.14s3-4.72,4.63-7a63.55,63.55,0,0,1,5.32-6.38,87.56,87.56,0,0,1,13-11l0,0a.7.7,0,0,0-.67-1.21,67.09,67.09,0,0,0-15.34,8.86,54.29,54.29,0,0,0-6.67,6.1,82.19,82.19,0,0,0-5.79,6.85,41.7,41.7,0,0,0-4.87,7.64,36.2,36.2,0,0,0-1.77,4.49,13.38,13.38,0,0,0-.59,2.87v.73a4.05,4.05,0,0,0,0,.45A4.71,4.71,0,0,0,565.61,375.36Zm17.9,9,0,0Zm-14.14-12.5-.09,0S569.22,371.9,569.37,371.89Z" transform="translate(-182 -182)"/><path class="cls-7" d="M480.5,474a20.51,20.51,0,0,0-17.42,9.74,13.25,13.25,0,0,1-2.37.13A57.3,57.3,0,0,1,454,483h0a.54.54,0,0,0-.49.16.55.55,0,0,0,0,.77,61.13,61.13,0,0,0,5.36,4.66,17.64,17.64,0,0,0,1.7,1.1,20.22,20.22,0,0,0-.6,4.83A20.5,20.5,0,1,0,480.5,474Z" transform="translate(-182 -182)"/><path class="cls-7" d="M559.49,496.91a20.47,20.47,0,0,0,9,2.1,20.69,20.69,0,0,0,6.66-1.12,20.43,20.43,0,0,0,10.53-30.55c.49-.52,1-1.06,1.44-1.65a25.25,25.25,0,0,0,2.06-3.06,23.14,23.14,0,0,0,1.63-3.22.54.54,0,0,0-.81-.65l0,0a22.57,22.57,0,0,1-2.88,1.64,22.93,22.93,0,0,1-3,1.24c-.93.28-1.94.53-3,.73a20.49,20.49,0,1,0-21.67,34.52Z" transform="translate(-182 -182)"/><path class="cls-7" d="M536.92,494.29l0,0A10.64,10.64,0,0,1,532,498.1a6.58,6.58,0,0,1-1.33.21,3.67,3.67,0,0,1-1.21-.11,3.53,3.53,0,0,1-1.82-1.17,6.41,6.41,0,0,1-1.13-2.21,25,25,0,0,1-.52-3c-.1-.86-.17-1.72-.23-2.58,2.51-.65,4.28-1.63,5.24-2.93a4.85,4.85,0,0,0,.94-3.71h0c-.41-2.57-2.62-5.41-10.75-4.32-4.12.56-6.88,1.74-8.19,3.5a4.86,4.86,0,0,0-.94,3.72c.35,2.18,2,4.56,7.44,4.56l.54,0c.13.92.28,1.84.49,2.75.14.62.28,1.25.47,1.86a15.46,15.46,0,0,0,.69,2c.13.3.28.59.43.87a.45.45,0,0,0,0,.11c0-.1,0,.05,0,.1s0,.16-.07.25-.13.33-.2.5a3.94,3.94,0,0,1-.64.89,4.36,4.36,0,0,1-2.25,1.17,5.9,5.9,0,0,1-1.44.17,8.84,8.84,0,0,1-1.57-.19c-1.08-.21-2.23-.56-3.39-.9l0,0a.56.56,0,0,0-.48.1.53.53,0,0,0-.08.74A9.81,9.81,0,0,0,515,503a10.32,10.32,0,0,0,2,.8,8.9,8.9,0,0,0,2.22.33,8,8,0,0,0,4.6-1.17,7.55,7.55,0,0,0,1.87-1.65,7.18,7.18,0,0,0,3.29,1,7.65,7.65,0,0,0,2.36-.2,8.24,8.24,0,0,0,2.11-.77,8.15,8.15,0,0,0,3.11-2.93,8.91,8.91,0,0,0,1.33-3.73.52.52,0,0,0-.92-.39Z" transform="translate(-182 -182)"/><path class="cls-8" d="M443.93,381.79a11.38,11.38,0,0,0-2.09-3,23.2,23.2,0,0,0-4.68-3.76,60.7,60.7,0,0,0-9.88-4.8c-3.41-1.33-6.78-2.33-10.18-3.29s-6.79-1.85-10.23-2.65a.7.7,0,0,0-.47,1.31l9.43,4.66c3.11,1.56,6.26,3.1,9.16,4.77a74,74,0,0,1,8.36,5.49,26.13,26.13,0,0,1,3.32,3,7.45,7.45,0,0,1,.93,1.3,1.52,1.52,0,0,1,.12.32s0,0,0,0,0,.06,0,.09a1.44,1.44,0,0,1-.38.81,11.74,11.74,0,0,1-1.29,1.43c-1.09,1-2.43,2.12-3.78,3.25a52.16,52.16,0,0,0-7.89,7.65,54.66,54.66,0,0,0-5.83,9.17,82.6,82.6,0,0,0-4.28,9.75.6.6,0,0,0,.26.71.59.59,0,0,0,.8-.2v0a75.22,75.22,0,0,1,12.42-16.27,49.73,49.73,0,0,1,8.07-5.87,49,49,0,0,0,4.58-3.08,13.37,13.37,0,0,0,2.37-2.3,8.43,8.43,0,0,0,1.84-3.87,7.07,7.07,0,0,0,.11-1.21,6.6,6.6,0,0,0-.1-1.27A8.3,8.3,0,0,0,443.93,381.79Z" transform="translate(-182 -182)"/><text class="cls-9" transform="matrix(0.64, 0.77, -0.77, 0.64, 75.99, 478.72)">M</text><text class="cls-9" transform="translate(120.97 529.88) rotate(39.24)">Y</text><text class="cls-9" transform="matrix(0.84, 0.55, -0.55, 0.84, 153.62, 555.45)"> </text><text class="cls-9" transform="translate(171.03 567.38) rotate(26.31)">A</text><text class="cls-9" transform="matrix(0.97, 0.25, -0.25, 0.97, 219.3, 590.86)">M</text><text class="cls-9" transform="translate(284.12 604.92) rotate(4.97)">I</text><text class="cls-9" transform="translate(309.65 607.57) rotate(-2.59)">G</text><text class="cls-9" transform="translate(364.83 604.09) rotate(-13.24)">U</text><text class="cls-9" transform="matrix(0.92, -0.4, 0.4, 0.92, 416.05, 591.09)">R</text><text class="cls-9" transform="translate(462.26 570.21) rotate(-33.68)">U</text><text class="cls-9" transform="matrix(0.7, -0.72, 0.72, 0.7, 507.47, 539.6)">M</text><text class="cls-9" transform="translate(552.08 490.64) rotate(-54.87)">I</text><path class="cls-10" d="M406.51,365.69c-5,21,8.05,50.89,8.05,50.89a83.8,83.8,0,0,1,4-9,54.66,54.66,0,0,1,5.83-9.17,52.16,52.16,0,0,1,7.89-7.65c1.35-1.13,2.69-2.22,3.78-3.25a11.74,11.74,0,0,0,1.29-1.43,1.44,1.44,0,0,0,.38-.81s0-.06,0-.09,0,0,0,0a1.52,1.52,0,0,0-.12-.32,7.45,7.45,0,0,0-.93-1.3,26.13,26.13,0,0,0-3.32-3,74,74,0,0,0-8.36-5.49c-2.9-1.67-6.05-3.21-9.16-4.77,0,0-4.74-2.24-7.75-3.79,0,0-.49-.28-1.12-.6,0,0-.17-.09-.17-.07" transform="translate(-182 -182)"/><path class="cls-11" d="M417.28,414.89s5-7.83,12.74-12.36c8.26-4.85,10.77-4.24,14-6.38,2.7-1.81,5.19-6.81,1.45-12.94s-5.54-5.36-6.9-3.66,1.75,7.59-2.72,11.66c-4.77,4.34-11.15,10.13-13.53,13.36S417.28,414.89,417.28,414.89Z" transform="translate(-182 -182)"/><path class="cls-7" d="M443.93,381.79a11.38,11.38,0,0,0-2.09-3,23.2,23.2,0,0,0-4.68-3.76,60.7,60.7,0,0,0-9.88-4.8c-3.41-1.33-6.78-2.33-10.18-3.29s-6.79-1.85-10.23-2.65a.7.7,0,0,0-.47,1.31l9.43,4.66c3.11,1.56,6.26,3.1,9.16,4.77a74,74,0,0,1,8.36,5.49,26.13,26.13,0,0,1,3.32,3,7.45,7.45,0,0,1,.93,1.3,1.52,1.52,0,0,1,.12.32s0,0,0,0,0,.06,0,.09a1.44,1.44,0,0,1-.38.81,11.74,11.74,0,0,1-1.29,1.43c-1.09,1-2.43,2.12-3.78,3.25a52.16,52.16,0,0,0-7.89,7.65,54.66,54.66,0,0,0-5.83,9.17,82.6,82.6,0,0,0-4.28,9.75.6.6,0,0,0,.26.71.59.59,0,0,0,.8-.2v0a75.22,75.22,0,0,1,12.42-16.27,49.73,49.73,0,0,1,8.07-5.87,49,49,0,0,0,4.58-3.08,13.37,13.37,0,0,0,2.37-2.3,8.43,8.43,0,0,0,1.84-3.87,7.07,7.07,0,0,0,.11-1.21,6.6,6.6,0,0,0-.1-1.27A8.3,8.3,0,0,0,443.93,381.79Z" transform="translate(-182 -182)"/><path class="cls-10" d="M601.2,338l0,.09s0-.07-.05-.07l-.14,0s0,.05-.07.06l0,0a88.13,88.13,0,0,0-13,11,60.06,60.06,0,0,0-5.31,6.38c-1.63,2.26-3.19,4.59-4.64,7s-2.75,4.84-4.13,7.15l-.39.68c1-.43,2-.86,3.11-1.26a32.54,32.54,0,0,1,9.08-2.2,26.26,26.26,0,0,1,9.28,1,16.57,16.57,0,0,1,2.31.85,7.94,7.94,0,0,1,1.19.66,5.27,5.27,0,0,1,.65.52,3.08,3.08,0,0,1,.38.48,2.17,2.17,0,0,1,.2.43,2.61,2.61,0,0,1,.08.35,1.28,1.28,0,0,1,0,.44,1.73,1.73,0,0,1-.46.95,1.78,1.78,0,0,1-.62.41,2,2,0,0,1-.26.09l-.07,0-.13,0-.49.14c-.33.1-.67.18-1,.3-.65.23-1.29.47-1.92.76a23,23,0,0,0-5.9,3.83,27.38,27.38,0,0,1,9.39-.07,22.64,22.64,0,0,1,2.4.58,12.46,12.46,0,0,1,2.48,1,17.36,17.36,0,0,1,3.91,3,24.41,24.41,0,0,1,4.36,6c.29.26.36,1.28.62,1.55,0,0,.1-.59.14-.79l.14.68C615.88,363.38,601.2,338,601.2,338Z" transform="translate(-182 -182)"/><path class="cls-11" d="M589,371.16a15,15,0,0,0-7.37,4.65c-4.6,5.1-3.38,8-3.38,8s7-6.71,8.91-7.68,11.4-5,11.4-5-2-1.9-3.91-1.9S589,371.16,589,371.16Z" transform="translate(-182 -182)"/><path class="cls-11" d="M580.23,386a47.11,47.11,0,0,1,16.46-.34,47.65,47.65,0,0,1,16.06,5.14,61.65,61.65,0,0,0-5.18-6.81c-3.7-4.35-6.79-2.31-13.05-2.75s-9.49-1.73-11.83-.19S580.23,386,580.23,386Z" transform="translate(-182 -182)"/><path class="cls-7" d="M565.61,375.35a3.82,3.82,0,0,0,.27.72,3.63,3.63,0,0,0,1.22,1.44,3.78,3.78,0,0,0,1.44.6,4.5,4.5,0,0,0,1,.08,5.77,5.77,0,0,0,1.17-.17,15.37,15.37,0,0,0,2.56-1c.7-.33,1.36-.66,2-1,1.29-.65,2.54-1.27,3.79-1.86a31.73,31.73,0,0,1,7.51-2.59,27,27,0,0,1,8-.72l.1,0-.68.2a38.15,38.15,0,0,0-8.43,3.76,26,26,0,0,0-3.78,2.85,20.72,20.72,0,0,0-1.7,1.68c-.27.3-.54.6-.79.91l-.37.47-.1.12-.06.07-.18.28a4.52,4.52,0,0,0-.24.49,4.71,4.71,0,0,0-.14.46,3.24,3.24,0,0,0-.07.63,3.14,3.14,0,0,0,.16,1,3,3,0,0,0,.58,1,2.86,2.86,0,0,0,.69.59,2.72,2.72,0,0,0,.58.29,2.77,2.77,0,0,0,.41.12c.16,0,.17,0,.27.05l.4,0a3.15,3.15,0,0,0,.46,0,4.88,4.88,0,0,0,.54-.06c.28,0,.49-.08.7-.13l1.14-.25,2.07-.47c1.36-.3,2.69-.55,4-.77a37.14,37.14,0,0,1,7.73-.52c.63,0,1.25.1,1.86.2a8.87,8.87,0,0,1,1.61.37,18.27,18.27,0,0,1,3.44,1.57,72,72,0,0,1,7,4.72h0a.44.44,0,0,0,.43,0,.43.43,0,0,0,.24-.58,23.79,23.79,0,0,0-5.09-7.59,17.7,17.7,0,0,0-3.91-3,13.06,13.06,0,0,0-2.48-1,22.81,22.81,0,0,0-2.41-.58,27.38,27.38,0,0,0-9.39.07,23.08,23.08,0,0,1,5.91-3.83,17.82,17.82,0,0,1,1.92-.76c.32-.12.65-.2,1-.3l.5-.15.13,0,.07,0,.26-.09a2,2,0,0,0,.62-.41,1.65,1.65,0,0,0,.45-.95,1.27,1.27,0,0,0,0-.44,1.77,1.77,0,0,0-.07-.36,3.34,3.34,0,0,0-.2-.42,2.59,2.59,0,0,0-.39-.48,4.7,4.7,0,0,0-.64-.53,10.24,10.24,0,0,0-1.19-.66,18.43,18.43,0,0,0-2.31-.84,26.32,26.32,0,0,0-9.29-1,32.57,32.57,0,0,0-9.07,2.21c-1.07.4-2.1.83-3.11,1.26.12-.23.26-.46.39-.69,1.38-2.3,2.69-4.75,4.13-7.14s3-4.72,4.63-7a63.55,63.55,0,0,1,5.32-6.38,87.56,87.56,0,0,1,13-11l0,0a.7.7,0,0,0-.67-1.21,67.09,67.09,0,0,0-15.34,8.86,55,55,0,0,0-6.67,6.09,84,84,0,0,0-5.79,6.86,41.7,41.7,0,0,0-4.87,7.64,35.59,35.59,0,0,0-1.77,4.49,13.38,13.38,0,0,0-.59,2.87v.73a3.89,3.89,0,0,0,0,.44A4.55,4.55,0,0,0,565.61,375.35Zm17.9,9,0,0Zm-14.14-12.5-.09,0S569.22,371.89,569.37,371.88Z" transform="translate(-182 -182)"/><path class="cls-11" d="M495.89,542.7s-13.77-8.7-12.72-8.47c6.95,1.58,81.56-1,122-11.34,21.79-5.57,39.87-15.72,47-20.83,9.64-6.88,5.13-14.43,5.13-14.43s17.21,9.9-2.19,21.8c-6.34,3.88,1.33,22-2.43,24.68-10.28,7.31-57.77,14.32-57.77,14.32l-26.36-13.81-42.63,1.14Z" transform="translate(-182 -182)"/><path class="cls-11" d="M657.16,452.41s5.28,10.24,8.18,14.55c2.2,3.27,6,9.29,8,12.38,1.36,2.11,1.66,5-1,6.51-4.71,2.74-6.36,1.52-6.36,1.52s11.84,4.28,13.9,1.42,7.11-4.15-2.08-12.77S657.16,452.41,657.16,452.41Z" transform="translate(-182 -182)"/><path class="cls-12" d="M620.4,336.72" transform="translate(-182 -182)"/><path class="cls-12" d="M664.43,453.11l-.12,0Z" transform="translate(-182 -182)"/><path class="cls-11" d="M665.7,422.79h0c1.48,1.08-13.48-16.17-14.22-17.84-4.07-9.18-12.21-28.47-14.22-40-2.3-13.15-13.64-25.34-13.64-25.34s9.29,20.36,10.06,30.19c.74,9.54-2.3,23.38.77,27.54,3.27,4.43,6.88,8.24,16.62,18.93a193.67,193.67,0,0,1,13.24,16.34c3.22,4.23,8.19,12.09,8.27,16.67.08,3.95-7.29,4.19-9.17,3.79a18.18,18.18,0,0,0-3.94-.67l6.13,3.44s9.31,5.11,12.89-4.21C681.28,444.35,672.83,429.6,665.7,422.79Z" transform="translate(-182 -182)"/><path class="cls-11" d="M541,361.13s-1-11.5,2.47-19.7a47.25,47.25,0,0,1,8-12.86l10.47,5.49a77.63,77.63,0,0,0-9.71,10C547.38,350.06,541,361.13,541,361.13Z" transform="translate(-182 -182)"/><path class="cls-11" d="M638,561.81s-13.62-14.14-27-8.55c-8,3.34-12.46,13.87-10,27.31,2,10.67,13.78,21.57,28.85,21.57s20.93-6.6,20.93-6.6S642,613,615.43,606.11s-31-25.41-29.11-35.62,8-21.32,16.64-23.49,25-.61,30.47,5.69C635.34,554.91,638,561.81,638,561.81Z" transform="translate(-182 -182)"/><path class="cls-11" d="M452.14,353.66c-3.31-.61-8.46-3.15-18.12-4a147,147,0,0,0-26,1c-8,1.19-12.77,1.53-12.77,1.53s5.45-8.68,21.28-10.55c9.58-1.13,21.33-2.22,33.89,1,7.91,2,12.28,4.26,15.23,2.81,6.13-3,2.63,4.37-1.91,7.32C460.33,355.06,458,354.75,452.14,353.66Z" transform="translate(-182 -182)"/><path class="cls-11" d="M396.16,485.85s-1.31,7.74,2.23,8.19c6.36.82,17-3.7,17-3.7l-6.9,6.89s-7.13,6.06-12.41,3.84-5-8.45-3.58-11.62S396.16,485.85,396.16,485.85Z" transform="translate(-182 -182)"/><path class="cls-11" d="M410.83,502.62a107.71,107.71,0,0,0,1,11.23c.85,4.94,3.34,6.9,6.47,7.91,2,.65,7.06,1.79,16.93-1.87,1.67-.61-.76,2.62-8.2,7-4.41,2.59-14.52,2.73-17.75,0s-4.93-13.27-2.12-18.72S410.83,502.62,410.83,502.62Z" transform="translate(-182 -182)"/><path class="cls-11" d="M432.73,525.08s-.34,7.94,2.06,10.91c3.23,4,7,4.19,7,4.19l-8.33,5.76-3.83-6.73a8.44,8.44,0,0,1-.34-7.47A39.9,39.9,0,0,1,432.73,525.08Z" transform="translate(-182 -182)"/><path class="cls-11" d="M474.37,533a22.48,22.48,0,0,1,7.31,17.84,29.75,29.75,0,0,1-15.74,25.7,40.28,40.28,0,0,1-22.64,4.26c-5.21-.37-12.43-5.32-12.43-5.32l12.43,14.68s20.28,3.41,26.48-2,20.33-19.43,21.77-31.32c1.48-12.13-2-18.85-7.24-21.57A19.23,19.23,0,0,0,474.37,533Z" transform="translate(-182 -182)"/><path class="cls-11" d="M397.09,562.73s19.05,6.87,31.47,16.06c12.82,9.48,25.95,23.13,30.14,34.89,6.21,17.45,2,28.17-2.47,35.75-4.65,8-15.83,15.06-30.55,16.25-6.26.51-20.66-2.1-18-11.4,2.3-8.17-.31-16.55-2.86-19.61s-4.84,5.9-4.84,5.9,4.21,1.28,2.51,4.43c-4.8,8.87-8.85,17.53-2.05,24.51s21.11,11.4,30.47,7.32,24.51-6.62,34.39-14.64c11.82-9.61,14.27-26.21,11.05-43.91S462,594.72,462,594.72l-25.12-12.1s-14.19-12.91-20.15-15.24S397.09,562.73,397.09,562.73Z" transform="translate(-182 -182)"/><path class="cls-11" d="M386.66,622.22s5.64,9.65,2.85,12.59c-2.64,2.79-13.56.83-21.53.15-13.87-1.19-31.07-5.7-45.45-10.81-6.95-2.47-20.53-10-26.81-16.09s-13.32-19.33-13.32-19.33-2.86,11.33-1.66,16.95S292,629.56,307.3,634.81s33.19,12.4,58.89,12.4,27.65,3.54,30.37,0,6-13.61,0-18.89S386.66,622.22,386.66,622.22Z" transform="translate(-182 -182)"/><path class="cls-11" d="M294.62,536.23s1.8-1.39,7.83-3.57S317,530.19,317,530.19s-9,6.9-12.6,9.28-9,10.47-10.89,7.87S294.62,536.23,294.62,536.23Z" transform="translate(-182 -182)"/><path class="cls-11" d="M330.74,491.52s.3-.48,5.58-1,21.11-1.44,21.11-1.44a63.8,63.8,0,0,0-14.76-4.69,101.86,101.86,0,0,0-12.2-1.26Z" transform="translate(-182 -182)"/><path class="cls-11" d="M393.19,504.58s-1.42,3.09-2.19,11.4a38,38,0,0,0,1.32,15c2,6.27,5.38,9.72,9.87,11.88,4.95,2.39,8.17,1.32,11.92,2.73,2.46.92,2.8,5.53,1.44,7.57-1.75,2.63-6.21,3.57-10.18,4.68a109.94,109.94,0,0,1-11.43,2.21,74.23,74.23,0,0,1,13.27,1.64c5.62,1.41,11.92,3.64,16.68,3.3s7-11.19,7-11.19l-4.25-8.21V535.26l2.32-7.2L415,531l-9-.29-3.57-12,8.13-20.25Z" transform="translate(-182 -182)"/><path class="cls-13" d="M525.4,545.22a223.09,223.09,0,0,1,31.1,25.86c15,15.15,20.6,27.06,27.92,46.83,6,16.23,7.83,35.4,7.83,35.4l12.14-6.15s-6.19-27.57-10.1-36.08S578,574,563,560.55s-40.11-31.38-40.11-31.38l-10,8.35Z" transform="translate(-182 -182)"/><path class="cls-13" d="M553.43,541.3a194.27,194.27,0,0,1,25.65,23.78c1.53,1.71,3.48,5.71,3.51,7.85.18,13.7,2.41,34.42,12.34,40.75C611,623.92,609,635.24,609,635.24l7.36-3s-1.69-30.81-9.51-29.22c-20.27,4.13-12.83-29-21.49-46.46-5.73-11.52-34.94-26.6-33.2-29L543,534Z" transform="translate(-182 -182)"/><polygon class="cls-13" points="391.74 358.83 405.23 375.68 412.28 367.42 391.74 358.83"/><path class="cls-13" d="M572.49,628c-3.92-8.51-16.34-37.06-31.32-50.53s-40.11-31.37-40.11-31.37l-1.39,1.17a14,14,0,0,0-1.05-1.17l-1.5,3.3-3.95,3.31,1.74,1.57-1.06,2.34L478,582.19,470.53,590l5.78,4.7s4-1.78,6.93-3.48l.65-.39c3.73,2.8,12.36,9.19,16.11,11.29a220.71,220.71,0,0,0,20.06,9.5,22.42,22.42,0,0,0,3,.93,162,162,0,0,1,10.15,16l-22.52-8-34.21-20.5-6,7s13.67,8.86,18.52,11.58c3.88,2.16,22.36,11.67,33.4,15.49a140.4,140.4,0,0,0,15.6,4.28,96.05,96.05,0,0,1,3.8,10.35q.74,2.43,1.36,4.8l-31.66-5.48-33.87-21.64-6,7s13.68,9.14,18.39,12.11c9.75,6.15,17.87,9.39,32.85,13.79,8.18,2.4,17.39,2.62,22.24,2.54,1.91,8.95,2.61,15.5,2.61,15.5l10.84-3.74-8.8-36.43L529.77,606.7l-31.22-31.22c2.62-3.93,4.56-7.19,5.05-13.37h0A223.09,223.09,0,0,1,534.7,588c15,15.15,20.6,27.06,27.92,46.83,6,16.24,7.83,35.4,7.83,35.4l12.14-6.15S576.4,636.49,572.49,628Zm-71.43-42c.71.63,3.17,3.29,6.38,7l-15.67-8.45a37.71,37.71,0,0,0,3.33-3.94C496.53,581.9,498.59,583.79,501.06,586Z" transform="translate(-182 -182)"/><path class="cls-14" d="M553.54,679.12s7,2.46,26.38-2,35.6-16.17,43.7-27.83,10.83-17.43,10.83-17.43,14.88-3.28,24.85-8.63c21.46-11.54,27.23-26.59,27.23-41.82,0-7.87-8.65-19.26-17.92-18.58-6.17.46-2.26,30.66-13.06,36.85s-20.08,8.81-28.25,9.08-4.95-1.34-11.5,13.94-7.6,29.76-25,39.1S553.54,679.12,553.54,679.12Z" transform="translate(-182 -182)"/><path class="cls-14" d="M353,662.22s23.11,1.7,25.5,1.84,3.74,6.15,8.85,13.28c4.2,5.87,19.51,16.34,35.4,16.68s28.94-1,44.94-14.22c10.38-8.57,13.93-14,15.47-14.37s5.94,4.78,16.49,8.51c11.13,3.92,18.21,4.22,18.21,4.22l2.59-5.9-18.27-7.17L479.89,647l-15.66,18.39S451,679.54,440.06,679.8s-27.85-1.58-36.56-8-5.37-25.9-6.94-24.61-62-1.53-62-1.53Z" transform="translate(-182 -182)"/><path class="cls-7" d="M732,489.18a231.73,231.73,0,0,0-463.23,10.17c0,21,3.79,41.5,7.34,56.1a54.17,54.17,0,0,0-3.29,6.83A60.75,60.75,0,0,0,269,576.62a63.33,63.33,0,0,0-.25,14.82A68.82,68.82,0,0,0,272,605.9a58.69,58.69,0,0,0,2.93,7l.9,1.78c.33.57.69,1.11,1,1.67l1.06,1.65.53.83.59.76,2.41,3,2.6,2.75a16.49,16.49,0,0,0,1.34,1.31l1.38,1.26,1.39,1.25,1.44,1.14c1.9,1.58,3.89,2.94,5.89,4.31s4.06,2.56,6.15,3.68a122.23,122.23,0,0,0,12.72,6.09q3.88,1.59,7.81,2.94A231.72,231.72,0,0,0,732,489.18ZM331.8,635c-4-1.29-8-2.69-11.82-4.28a105.61,105.61,0,0,1-11.19-5.35c-1.81-1-3.5-2-5.22-3.11s-3.32-2.24-4.84-3.48l-1.17-.9-1.08-1-1.09-.95a12.24,12.24,0,0,1-1-1l-2-2-1.75-2.15a35.55,35.55,0,0,1-5.24-9.67,58.92,58.92,0,0,1-2.84-11.31,51.48,51.48,0,0,1-.2-11.64,47.8,47.8,0,0,1,2.46-11.36,46.69,46.69,0,0,1,5-10.07,76.53,76.53,0,0,1,7.64-9.17c2.87-3.06,6-6.05,9.25-9.28l.06-.06a1.09,1.09,0,0,0,.32-.9,1.13,1.13,0,0,0-1.23-1,35.64,35.64,0,0,0-10.43,2.7,68.58,68.58,0,0,1,2.67-9.09c.58-1.66,1.31-3.26,2-4.88s1.53-3.17,2.47-4.66c.45-.74.86-1.54,1.36-2.25l1.49-2.18a25.33,25.33,0,0,1,1.62-2.09,25.07,25.07,0,0,1,1.7-2,76.06,76.06,0,0,1,7.84-7.23,63.48,63.48,0,0,1,8.95-6.18,72,72,0,0,1,20.9-7.9s3.31-.76,5.19-1c1.21-.17-2.29-.62-2.71-.68s-1.66-.17-2.63-.25v0l-.92,0a40,40,0,0,0-5,.08c-1.42.07-2.83.22-4.24.41a56.26,56.26,0,0,1,7-21.44c6.74-11.44,19.82-21.81,29.25-26.15,10.22-4.7,21.24-5.52,25.57-5.65l.42.39-.76,1.51c-.92,1.89-1.77,3.79-2.55,5.73a61.51,61.51,0,0,0-3.63,12.28c-.71,4.08-1.13,8-1.62,11.83s-1,7.55-1.64,11.41a113.8,113.8,0,0,0-1.59,12.14,28.38,28.38,0,0,0,0,3.44,14.67,14.67,0,0,0,.74,3.92,10.26,10.26,0,0,0,1,2.21l.39.56c.13.17.24.29.36.44a10.42,10.42,0,0,0,4.87,3.2,10.92,10.92,0,0,0,4.39.28,15.38,15.38,0,0,0,3.61-1,23.31,23.31,0,0,0,5.57-3.49,54.2,54.2,0,0,0-2.87,5.38c-.31.73-.65,1.44-.93,2.18l-.84,2.22a37.78,37.78,0,0,0-1.4,4.69,21.07,21.07,0,0,0,.31,11.07,14.32,14.32,0,0,0,.56,1.5c.21.47.6,1.22.84,1.68.07.13.14.26.24.41l.55.8a11.62,11.62,0,0,0,1.3,1.41,11,11,0,0,0,6.4,2.83,15,15,0,0,0,5.94-.7,26,26,0,0,0,2.53-1c.8-.37,1.59-.71,2.37-1a24.55,24.55,0,0,0,4-2.48,24.17,24.17,0,0,0-1.77,4.54,29.82,29.82,0,0,0-1,10.06,42.18,42.18,0,0,0,1.89,9.95l.09.29a5.75,5.75,0,0,0,.48,1.08,41.41,41.41,0,0,0-1.59,6.09c-1.54-.3-3.08-.57-4.62-.83-3.25-.54-6.37-1.09-9.91-1.35-3.37-.17-6.59,0-9.81.11s-6.37.42-9.55.72a.81.81,0,0,0,0,1.61h0c3.11.33,6.24.81,9.31,1.4a52.33,52.33,0,0,1,17.22,5.9c1.38.7,2.73,1.44,4.07,2.2.68.37,1.34.79,2,1.19l1.18,1.72a27.3,27.3,0,0,0,6.79,13.85A28.91,28.91,0,0,0,451.8,597l1.28,0a36.43,36.43,0,0,0,3.76-.2,38.62,38.62,0,0,1,10.74,18.09,57.84,57.84,0,0,1,1.79,22.79,46.26,46.26,0,0,1-1,5.48,36.73,36.73,0,0,1-1.73,5.09,37.42,37.42,0,0,1-2.47,4.69,34.82,34.82,0,0,1-3.21,4.25c-4.75,5.38-11.41,9.2-18.66,11.65a58.75,58.75,0,0,1-11.3,2.53,56.55,56.55,0,0,1-5.81.43,36.44,36.44,0,0,1-5.56-.21,25.69,25.69,0,0,1-9.85-2.88,13.38,13.38,0,0,1-6-6.43,15.89,15.89,0,0,1-.69-2.15,18.8,18.8,0,0,1-.39-2.39,9.61,9.61,0,0,1,.42-4.09c.24-.71.58-1.51,1-2.51a37.45,37.45,0,0,0,1.38-3.51,20.41,20.41,0,0,0,.85-4.32,18.18,18.18,0,0,0-.22-4.49,16.57,16.57,0,0,0-1.36-4.15,22,22,0,0,0-2-3.4,31.12,31.12,0,0,0-4.85-5.39,37.55,37.55,0,0,0-11.7-7.11,1,1,0,0,0-.95.14,1,1,0,0,0-.16,1.38h0a104.19,104.19,0,0,1,7.36,10.22,38.22,38.22,0,0,1,2.64,5.1,12.84,12.84,0,0,1,1.09,4.5,11.72,11.72,0,0,1-.24,2,7.57,7.57,0,0,1-.23.85l-.24,0h-.09c-4.28-.23-8.69-.5-13-.81s-8.7-.65-13-1.06c-8.65-.75-17.29-1.77-25.61-3.22A102.8,102.8,0,0,1,331.8,635ZM539.33,365.84a.85.85,0,0,0,1.18-.3l0,0A124.25,124.25,0,0,1,553.06,348a94.27,94.27,0,0,1,7.29-7.77,73.58,73.58,0,0,1,8-6.73,57,57,0,0,1,8.71-5.23c3.16-1.45,6.39-2.86,9.64-4a78,78,0,0,1,9.82-2.78c1.63-.34,3.27-.59,4.85-.79.8-.09,1.58-.19,2.33-.25l.39,0,.53.36c.74.51,1.47,1.07,2.2,1.63,1.46,1.12,2.87,2.37,4.26,3.62a104.88,104.88,0,0,1,7.95,8.1c2.51,2.85,4.89,5.86,7.15,8.92a58.82,58.82,0,0,1,5.48,9.4,90.12,90.12,0,0,1,6.69,21.47,107.34,107.34,0,0,1,1.5,11.29c.15,1.9.24,3.79.29,5.67v1.35a7.29,7.29,0,0,0,.08.79l.08.39.06.23.14.44a8,8,0,0,0,.92,1.83c.13.2.25.37.35.51l.32.44c.81,1.05,1.5,1.8,2.2,2.6,2.76,3,5.38,5.88,7.93,8.86s5,6,7.36,9.06a151,151,0,0,1,12.73,19.34,50.53,50.53,0,0,1,4.27,10,11.62,11.62,0,0,1,.52,4,3.07,3.07,0,0,1-.09.46.23.23,0,0,0,0,.09l-.21.36a4.69,4.69,0,0,1-.89,1.09,5.15,5.15,0,0,1-1,.77,6.49,6.49,0,0,1-1.63.65,13.76,13.76,0,0,1-4.87.07,46.69,46.69,0,0,1-11.19-3.28h0a.47.47,0,0,0-.47,0,.45.45,0,0,0-.15.62v0a123.5,123.5,0,0,0,12.15,15.89c2.21,2.5,4.54,5,6.9,7.33a16.16,16.16,0,0,1,3.88,6.13,11.27,11.27,0,0,1,.35,2.11,3.29,3.29,0,0,1-.31,1.83,4.3,4.3,0,0,1-.3.49,2.83,2.83,0,0,1-.34.42,3.67,3.67,0,0,1-1.11.78,11.12,11.12,0,0,1-3.65,1,39.14,39.14,0,0,1-9.18-.26,84.26,84.26,0,0,1-9.61-1.85h0a.28.28,0,0,0-.36.09.27.27,0,0,0,.06.39l0,0c.78.57,1.56,1.15,2.32,1.73.38.29.76.59,1.1.89s.65.63,1,.94a15.82,15.82,0,0,1,3.09,4.28,10.89,10.89,0,0,1,.81,2.3,8.42,8.42,0,0,1,.18,1.17,9.69,9.69,0,0,1,0,1.08,11.77,11.77,0,0,1-1.25,4.36,14,14,0,0,1-2.7,3.7,13.36,13.36,0,0,1-1.72,1.47,19.24,19.24,0,0,1-2,1.29,38,38,0,0,1-4.61,2.15l-2.65,1.06A25.12,25.12,0,0,0,646,513.7l-.16.08-.27.16a5.69,5.69,0,0,0-.52.33,9.53,9.53,0,0,0-1.09.89,7.35,7.35,0,0,0-1.22,1.6,6.2,6.2,0,0,0,0,6.11,6.39,6.39,0,0,0,.69,1c.12.14.32.35.39.42l.12.12.57.61c.81.88,1.63,1.86,2.41,2.86a60.64,60.64,0,0,1,4.31,6.36,64.49,64.49,0,0,1,6.22,14.07,66.29,66.29,0,0,1,1.78,7.46,69.78,69.78,0,0,1,.83,7.63,67.13,67.13,0,0,1-1.15,15.3A35.59,35.59,0,0,1,653.65,592,26.78,26.78,0,0,1,643.28,601a41.24,41.24,0,0,1-14.07,3.79,49.52,49.52,0,0,1-14.84-.6,29.68,29.68,0,0,1-12.58-5.74,26.56,26.56,0,0,1-8-10.92,32.28,32.28,0,0,1-1.89-6.82,57.9,57.9,0,0,1-.58-7.18,28.75,28.75,0,0,1,2.4-13.62,22.1,22.1,0,0,1,9.18-10.09,24.2,24.2,0,0,1,6.74-2.53,25.83,25.83,0,0,1,7.35-.69,20.57,20.57,0,0,1,7.12,1.71,23.54,23.54,0,0,1,6.3,4.21,30.52,30.52,0,0,1,5,6.11,40,40,0,0,1,2.34,4.21c.18.38.36.77.52,1.16l.39.94.18.47.08.24,0,.11,0,.06s0,.19,0-.13a.79.79,0,1,0,1.58,0c0-.36,0-.18,0-.26v-.07l0-.13,0-.27-.12-.53-.25-1c-.18-.7-.39-1.39-.61-2.07a37.25,37.25,0,0,0-1.56-4,34.42,34.42,0,0,0-4.59-7.49,25.93,25.93,0,0,0-15.52-9.35,32.3,32.3,0,0,0-9.3-.35,38.4,38.4,0,0,0-4.6.72,29.07,29.07,0,0,0-4.6,1.5,27.76,27.76,0,0,0-2.8,1.36,80.19,80.19,0,0,0-99-5.26,26.49,26.49,0,0,0-4.88-7.52A28.91,28.91,0,0,0,472.2,522c-11.27-.39-23.16,4.47-32.64,13.35a52,52,0,0,0-6.58,7.44h0a22.25,22.25,0,0,1-1.92-7.83,20.52,20.52,0,0,1,1.15-7.86,22,22,0,0,1,3.41-6.23c.3-.36.6-.72.89-1.09h0a.26.26,0,0,0,0-.29.25.25,0,0,0-.35-.1l-.1.06a76.54,76.54,0,0,1-7.73,4.1,43.74,43.74,0,0,1-7.87,2.7,9.1,9.1,0,0,1-6.56-1,7.5,7.5,0,0,1-1.41-1.11c-.1,0-.13-.14-.22-.19l-.1-.09s-.12-.16-.18-.23a3.25,3.25,0,0,1-.37-.52,3.64,3.64,0,0,1-.33-.58,13.94,13.94,0,0,1-1.23-6.39,37.79,37.79,0,0,1,.23-4c.15-1.39.37-2.73.61-4.12a127.14,127.14,0,0,1,4.66-16.84l0-.06a.3.3,0,0,0-.06-.31.32.32,0,0,0-.45,0h0c-3.49,2-6.89,3.87-10.26,5.35a25.18,25.18,0,0,1-4.9,1.64,5.45,5.45,0,0,1-3.51-.15,2.5,2.5,0,0,1-1.24-1.64,14.68,14.68,0,0,1-.05-4.27,108.08,108.08,0,0,1,2.09-11c1.82-7.73,2.95-15.77,4.46-23a51.22,51.22,0,0,1,3.43-10q1.13-2.49,2.42-4.89c.43-.79.88-1.59,1.32-2.33l.16-.26c-.05.09.19-.31.33-.57a8.58,8.58,0,0,0,.74-1.92,8.75,8.75,0,0,0-1.78-7.82l-.35-.39-.18-.19-.28-.3-.55-.56-2.1-2.09c-.67-.67-1.32-1.33-1.9-1.95-.3-.32-.56-.61-.82-.91l-.81-1a38.93,38.93,0,0,1-5.31-8.68,48.8,48.8,0,0,1-3.21-9.88,67.72,67.72,0,0,1-1.45-10.66c-.13-1.84-.12-3.6-.15-5.4s.07-3.62.22-5.45a107.47,107.47,0,0,1,1.32-11q.88-5.53,2.17-11c.45-1.83.87-3.66,1.36-5.48.25-1,.52-1.95.79-2.91.76-.33,1.52-.64,2.29-.95,1.63-.64,3.29-1.24,5-1.8a98.19,98.19,0,0,1,10.16-2.83,79.82,79.82,0,0,1,10.32-1.61c1.72-.15,3.43-.23,5.14-.25s3.45,0,5.18.17a66.37,66.37,0,0,1,20.12,4.47l.74.3a12.08,12.08,0,0,0,1.16.38,11.46,11.46,0,0,0,2.4.4,11.55,11.55,0,0,0,8.91-3.37l.89-.89a11.07,11.07,0,0,1,.85-.77,51.41,51.41,0,0,1,8.41-5.71,95.12,95.12,0,0,1,19.66-8.06c1.72-.46,3.44-1,5.19-1.34.87-.19,1.74-.41,2.61-.59l2.64-.49c1.76-.37,3.54-.55,5.31-.83s3.47-.38,5.25-.48a82.75,82.75,0,0,1,21.19,1.62,60.6,60.6,0,0,1,16,5.7c-.25.29-.49.58-.73.88a99.76,99.76,0,0,0-6.58,9.12c-2,3.14-3.85,6.37-5.55,9.66a101.11,101.11,0,0,0-4.6,10.1A.85.85,0,0,0,539.33,365.84Zm111.74,26v0Zm-.05,131,0,0-.21.1ZM435,567.74c.18-8,4.42-17.14,12.11-24.34,7-6.56,15.87-10.4,23.88-10.4h.86c3.67.13,8.86,1.16,12.75,5.35,8.25,8.88,4.82,25.59-7.63,37.24-7.26,6.79-16.52,10.66-24.74,10.39-3.67-.13-8.86-1.16-12.75-5.35a17.4,17.4,0,0,1-4.45-11A6,6,0,0,0,435,567.74ZM477,589.46a53.62,53.62,0,0,0,7.43-5.83l0,0c12,10.16,22.07,16.28,40.74,22.3.82,1,1.63,2,2.43,3a117,117,0,0,1,10.88,16.71,180.77,180.77,0,0,1-29.14-10.86c-12.32-5.66-23.17-13.73-33.07-21.68C476.51,591.88,476.74,590.67,477,589.46Zm12.24-11c.8-1,1.56-2,2.27-3A159.19,159.19,0,0,1,515,594.72C504.8,590.4,497.6,585.54,489.25,578.49Zm17.21,42.65c13.68,6.28,26.11,10.63,36.07,12.62a141,141,0,0,1,6.18,16.45A106,106,0,0,1,516.45,645a89.47,89.47,0,0,1-33.26-19.44l-.1.11A68.08,68.08,0,0,0,480.17,611a55,55,0,0,0-3.72-8.85C485.48,609.17,495.34,616,506.46,621.14Zm-22.65,14.1a93.78,93.78,0,0,0,30.54,16.43,112.55,112.55,0,0,0,35.83,5.54h.5a135.67,135.67,0,0,1,2.86,14.35,69.63,69.63,0,0,1-9.85.7,67.94,67.94,0,0,1-60.45-36.56Zm49.34-30.63a162.55,162.55,0,0,0-38-35.11,42.23,42.23,0,0,0,4.77-17.84c.5-.41,1-.82,1.5-1.22,12,7.65,34.24,25.73,48.78,44.28,19.06,24.32,24.69,58.15,26.09,69.36a67.91,67.91,0,0,1-15.86,6.13C558.72,658.47,552.74,629.61,533.15,604.61ZM555.7,590.4c-14.12-18-35.24-35.62-48.13-44.29a68.44,68.44,0,0,1,19.32-8.24c11,7.16,30.8,21.78,45.77,42.32,18.39,25.23,23.47,58.47,24.47,66.46a68.2,68.2,0,0,1-14.33,13.44C580.76,646.07,574.29,614.12,555.7,590.4ZM582.59,559a40.17,40.17,0,0,0-3.4,14.35,36.51,36.51,0,0,0,.1,4.06c-.32-.46-.64-.93-1-1.38-13.14-18-29.8-31.65-41.55-40a69.26,69.26,0,0,1,6.92-.36,68.34,68.34,0,0,1,16.26,2A205.07,205.07,0,0,1,582.59,559Zm-2.67-12.88a68.26,68.26,0,0,1,7.31,5.3c-.33.41-.65.81-1,1.23C584.14,550.39,582,548.2,579.92,546.16Zm15,61.85A41.35,41.35,0,0,0,611,615.34a68.17,68.17,0,0,1-8.07,22.77A179.35,179.35,0,0,0,594.93,608ZM468.45,716.75a218.36,218.36,0,0,1-125.8-64.52c1.85.28,3.69.52,5.54.78,2.25.23,4.52.5,6.77.68q6.77.6,13.49.93c7.66.34,15.25.47,22.93.35a22.57,22.57,0,0,0-.1,3.47,29.72,29.72,0,0,0,.48,4,27.23,27.23,0,0,0,1.1,4,24.29,24.29,0,0,0,4.31,7.33,27,27,0,0,0,6.32,5.38,37.53,37.53,0,0,0,14.53,5,50.72,50.72,0,0,0,7.33.46,69.58,69.58,0,0,0,7.07-.35,72,72,0,0,0,13.93-2.77,64.39,64.39,0,0,0,6.75-2.49,59.39,59.39,0,0,0,6.49-3.34,57.77,57.77,0,0,0,6.06-4.23,52,52,0,0,0,5.46-5.15,45.66,45.66,0,0,0,8.16-12.7c.16-.38.31-.76.46-1.14a79.66,79.66,0,0,0,33.54,25.81c-1,1.9-2.39,3.18-5.22,4.48-2.1,1-4.42.8-8.33.42a41.22,41.22,0,0,0-14,.47c-9.78,2.33-20.18,9.16-20,21.4A26.48,26.48,0,0,0,468.45,716.75Zm32,2.33q-6.36,0-12.68-.36c-8.66-3.44-10.08-10.06-10.13-13.78-.08-6.48,8.25-9,10.8-9.57,3.52-.84,6.72-.53,10.12-.2,4.38.42,9.34.89,14.48-1.46,7-3.18,9.91-7.42,11.74-11.68a81.12,81.12,0,0,0,18.9,2.23,80.23,80.23,0,0,0,79.24-67.66,71.58,71.58,0,0,0,7.5-.41,52.28,52.28,0,0,0,18-5.08,38.14,38.14,0,0,0,14.53-12.78,46.51,46.51,0,0,0,6.89-17.53A77.12,77.12,0,0,0,671,562.85a79.6,79.6,0,0,0-1.06-9,77.06,77.06,0,0,0-2.16-8.75,75.3,75.3,0,0,0-7.4-16.35,73,73,0,0,0-5.13-7.41l-.54-.65,1.18-.74a45.28,45.28,0,0,0,5.24-3.76,32.06,32.06,0,0,0,2.46-2.36,22.18,22.18,0,0,0,2.15-2.78,19.87,19.87,0,0,0,2.77-6.35,16.47,16.47,0,0,0,.22-7,13.82,13.82,0,0,0-.49-1.75,15.1,15.1,0,0,0-.67-1.57A14.36,14.36,0,0,0,666,492c.86.36,1.73.71,2.63,1a30.94,30.94,0,0,0,5.26,1.37,18.63,18.63,0,0,0,6.08.09,13.3,13.3,0,0,0,3.42-1.06,11.75,11.75,0,0,0,1.69-1,12.55,12.55,0,0,0,1.49-1.17,12.4,12.4,0,0,0,3.84-6.89,12.75,12.75,0,0,0-1-7.5,18.4,18.4,0,0,0-3.75-5.34,25,25,0,0,0-4.57-3.62c-2.74-1.72-5.41-3.48-8.08-5.33l-.86-.61c.36.08.71.16,1.09.21a12.06,12.06,0,0,0,4.29-.17,11.07,11.07,0,0,0,4.27-2,13.46,13.46,0,0,0,3.06-3.37c.2-.31.36-.59.56-.94a9.59,9.59,0,0,0,.58-1.27,11.41,11.41,0,0,0,.63-2.44,20.32,20.32,0,0,0-.61-7.85,60.64,60.64,0,0,0-4.85-12.15,161.93,161.93,0,0,0-13.21-21q-3.66-5-7.59-9.68c-2.6-3.14-5.37-6.23-7.92-9.15-.49-.57-1-1.16-1.38-1.65q0-3.12-.22-6.22a116.57,116.57,0,0,0-1.49-12.49,101.53,101.53,0,0,0-7.26-24.3,70.16,70.16,0,0,0-6.44-11.37c-2.45-3.41-5-6.7-7.73-9.89a117.18,117.18,0,0,0-8.72-9.13c-1.57-1.44-3.15-2.86-4.81-4.23-.82-.69-1.67-1.37-2.54-2-.43-.34-.89-.67-1.34-1s-.87-.63-1.55-1.06l-.07,0A5.57,5.57,0,0,0,606,308h-1.1c-.29,0-.6,0-.87,0-.56,0-1.11.09-1.63.15-1.06.14-2.08.3-3.08.53a51.73,51.73,0,0,0-5.81,1.61,88,88,0,0,0-10.8,4.44c-3.46,1.68-6.74,3.58-10,5.57a60.23,60.23,0,0,0-9.27,7.17c-.75.69-1.47,1.39-2.17,2.11a67.39,67.39,0,0,0-19.13-7.71,91.07,91.07,0,0,0-23.2-2.43c-1.94.06-3.94.15-5.89.38s-3.84.39-5.75.73l-2.87.45c-.95.17-1.9.37-2.85.56-1.9.35-3.78.84-5.66,1.29a104.19,104.19,0,0,0-21.85,8.27,59.62,59.62,0,0,0-10.21,6.57c-.42.35-.83.65-1.25,1.07l-1.13,1a1.49,1.49,0,0,1-.57.33,1.6,1.6,0,0,1-.69.05,1.4,1.4,0,0,1-.34-.08l-.16-.07-.55-.23A76.62,76.62,0,0,0,436,334c-2-.2-4-.31-6-.36s-4,0-6,.12a92.81,92.81,0,0,0-11.8,1.49,111.75,111.75,0,0,0-11.44,2.84q-2.82.87-5.59,1.87c-.93.33-1.85.68-2.78,1.05s-1.8.73-2.87,1.21h0a5.9,5.9,0,0,0-3.07,3.4l0,.09c-.71,2.07-1.29,3.93-1.87,5.9s-1.12,3.89-1.61,5.85c-1,3.93-1.83,7.89-2.53,11.91a120.1,120.1,0,0,0-1.46,12.23c-.18,2.06-.21,4.17-.25,6.26s.07,4.26.25,6.31a80.16,80.16,0,0,0,1.86,12.53A57.17,57.17,0,0,0,385.08,419a52.47,52.47,0,0,0,3.18,5.66,76.55,76.55,0,0,0-20.89,5.94c-10.79,5-26.21,16.76-34.58,31a68.81,68.81,0,0,0-8.93,30.33c-.37.13-.75.24-1.13.38a64.71,64.71,0,0,0-11.13,5.14,49.48,49.48,0,0,0-5.1,3.5,56.78,56.78,0,0,0-4.75,4.05,69.44,69.44,0,0,0-8.37,9.34c-1.31,1.65-2.39,3.43-3.55,5.18s-2.13,3.61-3.05,5.49c-1.19,2.34-2.25,4.74-3.2,7.18a206.44,206.44,0,0,1-2.84-32.75c0-121.34,98.87-220,220.28-219.72,120.47.3,218.87,98.7,219.17,219.17C720.49,620.21,621.81,719.08,500.46,719.08Z" transform="translate(-182 -182)"/></g><g id="Camada_4" data-name="Camada 4"><text class="cls-15" transform="translate(179.01 599.24) rotate(25.53)">@</text><text class="cls-15" transform="translate(189.83 604.34) rotate(24.12)"> </text><text class="cls-15" transform="translate(192.91 605.77) rotate(22.77)">m</text><text class="cls-15" transform="translate(203.6 610.2) rotate(21.1)">y</text><text class="cls-15" transform="translate(209.42 612.44) rotate(19.92)">a</text><text class="cls-15" transform="translate(216.14 614.9) rotate(18.2)">m</text><text class="cls-15" transform="translate(227 618.42) rotate(16.81)">i</text><text class="cls-15" transform="translate(230.4 619.46) rotate(15.8)">g</text><text class="cls-15" transform="matrix(0.97, 0.25, -0.25, 0.97, 237.81, 621.54)">u</text><text class="cls-15" transform="translate(244.9 623.35) rotate(13.26)">r</text><text class="cls-15" transform="translate(249.88 624.52) rotate(12.12)">u</text><text class="cls-15" transform="translate(257.36 626.15) rotate(10.34)">m</text><text class="cls-15" transform="translate(268.61 628.15) rotate(8.95)">i</text><text class="cls-15" transform="translate(272.06 628.7) rotate(8.03)">_</text><text class="cls-15" transform="translate(278.71 629.63) rotate(6.84)">s</text><text class="cls-15" transform="matrix(1, 0.1, -0.1, 1, 284.95, 630.37)">2</text><text class="cls-15" transform="translate(292.04 631.05) rotate(4.65)"> </text><text class="cls-15" transform="translate(295.05 631.29) rotate(4.1)"> </text><text class="cls-15" transform="translate(298.04 631.51) rotate(3.56)"> </text><text class="cls-15" transform="matrix(1, 0.05, -0.05, 1, 301.03, 631.69)"> </text><text class="cls-15" transform="translate(304.24 631.87) rotate(2.04)">p</text><text class="cls-15" transform="translate(311.8 632.12) rotate(0.93)">o</text><text class="cls-15" transform="matrix(1, -0.02, 0.02, 1, 319.43, 632.22)">r</text><text class="cls-15" transform="translate(324.18 632.16) rotate(-1.18)"> </text><text class="cls-15" transform="translate(327.08 632.1) rotate(-1.7)"> </text><text class="cls-15" transform="translate(330.09 632.01) rotate(-2.24)"> </text><text class="cls-15" transform="translate(333.09 631.89) rotate(-2.79)"> </text><text class="cls-15" transform="translate(336.48 631.76) rotate(-4.12)">M</text><text class="cls-15" transform="translate(347.97 630.89) rotate(-5.83)">a</text><text class="cls-15" transform="translate(354.77 630.18) rotate(-6.92)">r</text><text class="cls-15" transform="translate(359.68 629.58) rotate(-7.68)">i</text><text class="cls-15" transform="translate(363.18 629.12) rotate(-8.63)">a</text><text class="cls-15" transform="translate(370.05 628.07) rotate(-9.96)">n</text><text class="cls-15" transform="translate(377.47 626.76) rotate(-11.3)">a</text><text class="cls-15" transform="matrix(0.98, -0.21, 0.21, 0.98, 384.09, 625.42)"> </text><text class="cls-15" transform="matrix(0.97, -0.23, 0.23, 0.97, 387.29, 624.74)">C</text><text class="cls-15" transform="translate(395.71 622.73) rotate(-14.74)">a</text><text class="cls-15" transform="translate(402.25 620.99) rotate(-15.7)">l</text><text class="cls-15" transform="translate(405.75 620.02) rotate(-16.66)">a</text><text class="cls-15" transform="matrix(0.95, -0.31, 0.31, 0.95, 412.42, 618.02)">d</text><text class="cls-15" transform="translate(419.76 615.62) rotate(-19.41)">o</text><text class="cls-15" transform="matrix(0.94, -0.35, 0.35, 0.94, 426.49, 613.23)"> </text><text class="cls-15" transform="translate(429.5 612.13) rotate(-21.32)">L</text><text class="cls-15" transform="translate(436.14 609.51) rotate(-22.3)">i</text><text class="cls-15" transform="matrix(0.92, -0.4, 0.4, 0.92, 439.61, 608.14)">m</text><text class="cls-15" transform="matrix(0.9, -0.43, 0.43, 0.9, 450.21, 603.43)">a</text></g></svg>