<svg xmlns="http://www.w3.org/2000/svg" xmlns:xlink="http://www.w3.org/1999/xlink" width="1080" zoomAndPan="magnify" viewBox="0 0 810 809.999993" height="1080" preserveAspectRatio="xMidYMid meet" version="1.2"><defs><clipPath id="f2c6633a24"><path d="M 50.625 0 L 759.375 0 L 759.375 201 L 50.625 201 Z M 50.625 0 "/></clipPath><clipPath id="0ef7766092"><path d="M 283.5 25.207031 L 517.628906 25.207031 L 517.628906 133.394531 L 283.5 133.394531 Z M 283.5 25.207031 "/></clipPath><clipPath id="c276c0beda"><path d="M 321.75 25.207031 L 479.1875 25.207031 C 489.332031 25.207031 499.0625 29.234375 506.234375 36.410156 C 513.40625 43.582031 517.4375 53.3125 517.4375 63.457031 L 517.4375 95.144531 C 517.4375 105.289062 513.40625 115.019531 506.234375 122.191406 C 499.0625 129.363281 489.332031 133.394531 479.1875 133.394531 L 321.75 133.394531 C 311.605469 133.394531 301.875 129.363281 294.703125 122.191406 C 287.53125 115.019531 283.5 105.289062 283.5 95.144531 L 283.5 63.457031 C 283.5 53.3125 287.53125 43.582031 294.703125 36.410156 C 301.875 29.234375 311.605469 25.207031 321.75 25.207031 Z M 321.75 25.207031 "/></clipPath></defs><g id="df87116576"><g clip-rule="nonzero" clip-path="url(#f2c6633a24)"><path style=" stroke:none;fill-rule:nonzero;fill:#3d0066;fill-opacity:1;" d="M 734.0625 99.351562 L 556.875 99.351562 L 556.875 25.3125 C 556.875 11.390625 545.484375 0 531.5625 0 L 278.4375 0 C 264.515625 0 253.125 11.390625 253.125 25.3125 L 253.125 99.351562 L 75.9375 99.351562 C 62.015625 99.351562 50.625 110.742188 50.625 124.664062 L 50.625 175.289062 C 50.625 189.210938 62.015625 200.601562 75.9375 200.601562 L 734.0625 200.601562 C 747.984375 200.601562 759.375 189.210938 759.375 175.289062 L 759.375 124.664062 C 759.375 110.742188 747.984375 99.351562 734.0625 99.351562 Z M 734.0625 99.351562 "/></g><path style=" stroke:none;fill-rule:nonzero;fill:#3d0066;fill-opacity:1;" d="M 162 787.851562 C 163.265625 800.507812 174.023438 810 187.3125 810 L 623.320312 810 C 635.976562 810 646.734375 800.507812 648.632812 787.851562 L 709.382812 253.757812 L 101.25 253.757812 Z M 506.25 705.585938 L 550.546875 351.84375 C 552.445312 337.921875 565.101562 328.429688 579.023438 329.695312 C 592.945312 331.59375 602.4375 344.25 601.171875 358.171875 L 556.875 711.914062 C 554.976562 724.570312 544.21875 734.0625 531.5625 734.0625 C 530.296875 734.0625 529.664062 734.0625 528.398438 734.0625 C 514.476562 732.164062 504.984375 719.507812 506.25 705.585938 Z M 379.6875 355.007812 C 379.6875 341.085938 391.078125 329.695312 405 329.695312 C 418.921875 329.695312 430.3125 341.085938 430.3125 355.007812 L 430.3125 708.75 C 430.3125 722.671875 418.921875 734.0625 405 734.0625 C 391.078125 734.0625 379.6875 722.671875 379.6875 708.75 Z M 230.976562 329.695312 C 244.898438 327.796875 257.554688 337.921875 259.453125 351.84375 L 303.75 705.585938 C 305.648438 719.507812 295.523438 732.164062 281.601562 734.0625 C 280.335938 734.0625 279.703125 734.0625 278.4375 734.0625 C 265.78125 734.0625 255.023438 724.570312 253.125 711.914062 L 208.828125 358.171875 C 207.5625 344.25 217.054688 331.59375 230.976562 329.695312 Z M 230.976562 329.695312 "/><g clip-rule="nonzero" clip-path="url(#0ef7766092)"><g clip-rule="nonzero" clip-path="url(#c276c0beda)"><path style=" stroke:none;fill-rule:nonzero;fill:#3d0066;fill-opacity:1;" d="M 283.5 25.207031 L 517.628906 25.207031 L 517.628906 133.394531 L 283.5 133.394531 Z M 283.5 25.207031 "/></g></g></g></svg>